<svg width="584" height="624" viewBox="0 0 584 624" fill="none" xmlns="http://www.w3.org/2000/svg">
<line x1="201" y1="20.5" x2="103" y2="20.5" stroke="#AFAFAF"/>
<line x1="292" y1="136.5" x2="140" y2="136.5" stroke="#AFAFAF"/>
<line x1="516" y1="136.5" x2="444" y2="136.5" stroke="#162D55"/>
<line x1="368" y1="293.5" x2="140" y2="293.5" stroke="#162D55"/>
<line x1="516" y1="396.5" x2="444" y2="396.5" stroke="#162D55"/>
<line x1="516" y1="448.5" x2="444" y2="448.5" stroke="#162D55"/>
<line x1="523" y1="344.5" x2="292" y2="344.5" stroke="#162D55"/>
<line x1="139.5" y1="266" x2="139.5" y2="84" stroke="#AFAFAF"/>
<line x1="443.5" y1="241" x2="443.5" y2="84" stroke="#162D55"/>
<line x1="139.5" y1="294" x2="139.5" y2="266" stroke="#162D55"/>
<line x1="291.5" y1="345" x2="291.5" y2="294" stroke="#162D55"/>
<line x1="443.5" y1="449" x2="443.5" y2="345" stroke="#162D55"/>
<line x1="212" y1="188.5" x2="140" y2="188.5" stroke="#AFAFAF"/>
<line x1="516" y1="188.5" x2="444" y2="188.5" stroke="#162D55"/>
<line x1="212" y1="240.5" x2="140" y2="240.5" stroke="#AFAFAF"/>
<line x1="516" y1="240.5" x2="444" y2="240.5" stroke="#162D55"/>
<line x1="473" y1="84.5" x2="114" y2="84.5" stroke="#AFAFAF"/>
<rect width="128" height="40" rx="4" fill="#162D55"/>
<path d="M68.6719 23.1094V27.0781H59.1094V23.1094H68.6719ZM60.3281 24.0625V26.125H67.4688V24.0625H60.3281ZM69.4844 14.5469V15.5H58.2188V14.5469H63.2812V13.1719H64.5V14.5469H69.4844ZM63.8906 16.0625C66.7656 16.0781 68.3906 16.7344 68.3906 18.0312C68.3906 19.25 66.9922 19.8984 64.5 19.9844V21.0625H70.2188V22.0469H57.5625V21.0625H63.2812V19.9844C60.7812 19.8984 59.375 19.25 59.375 18.0312C59.375 16.7344 61.0156 16.0781 63.8906 16.0625ZM63.8906 16.9219C61.8438 16.9375 60.6719 17.3125 60.6875 18.0312C60.6719 18.7344 61.8438 19.1406 63.8906 19.1406C65.9219 19.1406 67.0938 18.7344 67.0938 18.0312C67.0938 17.3125 65.9219 16.9375 63.8906 16.9219Z" fill="white"/>
<rect x="152" width="128" height="40" rx="4" fill="#F6F6F9"/>
<path d="M195.766 14.8281C195.75 18.8438 194.391 22.5156 189.391 24.9688L188.703 24.0312C191.32 22.7656 192.891 21.1562 193.734 19.2812L188.969 19.7344L188.766 18.6562L194.109 18.2969C194.352 17.5156 194.492 16.6953 194.547 15.8438H189.469V14.8281H195.766ZM199.312 13.375V19.0312H201.562V20.0625H199.312V27.2656H198.094V13.375H199.312ZM208.109 15.0781V16.0625H204.109V18.8125H207.469V19.7969H204.109V22.9219C206.102 22.8984 207.32 22.8281 208.828 22.5469L208.938 23.5469C207.328 23.875 206.016 23.9062 203.812 23.9219H202.938V15.0781H208.109ZM214.281 13.375V27.2656H213.094V13.375H214.281ZM211.438 13.7188V26.5469H210.266V19.6719H208.219V18.6562H210.266V13.7188H211.438ZM227.359 14.7812V16.1719C227.344 17.875 227.344 19.7812 226.844 22.5781L225.594 22.4375C226.125 19.7812 226.125 17.8281 226.125 16.1719V15.7969H217.562V14.7812H227.359ZM228.875 24.2812V25.2969H216.219V24.2812H221.188V19.3125H222.391V24.2812H228.875ZM241.516 13.375V27.2969H240.297V13.375H241.516ZM237.297 14.6719V19.6094H232.109V22.8906C234.414 22.8906 236.469 22.7891 238.953 22.3906L239.078 23.4219C236.516 23.8281 234.406 23.9219 232.016 23.9219H230.859V18.6094H236.062V15.6875H230.828V14.6719H237.297Z" fill="#2B2B2B"/>
<rect y="64" width="128" height="40" rx="4" fill="#162D55"/>
<path d="M36.5469 78.7812V87.7344H30.1406V78.7812H36.5469ZM31.3281 79.7656V86.7344H35.3281V79.7656H31.3281ZM40.3125 77.375V82.9219H42.6406V83.9844H40.3125V91.2656H39.0938V77.375H40.3125ZM54.8438 77.375V91.2969H53.6094V77.375H54.8438ZM47.4531 78.4531C49.5156 78.4688 51 80.3438 51 83.2969C51 86.25 49.5156 88.125 47.4531 88.125C45.375 88.125 43.9062 86.25 43.9062 83.2969C43.9062 80.3438 45.375 78.4688 47.4531 78.4531ZM47.4531 79.5469C46.0625 79.5625 45.0938 81.0312 45.0938 83.2969C45.0938 85.5625 46.0625 87.0312 47.4531 87.0312C48.8438 87.0312 49.8125 85.5625 49.8125 83.2969C49.8125 81.0312 48.8438 79.5625 47.4531 79.5469ZM69.1719 77.375V91.2656H67.9844V77.375H69.1719ZM66.4531 77.7188V90.5312H65.2812V83.7656H63.3438V82.6562H65.2812V77.7188H66.4531ZM63.75 79.1562V80.1719H62.5781V86.5938C63.1016 86.5625 63.6016 86.5156 64.0625 86.4531L64.1406 87.3594C61.9531 87.7656 59.0312 87.8281 57.2188 87.8281L57.0625 86.7812C57.4922 86.7812 57.9922 86.7812 58.5312 86.7656V80.1719H57.3594V79.1562H63.75ZM59.6562 86.75C60.2344 86.7344 60.8438 86.7109 61.4375 86.6719V80.1719H59.6562V86.75ZM82.5 77.375V91.2969H81.2656V77.375H82.5ZM75.1094 78.4531C77.1719 78.4688 78.6562 80.3438 78.6562 83.2969C78.6562 86.25 77.1719 88.125 75.1094 88.125C73.0312 88.125 71.5625 86.25 71.5625 83.2969C71.5625 80.3438 73.0312 78.4688 75.1094 78.4531ZM75.1094 79.5469C73.7188 79.5625 72.75 81.0312 72.75 83.2969C72.75 85.5625 73.7188 87.0312 75.1094 87.0312C76.5 87.0312 77.4688 85.5625 77.4688 83.2969C77.4688 81.0312 76.5 79.5625 75.1094 79.5469ZM89.8438 81.6406C89.8438 84 91.5625 86.3906 93.6094 87.2812L92.9219 88.25C91.2969 87.5078 89.8906 85.9062 89.25 83.9844C88.5938 86.0234 87.1953 87.7969 85.6094 88.5938L84.875 87.625C86.8594 86.6719 88.5938 84.0469 88.6094 81.6406V79.8281H85.3281V78.8125H93.1562V79.8281H89.8438V81.6406ZM96.3281 77.375V91.2656H95.0938V77.375H96.3281Z" fill="white"/>
<rect x="152" y="64" width="128" height="40" rx="4" fill="#F6F6F9"/>
<path d="M177.078 79.3438C177.062 81.2031 179.547 82.7812 181.969 83.1406L181.516 84.1094C179.344 83.7422 177.234 82.5859 176.391 80.9062C175.547 82.5859 173.43 83.7422 171.297 84.1094L170.812 83.1406C173.219 82.7812 175.703 81.2031 175.703 79.3438V79.25H171.25V78.25H181.516V79.25H177.078V79.3438ZM182.719 85.2969V86.3125H176.969V91.2656H175.766V86.3125H170.062V85.2969H182.719ZM196.594 84.4844V85.5H190.938V88.3438H189.719V85.5H183.875V84.4844H196.594ZM194.938 78.0625V82.8906H185.531V78.0625H194.938ZM186.734 79.0312V81.9062H193.719V79.0312H186.734ZM195.172 89.9375V90.9688H185.5V86.9688H186.734V89.9375H195.172ZM202.266 78.1562L198.609 91.7031H197.391L201.031 78.1562H202.266ZM204.75 78.7031V82.0938H207.766V78.7031H208.906V87.7969H203.578V78.7031H204.75ZM204.75 86.7812H207.766V83.0938H204.75V86.7812ZM214.969 77.375V91.2656H213.781V83.9062H211.844V90.5625H210.672V77.6719H211.844V82.8906H213.781V77.375H214.969ZM223.812 82.2344V84.2812H229.547V85.2812H216.891V84.2812H222.609V82.2344H223.812ZM223.828 78.25C223.828 80.0938 226.328 81.6406 228.781 81.9844L228.281 82.9688C226.172 82.6016 224.086 81.4844 223.219 79.875C222.344 81.4922 220.25 82.6016 218.125 82.9688L217.656 81.9844C220.109 81.6406 222.594 80.0938 222.594 78.25V77.5938H223.828V78.25ZM223.219 86.4375C226.203 86.4375 227.984 87.2969 228 88.8438C227.984 90.3906 226.203 91.2344 223.219 91.2344C220.203 91.2344 218.422 90.3906 218.422 88.8438C218.422 87.2969 220.203 86.4375 223.219 86.4375ZM223.219 87.4062C220.969 87.4062 219.656 87.9219 219.672 88.8438C219.656 89.75 220.969 90.2812 223.219 90.2812C225.438 90.2812 226.766 89.75 226.766 88.8438C226.766 87.9219 225.438 87.4062 223.219 87.4062ZM246.25 77.3906V87.9844H245.016V85H242.609V84H245.016V82.1094H242.609V81.0938H245.016V77.3906H246.25ZM242.609 79.0938V80.0938H234.75V79.0938H238.125V77.375H239.344V79.0938H242.609ZM238.719 80.8594C240.578 80.8594 241.891 81.9219 241.891 83.5156C241.891 85.0938 240.578 86.1719 238.719 86.1719C236.859 86.1719 235.562 85.0938 235.578 83.5156C235.562 81.9219 236.859 80.8594 238.719 80.8594ZM238.719 81.8281C237.531 81.8438 236.719 82.5156 236.719 83.5156C236.719 84.5156 237.531 85.1875 238.719 85.1875C239.906 85.1875 240.719 84.5156 240.734 83.5156C240.719 82.5156 239.906 81.8438 238.719 81.8281ZM246.562 89.9375V90.9688H237.266V87.0469H238.5V89.9375H246.562ZM259.406 77.3906V81.5781H261.484V82.6094H259.406V86.8125H258.172V77.3906H259.406ZM254.922 86.9844C257.812 86.9688 259.484 87.7344 259.5 89.125C259.484 90.5156 257.812 91.25 254.922 91.2656C252.016 91.25 250.359 90.5156 250.359 89.125C250.359 87.7344 252.016 86.9688 254.922 86.9844ZM254.922 87.9062C252.781 87.8906 251.578 88.3438 251.594 89.125C251.578 89.875 252.781 90.3281 254.922 90.3281C257.047 90.3281 258.25 89.875 258.25 89.125C258.25 88.3438 257.047 87.8906 254.922 87.9062ZM248.5 85.1875C249.617 85.1875 250.914 85.1797 252.266 85.1406V84.0312C250.641 83.8984 249.609 83.1719 249.609 82.0781C249.609 80.8438 250.891 80.1094 252.859 80.1094C254.844 80.1094 256.109 80.8438 256.125 82.0781C256.109 83.1641 255.109 83.8906 253.484 84.0312V85.0781C254.789 85.0234 256.102 84.9219 257.312 84.75L257.422 85.6094C254.438 86.125 251.109 86.1719 248.641 86.1719L248.5 85.1875ZM256.891 78.5781V79.5312H248.844V78.5781H252.266V77.2656H253.484V78.5781H256.891ZM252.859 80.9688C251.578 80.9688 250.781 81.4062 250.781 82.0781C250.781 82.7812 251.578 83.2031 252.859 83.2031C254.141 83.2031 254.953 82.7812 254.953 82.0781C254.953 81.4062 254.141 80.9688 252.859 80.9688Z" fill="#2B2B2B"/>
<rect x="152" y="116" width="128" height="40" rx="4" fill="#F6F6F9"/>
<path d="M177.078 131.344C177.062 133.203 179.547 134.781 181.969 135.141L181.516 136.109C179.344 135.742 177.234 134.586 176.391 132.906C175.547 134.586 173.43 135.742 171.297 136.109L170.812 135.141C173.219 134.781 175.703 133.203 175.703 131.344V131.25H171.25V130.25H181.516V131.25H177.078V131.344ZM182.719 137.297V138.312H176.969V143.266H175.766V138.312H170.062V137.297H182.719ZM196.594 136.484V137.5H190.938V140.344H189.719V137.5H183.875V136.484H196.594ZM194.938 130.062V134.891H185.531V130.062H194.938ZM186.734 131.031V133.906H193.719V131.031H186.734ZM195.172 141.938V142.969H185.5V138.969H186.734V141.938H195.172ZM202.266 130.156L198.609 143.703H197.391L201.031 130.156H202.266ZM204.75 130.703V134.094H207.766V130.703H208.906V139.797H203.578V130.703H204.75ZM204.75 138.781H207.766V135.094H204.75V138.781ZM214.969 129.375V143.266H213.781V135.906H211.844V142.562H210.672V129.672H211.844V134.891H213.781V129.375H214.969ZM223.812 134.234V136.281H229.547V137.281H216.891V136.281H222.609V134.234H223.812ZM223.828 130.25C223.828 132.094 226.328 133.641 228.781 133.984L228.281 134.969C226.172 134.602 224.086 133.484 223.219 131.875C222.344 133.492 220.25 134.602 218.125 134.969L217.656 133.984C220.109 133.641 222.594 132.094 222.594 130.25V129.594H223.828V130.25ZM223.219 138.438C226.203 138.438 227.984 139.297 228 140.844C227.984 142.391 226.203 143.234 223.219 143.234C220.203 143.234 218.422 142.391 218.422 140.844C218.422 139.297 220.203 138.438 223.219 138.438ZM223.219 139.406C220.969 139.406 219.656 139.922 219.672 140.844C219.656 141.75 220.969 142.281 223.219 142.281C225.438 142.281 226.766 141.75 226.766 140.844C226.766 139.922 225.438 139.406 223.219 139.406ZM246.594 129.375V143.266H245.391V136.078H243.391V142.547H242.234V129.688H243.391V135.031H245.391V129.375H246.594ZM236.656 131.078V138.578C238.039 138.562 239.508 138.469 241.203 138.125L241.359 139.219C239.422 139.562 237.828 139.672 236.297 139.672H235.438V131.078H236.656ZM260.078 138.328V143.266H258.844V139.312H250.734V138.328H260.078ZM260.078 129.375V137.562H258.844V135.562H255.266C254.617 136.352 253.594 136.82 252.391 136.812C250.312 136.828 248.781 135.453 248.781 133.484C248.781 131.547 250.312 130.172 252.391 130.172C253.586 130.172 254.609 130.641 255.266 131.422H258.844V129.375H260.078ZM252.391 131.219C250.969 131.219 249.953 132.172 249.953 133.484C249.953 134.844 250.969 135.781 252.391 135.781C253.75 135.781 254.797 134.844 254.797 133.484C254.797 132.172 253.75 131.219 252.391 131.219ZM255.812 134.547H258.844V132.438H255.812C255.922 132.766 255.984 133.109 255.984 133.484C255.984 133.859 255.922 134.219 255.812 134.547Z" fill="#2B2B2B"/>
<rect x="152" y="168" width="128" height="40" rx="4" fill="#F6F6F9"/>
<path d="M191.422 181.375V195.266H190.219V188.078H188.219V194.547H187.062V181.688H188.219V187.031H190.219V181.375H191.422ZM181.484 183.078V190.578C182.867 190.562 184.336 190.469 186.031 190.125L186.188 191.219C184.25 191.562 182.656 191.672 181.125 191.672H180.266V183.078H181.484ZM204.875 181.375V195.266H203.641V181.375H204.875ZM200.766 182.891C200.75 186.891 198.891 190.422 194.234 192.656L193.562 191.656C197.32 189.875 199.234 187.211 199.516 183.891H194.203V182.891H200.766ZM218.703 181.375V195.266H217.469V181.375H218.703ZM214.594 182.891C214.578 186.891 212.719 190.422 208.062 192.656L207.391 191.656C211.148 189.875 213.062 187.211 213.344 183.891H208.031V182.891H214.594ZM236.578 181.375V189.656H235.344V186.016H232.547V185H235.344V181.375H236.578ZM231.969 190.094C234.859 190.094 236.625 191.031 236.625 192.672C236.625 194.312 234.859 195.25 231.969 195.266C229.078 195.25 227.312 194.312 227.312 192.672C227.312 191.031 229.078 190.094 231.969 190.094ZM231.969 191.047C229.844 191.047 228.516 191.656 228.531 192.672C228.516 193.672 229.844 194.281 231.969 194.281C234.094 194.281 235.406 193.672 235.406 192.672C235.406 191.656 234.094 191.047 231.969 191.047ZM229.891 183.922C229.891 185.734 231.281 187.453 233.312 188.156L232.672 189.141C231.109 188.578 229.898 187.414 229.312 185.969C228.703 187.602 227.414 188.906 225.766 189.531L225.125 188.547C227.188 187.797 228.656 185.922 228.656 183.938V183.422H225.516V182.391H233V183.422H229.891V183.922ZM251.609 192.469V193.484H238.891V192.469H244.609V189.469H240.391V182.359H241.625V184.875H248.844V182.359H250.047V189.469H245.812V192.469H251.609ZM241.625 188.469H248.844V185.875H241.625V188.469Z" fill="#2B2B2B"/>
<rect x="152" y="220" width="128" height="40" rx="4" fill="#F6F6F9"/>
<path d="M191.422 233.375V247.266H190.219V240.078H188.219V246.547H187.062V233.688H188.219V239.031H190.219V233.375H191.422ZM181.484 235.078V242.578C182.867 242.562 184.336 242.469 186.031 242.125L186.188 243.219C184.25 243.562 182.656 243.672 181.125 243.672H180.266V235.078H181.484ZM204.906 233.375V241.656H203.672V238.016H200.875V237H203.672V233.375H204.906ZM200.297 242.094C203.188 242.094 204.953 243.031 204.953 244.672C204.953 246.312 203.188 247.25 200.297 247.266C197.406 247.25 195.641 246.312 195.641 244.672C195.641 243.031 197.406 242.094 200.297 242.094ZM200.297 243.047C198.172 243.047 196.844 243.656 196.859 244.672C196.844 245.672 198.172 246.281 200.297 246.281C202.422 246.281 203.734 245.672 203.734 244.672C203.734 243.656 202.422 243.047 200.297 243.047ZM198.219 235.922C198.219 237.734 199.609 239.453 201.641 240.156L201 241.141C199.438 240.578 198.227 239.414 197.641 237.969C197.031 239.602 195.742 240.906 194.094 241.531L193.453 240.547C195.516 239.797 196.984 237.922 196.984 235.938V235.422H193.844V234.391H201.328V235.422H198.219V235.922ZM219.938 244.469V245.484H207.219V244.469H212.938V241.469H208.719V234.359H209.953V236.875H217.172V234.359H218.375V241.469H214.141V244.469H219.938ZM209.953 240.469H217.172V237.875H209.953V240.469ZM232.766 234.453V235.188C232.75 236.094 232.75 237.484 232.406 239.297L231.172 239.203C231.508 237.539 231.539 236.359 231.562 235.484H225.844V234.453H232.766ZM229.188 237.531V240.516C230.727 240.453 232.32 240.344 233.766 240.141L233.844 241.047C230.938 241.547 227.578 241.609 225.109 241.609L224.984 240.594C225.883 240.586 226.898 240.578 227.969 240.547V237.531H229.188ZM235.953 233.375V237.906H237.984V238.953H235.953V243.828H234.703V233.375H235.953ZM236.406 245.938V246.969H227.125V242.891H228.359V245.938H236.406ZM250.359 233.375V247.297H249.141V233.375H250.359ZM246.141 234.672V239.609H240.953V242.891C243.258 242.891 245.312 242.789 247.797 242.391L247.922 243.422C245.359 243.828 243.25 243.922 240.859 243.922H239.703V238.609H244.906V235.688H239.672V234.672H246.141Z" fill="#2B2B2B"/>
<rect x="304" y="64" width="128" height="40" rx="4" fill="#F6F6F9"/>
<path d="M347.578 79.3438C347.562 81.2031 350.047 82.7812 352.469 83.1406L352.016 84.1094C349.844 83.7422 347.734 82.5859 346.891 80.9062C346.047 82.5859 343.93 83.7422 341.797 84.1094L341.312 83.1406C343.719 82.7812 346.203 81.2031 346.203 79.3438V79.25H341.75V78.25H352.016V79.25H347.578V79.3438ZM353.219 85.2969V86.3125H347.469V91.2656H346.266V86.3125H340.562V85.2969H353.219ZM367.094 84.4844V85.5H361.438V88.3438H360.219V85.5H354.375V84.4844H367.094ZM365.438 78.0625V82.8906H356.031V78.0625H365.438ZM357.234 79.0312V81.9062H364.219V79.0312H357.234ZM365.672 89.9375V90.9688H356V86.9688H357.234V89.9375H365.672ZM372.859 79.625C372.859 81.5156 374.297 83.25 376.312 83.9375L375.641 84.9062C374.102 84.3438 372.891 83.1953 372.281 81.75C371.688 83.3828 370.453 84.6719 368.828 85.2969L368.172 84.3125C370.25 83.5312 371.641 81.6719 371.656 79.5312V78.0938H372.859V79.625ZM379.078 77.375V81H381.172V82.0312H379.078V85.8281H377.859V77.375H379.078ZM374.625 86.1875C377.484 86.1875 379.203 87.1094 379.203 88.7031C379.203 90.3281 377.484 91.2344 374.625 91.2344C371.766 91.2344 370.016 90.3281 370.016 88.7031C370.016 87.1094 371.766 86.1875 374.625 86.1875ZM374.625 87.1719C372.531 87.1719 371.234 87.75 371.25 88.7031C371.234 89.6875 372.531 90.25 374.625 90.2656C376.734 90.25 378.016 89.6875 378.016 88.7031C378.016 87.75 376.734 87.1719 374.625 87.1719ZM386.172 81.3281C386.172 83.5312 387.25 85.9219 389.094 87.0156L388.391 87.9688C387.055 87.1562 386.094 85.6719 385.609 83.9844C385.094 85.8281 384.062 87.4141 382.672 88.2656L381.891 87.3438C383.812 86.2188 384.984 83.75 384.984 81.375V78.6875H386.172V81.3281ZM393.953 77.375V91.2656H392.766V77.375H393.953ZM391.078 77.6719V90.5625H389.922V83.4062H387.562V82.3594H389.922V77.6719H391.078Z" fill="#2B2B2B"/>
<rect x="456" y="64" width="128" height="40" rx="4" fill="#F6F6F9"/>
<path d="M494.25 78.7031V82.0938H497.266V78.7031H498.406V87.7969H493.078V78.7031H494.25ZM494.25 86.7812H497.266V83.0938H494.25V86.7812ZM504.469 77.375V91.2656H503.281V83.9062H501.344V90.5625H500.172V77.6719H501.344V82.8906H503.281V77.375H504.469ZM513.312 82.2344V84.2812H519.047V85.2812H506.391V84.2812H512.109V82.2344H513.312ZM513.328 78.25C513.328 80.0938 515.828 81.6406 518.281 81.9844L517.781 82.9688C515.672 82.6016 513.586 81.4844 512.719 79.875C511.844 81.4922 509.75 82.6016 507.625 82.9688L507.156 81.9844C509.609 81.6406 512.094 80.0938 512.094 78.25V77.5938H513.328V78.25ZM512.719 86.4375C515.703 86.4375 517.484 87.2969 517.5 88.8438C517.484 90.3906 515.703 91.2344 512.719 91.2344C509.703 91.2344 507.922 90.3906 507.922 88.8438C507.922 87.2969 509.703 86.4375 512.719 86.4375ZM512.719 87.4062C510.469 87.4062 509.156 87.9219 509.172 88.8438C509.156 89.75 510.469 90.2812 512.719 90.2812C514.938 90.2812 516.266 89.75 516.266 88.8438C516.266 87.9219 514.938 87.4062 512.719 87.4062ZM532.938 88.4531V89.4844H520.219V88.4531H525.953V85.0781H527.188V88.4531H532.938ZM527.188 80.0156C527.188 82.2344 529.938 84.1406 532.328 84.5312L531.828 85.5C529.703 85.0859 527.461 83.7344 526.578 81.7969C525.68 83.7422 523.445 85.125 521.359 85.5625L520.844 84.5781C523.188 84.1719 525.922 82.2344 525.922 80.0156V79.6719H521.266V78.6406H531.844V79.6719H527.188V80.0156ZM545.438 77.375V91.2656H544.219V77.375H545.438ZM534.125 87.5625C535.312 87.5547 536.672 87.5469 538.078 87.5V85.9844C536.414 85.8047 535.328 84.8594 535.344 83.4688C535.328 81.9062 536.672 80.8906 538.672 80.8906C540.672 80.8906 542.031 81.9062 542.031 83.4688C542.031 84.8438 540.953 85.7891 539.312 85.9688V87.4531C540.656 87.3984 542.016 87.2969 543.297 87.125L543.391 88.0625C540.297 88.5625 536.891 88.6094 534.312 88.6094L534.125 87.5625ZM542.938 79.0938V80.0938H534.422V79.0938H538.078V77.3906H539.312V79.0938H542.938ZM538.672 81.8438C537.391 81.8438 536.484 82.5 536.484 83.4688C536.484 84.4375 537.391 85.0625 538.672 85.0469C539.969 85.0625 540.859 84.4375 540.859 83.4688C540.859 82.5 539.969 81.8438 538.672 81.8438Z" fill="#2B2B2B"/>
<rect x="456" y="116" width="128" height="40" rx="4" fill="#E4EFFF"/>
<path d="M499.578 131.344C499.562 133.203 502.047 134.781 504.469 135.141L504.016 136.109C501.844 135.742 499.734 134.586 498.891 132.906C498.047 134.586 495.93 135.742 493.797 136.109L493.312 135.141C495.719 134.781 498.203 133.203 498.203 131.344V131.25H493.75V130.25H504.016V131.25H499.578V131.344ZM505.219 137.297V138.312H499.469V143.266H498.266V138.312H492.562V137.297H505.219ZM519.094 136.484V137.5H513.438V140.344H512.219V137.5H506.375V136.484H519.094ZM517.438 130.062V134.891H508.031V130.062H517.438ZM509.234 131.031V133.906H516.219V131.031H509.234ZM517.672 141.938V142.969H508V138.969H509.234V141.938H517.672ZM525.453 132C525.453 133.406 526.844 134.594 528.812 135.031L528.312 136.016C526.711 135.625 525.477 134.773 524.875 133.641C524.273 134.867 523.023 135.797 521.375 136.203L520.844 135.219C522.844 134.781 524.234 133.484 524.234 132V131.938H521.141V130.969H524.234V129.422H525.453V130.969H528.547V131.938H525.453V132ZM531.672 129.391V143.281H530.469V129.391H531.672ZM520.188 137.188C522.844 137.188 526.375 137.156 529.453 136.766L529.531 137.656C528.203 137.875 526.828 138.008 525.484 138.078V142.859H524.266V138.141C522.859 138.211 521.523 138.219 520.359 138.219L520.188 137.188ZM546.766 140.438V141.453H534.047V140.438H539.734V137.031H540.938V140.438H546.766ZM540.969 131.391C540.969 133.719 543.719 135.75 546.141 136.172L545.594 137.188C543.477 136.758 541.242 135.32 540.344 133.312C539.43 135.312 537.211 136.758 535.094 137.188L534.547 136.172C536.969 135.75 539.688 133.719 539.688 131.391V130.328H540.969V131.391Z" fill="#162D55"/>
<rect x="456" y="168" width="128" height="40" rx="4" fill="#E4EFFF"/>
<path d="M503.406 181.375V186.25H505.484V187.281H503.406V192.25H502.172V181.375H503.406ZM503.906 193.938V194.969H494.578V191.516H495.812V193.938H503.906ZM492.5 189.641C493.602 189.641 494.906 189.633 496.266 189.578V188.516C494.648 188.367 493.609 187.594 493.609 186.422C493.609 185.078 494.906 184.281 496.859 184.281C498.828 184.281 500.109 185.078 500.125 186.422C500.109 187.586 499.094 188.359 497.484 188.516V189.516C498.789 189.453 500.102 189.328 501.312 189.141L501.422 190.016C498.438 190.578 495.078 190.625 492.641 190.641L492.5 189.641ZM500.891 182.75V183.672H492.844V182.75H496.266V181.344H497.484V182.75H500.891ZM496.859 185.156C495.578 185.156 494.781 185.641 494.781 186.422C494.781 187.188 495.578 187.672 496.859 187.672C498.141 187.672 498.953 187.188 498.953 186.422C498.953 185.641 498.141 185.156 496.859 185.156ZM509.297 181.609V182.938H516.172V181.609H517.391V186.172H508.078V181.609H509.297ZM509.297 185.219H516.172V183.875H509.297V185.219ZM519.047 187.328V188.344H513.312V189.703H517.422V192.781H509.172V194.141H517.844V195.109H507.953V191.875H516.219V190.641H507.922V189.703H512.094V188.344H506.391V187.328H519.047ZM531.688 181.391V191.578H530.469V181.391H531.688ZM532.125 193.938V194.969H522.719V190.641H523.938V193.938H532.125ZM525.141 183.562C525.125 185.672 526.578 187.578 528.641 188.328L528 189.312C526.391 188.695 525.141 187.445 524.531 185.844C523.914 187.547 522.648 188.914 521.031 189.562L520.359 188.609C522.469 187.797 523.891 185.75 523.891 183.562V182.172H525.141V183.562ZM538.781 184.359C538.781 186.094 540.281 187.641 542.328 188.25L541.734 189.203C540.125 188.727 538.836 187.672 538.219 186.297C537.609 187.82 536.344 189.016 534.688 189.562L534.094 188.625C536.141 187.938 537.578 186.25 537.578 184.359V184.062H534.438V183.078H537.578V181.312H538.812V183.078H541.922V184.062H538.781V184.359ZM545.562 181.375V189.797H544.328V186.375H541.484V185.359H544.328V181.375H545.562ZM540.953 190.172C543.844 190.172 545.609 191.078 545.609 192.703C545.609 194.312 543.844 195.234 540.953 195.234C538.062 195.234 536.297 194.312 536.297 192.703C536.297 191.078 538.062 190.172 540.953 190.172ZM540.953 191.125C538.828 191.141 537.5 191.719 537.516 192.703C537.5 193.672 538.828 194.266 540.953 194.266C543.094 194.266 544.391 193.672 544.391 192.703C544.391 191.719 543.094 191.141 540.953 191.125Z" fill="#162D55"/>
<rect x="152" y="272" width="128" height="40" rx="4" fill="#E4EFFF"/>
<path d="M175.25 298H173.781L177.922 286.688H179.406L183.547 298H182.062L180.938 294.812H176.391L175.25 298ZM176.812 293.578H180.5L178.703 288.516H178.609L176.812 293.578ZM191.234 289.531C191.109 288.422 190.094 287.781 188.734 287.781C187.234 287.781 186.25 288.562 186.25 289.641C186.25 290.828 187.578 291.266 188.438 291.484L189.562 291.797C190.781 292.109 192.766 292.812 192.766 294.922C192.766 296.766 191.281 298.203 188.656 298.203C186.219 298.203 184.703 296.938 184.578 295.062H186.016C186.141 296.328 187.312 296.922 188.656 296.922C190.219 296.922 191.391 296.125 191.391 294.891C191.391 293.797 190.344 293.375 189.156 293.031L187.766 292.656C185.984 292.141 184.891 291.234 184.891 289.703C184.891 287.797 186.594 286.531 188.781 286.531C190.969 286.531 192.547 287.812 192.609 289.531H191.234ZM209.578 285.391V295.578H208.359V285.391H209.578ZM210.016 297.938V298.969H200.609V294.641H201.828V297.938H210.016ZM203.031 287.562C203.016 289.672 204.469 291.578 206.531 292.328L205.891 293.312C204.281 292.695 203.031 291.445 202.422 289.844C201.805 291.547 200.539 292.914 198.922 293.562L198.25 292.609C200.359 291.797 201.781 289.75 201.781 287.562V286.172H203.031V287.562ZM216.672 288.359C216.672 290.094 218.172 291.641 220.219 292.25L219.625 293.203C218.016 292.727 216.727 291.672 216.109 290.297C215.5 291.82 214.234 293.016 212.578 293.562L211.984 292.625C214.031 291.938 215.469 290.25 215.469 288.359V288.062H212.328V287.078H215.469V285.312H216.703V287.078H219.812V288.062H216.672V288.359ZM223.453 285.375V293.797H222.219V290.375H219.375V289.359H222.219V285.375H223.453ZM218.844 294.172C221.734 294.172 223.5 295.078 223.5 296.703C223.5 298.312 221.734 299.234 218.844 299.234C215.953 299.234 214.188 298.312 214.188 296.703C214.188 295.078 215.953 294.172 218.844 294.172ZM218.844 295.125C216.719 295.141 215.391 295.719 215.406 296.703C215.391 297.672 216.719 298.266 218.844 298.266C220.984 298.266 222.281 297.672 222.281 296.703C222.281 295.719 220.984 295.141 218.844 295.125ZM230.312 286.156L226.656 299.703H225.438L229.078 286.156H230.312ZM242.969 285.375V299.266H241.766V292.078H239.766V298.547H238.609V285.688H239.766V291.031H241.766V285.375H242.969ZM233.031 287.078V294.578C234.414 294.562 235.883 294.469 237.578 294.125L237.734 295.219C235.797 295.562 234.203 295.672 232.672 295.672H231.812V287.078H233.031ZM256.453 294.328V299.266H255.219V295.312H247.109V294.328H256.453ZM256.453 285.375V293.562H255.219V291.562H251.641C250.992 292.352 249.969 292.82 248.766 292.812C246.688 292.828 245.156 291.453 245.156 289.484C245.156 287.547 246.688 286.172 248.766 286.172C249.961 286.172 250.984 286.641 251.641 287.422H255.219V285.375H256.453ZM248.766 287.219C247.344 287.219 246.328 288.172 246.328 289.484C246.328 290.844 247.344 291.781 248.766 291.781C250.125 291.781 251.172 290.844 251.172 289.484C251.172 288.172 250.125 287.219 248.766 287.219ZM252.188 290.547H255.219V288.438H252.188C252.297 288.766 252.359 289.109 252.359 289.484C252.359 289.859 252.297 290.219 252.188 290.547Z" fill="#162D55"/>
<rect x="304" y="272" width="128" height="40" rx="4" fill="#E4EFFF"/>
<path d="M345.75 298H344.281L348.422 286.688H349.906L354.047 298H352.562L351.438 294.812H346.891L345.75 298ZM347.312 293.578H351L349.203 288.516H349.109L347.312 293.578ZM361.734 289.531C361.609 288.422 360.594 287.781 359.234 287.781C357.734 287.781 356.75 288.562 356.75 289.641C356.75 290.828 358.078 291.266 358.938 291.484L360.062 291.797C361.281 292.109 363.266 292.812 363.266 294.922C363.266 296.766 361.781 298.203 359.156 298.203C356.719 298.203 355.203 296.938 355.078 295.062H356.516C356.641 296.328 357.812 296.922 359.156 296.922C360.719 296.922 361.891 296.125 361.891 294.891C361.891 293.797 360.844 293.375 359.656 293.031L358.266 292.656C356.484 292.141 355.391 291.234 355.391 289.703C355.391 287.797 357.094 286.531 359.281 286.531C361.469 286.531 363.047 287.812 363.109 289.531H361.734ZM376.062 285.391V295.578H374.844V285.391H376.062ZM376.5 297.938V298.969H367.094V294.641H368.312V297.938H376.5ZM369.516 287.562C369.5 289.672 370.953 291.578 373.016 292.328L372.375 293.312C370.766 292.695 369.516 291.445 368.906 289.844C368.289 291.547 367.023 292.914 365.406 293.562L364.734 292.609C366.844 291.797 368.266 289.75 368.266 287.562V286.172H369.516V287.562ZM383.156 288.359C383.156 290.094 384.656 291.641 386.703 292.25L386.109 293.203C384.5 292.727 383.211 291.672 382.594 290.297C381.984 291.82 380.719 293.016 379.062 293.562L378.469 292.625C380.516 291.938 381.953 290.25 381.953 288.359V288.062H378.812V287.078H381.953V285.312H383.188V287.078H386.297V288.062H383.156V288.359ZM389.938 285.375V293.797H388.703V290.375H385.859V289.359H388.703V285.375H389.938ZM385.328 294.172C388.219 294.172 389.984 295.078 389.984 296.703C389.984 298.312 388.219 299.234 385.328 299.234C382.438 299.234 380.672 298.312 380.672 296.703C380.672 295.078 382.438 294.172 385.328 294.172ZM385.328 295.125C383.203 295.141 381.875 295.719 381.891 296.703C381.875 297.672 383.203 298.266 385.328 298.266C387.469 298.266 388.766 297.672 388.766 296.703C388.766 295.719 387.469 295.141 385.328 295.125Z" fill="#162D55"/>
<rect x="304" y="324" width="128" height="40" rx="4" fill="#E4EFFF"/>
<path d="M345.75 350H344.281L348.422 338.688H349.906L354.047 350H352.562L351.438 346.812H346.891L345.75 350ZM347.312 345.578H351L349.203 340.516H349.109L347.312 345.578ZM361.734 341.531C361.609 340.422 360.594 339.781 359.234 339.781C357.734 339.781 356.75 340.562 356.75 341.641C356.75 342.828 358.078 343.266 358.938 343.484L360.062 343.797C361.281 344.109 363.266 344.812 363.266 346.922C363.266 348.766 361.781 350.203 359.156 350.203C356.719 350.203 355.203 348.938 355.078 347.062H356.516C356.641 348.328 357.812 348.922 359.156 348.922C360.719 348.922 361.891 348.125 361.891 346.891C361.891 345.797 360.844 345.375 359.656 345.031L358.266 344.656C356.484 344.141 355.391 343.234 355.391 341.703C355.391 339.797 357.094 338.531 359.281 338.531C361.469 338.531 363.047 339.812 363.109 341.531H361.734ZM369.234 339.625C369.234 341.516 370.672 343.25 372.688 343.938L372.016 344.906C370.477 344.344 369.266 343.195 368.656 341.75C368.062 343.383 366.828 344.672 365.203 345.297L364.547 344.312C366.625 343.531 368.016 341.672 368.031 339.531V338.094H369.234V339.625ZM375.453 337.375V341H377.547V342.031H375.453V345.828H374.234V337.375H375.453ZM371 346.188C373.859 346.188 375.578 347.109 375.578 348.703C375.578 350.328 373.859 351.234 371 351.234C368.141 351.234 366.391 350.328 366.391 348.703C366.391 347.109 368.141 346.188 371 346.188ZM371 347.172C368.906 347.172 367.609 347.75 367.625 348.703C367.609 349.688 368.906 350.25 371 350.266C373.109 350.25 374.391 349.688 374.391 348.703C374.391 347.75 373.109 347.172 371 347.172ZM382.547 341.328C382.547 343.531 383.625 345.922 385.469 347.016L384.766 347.969C383.43 347.156 382.469 345.672 381.984 343.984C381.469 345.828 380.438 347.414 379.047 348.266L378.266 347.344C380.188 346.219 381.359 343.75 381.359 341.375V338.688H382.547V341.328ZM390.328 337.375V351.266H389.141V337.375H390.328ZM387.453 337.672V350.562H386.297V343.406H383.938V342.359H386.297V337.672H387.453Z" fill="#162D55"/>
<rect x="456" y="376" width="128" height="40" rx="4" fill="#E4EFFF"/>
<path d="M497.75 402H496.281L500.422 390.688H501.906L506.047 402H504.562L503.438 398.812H498.891L497.75 402ZM499.312 397.578H503L501.203 392.516H501.109L499.312 397.578ZM513.734 393.531C513.609 392.422 512.594 391.781 511.234 391.781C509.734 391.781 508.75 392.562 508.75 393.641C508.75 394.828 510.078 395.266 510.938 395.484L512.062 395.797C513.281 396.109 515.266 396.812 515.266 398.922C515.266 400.766 513.781 402.203 511.156 402.203C508.719 402.203 507.203 400.938 507.078 399.062H508.516C508.641 400.328 509.812 400.922 511.156 400.922C512.719 400.922 513.891 400.125 513.891 398.891C513.891 397.797 512.844 397.375 511.656 397.031L510.266 396.656C508.484 396.141 507.391 395.234 507.391 393.703C507.391 391.797 509.094 390.531 511.281 390.531C513.469 390.531 515.047 391.812 515.109 393.531H513.734ZM521.828 392C521.828 393.406 523.219 394.594 525.188 395.031L524.688 396.016C523.086 395.625 521.852 394.773 521.25 393.641C520.648 394.867 519.398 395.797 517.75 396.203L517.219 395.219C519.219 394.781 520.609 393.484 520.609 392V391.938H517.516V390.969H520.609V389.422H521.828V390.969H524.922V391.938H521.828V392ZM528.047 389.391V403.281H526.844V389.391H528.047ZM516.562 397.188C519.219 397.188 522.75 397.156 525.828 396.766L525.906 397.656C524.578 397.875 523.203 398.008 521.859 398.078V402.859H520.641V398.141C519.234 398.211 517.898 398.219 516.734 398.219L516.562 397.188ZM543.141 400.438V401.453H530.422V400.438H536.109V397.031H537.312V400.438H543.141ZM537.344 391.391C537.344 393.719 540.094 395.75 542.516 396.172L541.969 397.188C539.852 396.758 537.617 395.32 536.719 393.312C535.805 395.312 533.586 396.758 531.469 397.188L530.922 396.172C533.344 395.75 536.062 393.719 536.062 391.391V390.328H537.344V391.391Z" fill="#162D55"/>
<rect x="456" y="324" width="128" height="40" rx="4" fill="#E4EFFF"/>
<path d="M481.75 350H480.281L484.422 338.688H485.906L490.047 350H488.562L487.438 346.812H482.891L481.75 350ZM483.312 345.578H487L485.203 340.516H485.109L483.312 345.578ZM497.734 341.531C497.609 340.422 496.594 339.781 495.234 339.781C493.734 339.781 492.75 340.562 492.75 341.641C492.75 342.828 494.078 343.266 494.938 343.484L496.062 343.797C497.281 344.109 499.266 344.812 499.266 346.922C499.266 348.766 497.781 350.203 495.156 350.203C492.719 350.203 491.203 348.938 491.078 347.062H492.516C492.641 348.328 493.812 348.922 495.156 348.922C496.719 348.922 497.891 348.125 497.891 346.891C497.891 345.797 496.844 345.375 495.656 345.031L494.266 344.656C492.484 344.141 491.391 343.234 491.391 341.703C491.391 339.797 493.094 338.531 495.281 338.531C497.469 338.531 499.047 339.812 499.109 341.531H497.734ZM512.047 337.375V351.297H510.812V337.375H512.047ZM502.625 338.562V342.234H506.766V338.562H507.969V347.938H501.406V338.562H502.625ZM502.625 346.906H506.766V343.219H502.625V346.906ZM527.078 344.25V345.266H514.422V344.25H517.562V342.297C516.453 341.867 515.828 341.156 515.828 340.219C515.828 338.578 517.703 337.641 520.75 337.641C523.766 337.641 525.656 338.578 525.656 340.219C525.656 341.148 525.039 341.859 523.938 342.281V344.25H527.078ZM520.75 346.328C523.734 346.328 525.516 347.188 525.531 348.781C525.516 350.359 523.734 351.234 520.75 351.234C517.734 351.234 515.953 350.359 515.953 348.781C515.953 347.188 517.734 346.328 520.75 346.328ZM520.75 347.266C518.516 347.281 517.188 347.828 517.203 348.781C517.188 349.719 518.516 350.281 520.75 350.281C522.953 350.281 524.297 349.719 524.297 348.781C524.297 347.828 522.953 347.281 520.75 347.266ZM520.75 338.609C518.484 338.609 517.078 339.219 517.094 340.219C517.078 341.234 518.484 341.828 520.75 341.828C523 341.828 524.406 341.234 524.406 340.219C524.406 339.219 523 338.609 520.75 338.609ZM518.781 344.25H522.719V342.625C522.133 342.727 521.477 342.781 520.75 342.781C520.023 342.781 519.367 342.727 518.781 342.625V344.25ZM543.781 337.375V344.484H542.547V343.031H538.844V342.062H542.547V340.391H539.047C538.172 342.586 536.016 344.062 532.938 344.797L532.5 343.781C535.906 342.992 537.891 341.328 538.125 339.094H533.203V338.078H539.469C539.469 338.539 539.422 338.984 539.344 339.406H542.547V337.375H543.781ZM543.781 345.109V348.5H536.031V350.125H544.25V351.141H534.812V347.562H542.547V346.109H534.781V345.109H543.781ZM557.969 337.375V351.266H556.797V337.375H557.969ZM555.156 337.719V350.547H554V343.391H551.656V342.391H554V337.719H555.156ZM550.172 341.344C550.172 343.75 551.25 346.141 553.172 347.25L552.422 348.156C551.055 347.336 550.086 345.836 549.609 344.062C549.102 345.977 548.094 347.609 546.703 348.484L545.922 347.562C547.859 346.406 548.984 343.875 548.984 341.344V340.031H546.312V339.016H552.719V340.031H550.172V341.344Z" fill="#162D55"/>
<rect x="456" y="428" width="128" height="40" rx="4" fill="#E4EFFF"/>
<path d="M484.062 444.359C484.062 446.234 485.547 447.922 487.625 448.578L487 449.562C485.383 449.016 484.094 447.875 483.469 446.406C482.859 447.992 481.555 449.242 479.906 449.844L479.266 448.859C481.344 448.125 482.828 446.328 482.828 444.359V443.547H479.578V442.547H487.266V443.547H484.062V444.359ZM490.531 441.391V451.578H489.312V441.391H490.531ZM490.969 453.938V454.969H481.562V450.609H482.781V453.938H490.969ZM504.688 441.375V450.172H503.516V446.188H501.656V449.672H500.5V441.656H501.656V445.172H503.516V441.375H504.688ZM499.938 443.047V444.031H492.812V443.047H495.781V441.484H497V443.047H499.938ZM496.391 444.781C498.156 444.781 499.359 445.703 499.375 447.156C499.359 448.578 498.156 449.516 496.391 449.516C494.641 449.516 493.406 448.578 493.422 447.156C493.406 445.703 494.641 444.781 496.391 444.781ZM496.391 445.688C495.281 445.688 494.516 446.281 494.516 447.156C494.516 448.016 495.281 448.594 496.391 448.594C497.5 448.594 498.266 448.016 498.266 447.156C498.266 446.281 497.5 445.688 496.391 445.688ZM500.094 450.406C503.016 450.406 504.766 451.281 504.766 452.844C504.766 454.359 503.016 455.234 500.094 455.234C497.172 455.234 495.422 454.359 495.438 452.844C495.422 451.281 497.172 450.406 500.094 450.406ZM500.094 451.375C497.938 451.359 496.641 451.891 496.656 452.844C496.641 453.75 497.938 454.281 500.094 454.281C502.25 454.281 503.531 453.75 503.547 452.844C503.531 451.891 502.25 451.359 500.094 451.375ZM511.359 443.625C511.359 445.516 512.797 447.25 514.812 447.938L514.141 448.906C512.602 448.344 511.391 447.195 510.781 445.75C510.188 447.383 508.953 448.672 507.328 449.297L506.672 448.312C508.75 447.531 510.141 445.672 510.156 443.531V442.094H511.359V443.625ZM517.578 441.375V445H519.672V446.031H517.578V449.828H516.359V441.375H517.578ZM513.125 450.188C515.984 450.188 517.703 451.109 517.703 452.703C517.703 454.328 515.984 455.234 513.125 455.234C510.266 455.234 508.516 454.328 508.516 452.703C508.516 451.109 510.266 450.188 513.125 450.188ZM513.125 451.172C511.031 451.172 509.734 451.75 509.75 452.703C509.734 453.688 511.031 454.25 513.125 454.266C515.234 454.25 516.516 453.688 516.516 452.703C516.516 451.75 515.234 451.172 513.125 451.172ZM526.609 442.984V443.984H522.281V446.656H526.406V447.641H522.281V450.781C524.344 450.773 525.617 450.719 527.141 450.438L527.25 451.453C525.625 451.766 524.281 451.828 522 451.828H521.109V442.984H526.609ZM532.453 441.375V455.266H531.266V447.984H529.359V454.562H528.172V441.672H529.359V446.969H531.266V441.375H532.453ZM545.219 441.391V445.594H547.297V446.625H545.219V450.703H543.984V441.391H545.219ZM534.312 449.281C535.422 449.281 536.719 449.281 538.078 449.234V448.219C536.461 448.078 535.422 447.32 535.422 446.172C535.422 444.906 536.719 444.125 538.672 444.125C540.641 444.125 541.922 444.906 541.938 446.172C541.922 447.312 540.906 448.07 539.297 448.219V449.188C540.594 449.125 541.906 449.023 543.125 448.844L543.234 449.734C540.219 450.266 536.891 450.281 534.453 450.281L534.312 449.281ZM545.219 451.391V455.266H543.984V452.375H536.016V451.391H545.219ZM542.703 442.656V443.594H534.656V442.656H538.078V441.266H539.297V442.656H542.703ZM538.672 445C537.391 444.984 536.594 445.438 536.594 446.172C536.594 446.891 537.391 447.391 538.672 447.375C539.953 447.391 540.766 446.891 540.766 446.172C540.766 445.438 539.953 444.984 538.672 445ZM559.672 441.391V451.547H558.453V441.391H559.672ZM560.109 453.938V454.969H550.703V450.516H551.922V453.938H560.109ZM552.172 442.359C554.25 442.359 555.812 443.766 555.812 445.766C555.812 447.797 554.25 449.188 552.172 449.188C550.094 449.188 548.531 447.797 548.531 445.766C548.531 443.766 550.094 442.359 552.172 442.359ZM552.172 443.438C550.766 443.438 549.719 444.406 549.734 445.766C549.719 447.156 550.766 448.109 552.172 448.109C553.547 448.109 554.609 447.156 554.609 445.766C554.609 444.406 553.547 443.438 552.172 443.438Z" fill="#162D55"/>
<rect x="456" y="220" width="128" height="40" rx="4" fill="#E4EFFF"/>
<path d="M484.062 236.359C484.062 238.234 485.547 239.922 487.625 240.578L487 241.562C485.383 241.016 484.094 239.875 483.469 238.406C482.859 239.992 481.555 241.242 479.906 241.844L479.266 240.859C481.344 240.125 482.828 238.328 482.828 236.359V235.547H479.578V234.547H487.266V235.547H484.062V236.359ZM490.531 233.391V243.578H489.312V233.391H490.531ZM490.969 245.938V246.969H481.562V242.609H482.781V245.938H490.969ZM504.688 233.375V242.172H503.516V238.188H501.656V241.672H500.5V233.656H501.656V237.172H503.516V233.375H504.688ZM499.938 235.047V236.031H492.812V235.047H495.781V233.484H497V235.047H499.938ZM496.391 236.781C498.156 236.781 499.359 237.703 499.375 239.156C499.359 240.578 498.156 241.516 496.391 241.516C494.641 241.516 493.406 240.578 493.422 239.156C493.406 237.703 494.641 236.781 496.391 236.781ZM496.391 237.688C495.281 237.688 494.516 238.281 494.516 239.156C494.516 240.016 495.281 240.594 496.391 240.594C497.5 240.594 498.266 240.016 498.266 239.156C498.266 238.281 497.5 237.688 496.391 237.688ZM500.094 242.406C503.016 242.406 504.766 243.281 504.766 244.844C504.766 246.359 503.016 247.234 500.094 247.234C497.172 247.234 495.422 246.359 495.438 244.844C495.422 243.281 497.172 242.406 500.094 242.406ZM500.094 243.375C497.938 243.359 496.641 243.891 496.656 244.844C496.641 245.75 497.938 246.281 500.094 246.281C502.25 246.281 503.531 245.75 503.547 244.844C503.531 243.891 502.25 243.359 500.094 243.375ZM511.359 235.625C511.359 237.516 512.797 239.25 514.812 239.938L514.141 240.906C512.602 240.344 511.391 239.195 510.781 237.75C510.188 239.383 508.953 240.672 507.328 241.297L506.672 240.312C508.75 239.531 510.141 237.672 510.156 235.531V234.094H511.359V235.625ZM517.578 233.375V237H519.672V238.031H517.578V241.828H516.359V233.375H517.578ZM513.125 242.188C515.984 242.188 517.703 243.109 517.703 244.703C517.703 246.328 515.984 247.234 513.125 247.234C510.266 247.234 508.516 246.328 508.516 244.703C508.516 243.109 510.266 242.188 513.125 242.188ZM513.125 243.172C511.031 243.172 509.734 243.75 509.75 244.703C509.734 245.688 511.031 246.25 513.125 246.266C515.234 246.25 516.516 245.688 516.516 244.703C516.516 243.75 515.234 243.172 513.125 243.172ZM526.609 234.984V235.984H522.281V238.656H526.406V239.641H522.281V242.781C524.344 242.773 525.617 242.719 527.141 242.438L527.25 243.453C525.625 243.766 524.281 243.828 522 243.828H521.109V234.984H526.609ZM532.453 233.375V247.266H531.266V239.984H529.359V246.562H528.172V233.672H529.359V238.969H531.266V233.375H532.453ZM545.219 233.391V237.594H547.297V238.625H545.219V242.703H543.984V233.391H545.219ZM534.312 241.281C535.422 241.281 536.719 241.281 538.078 241.234V240.219C536.461 240.078 535.422 239.32 535.422 238.172C535.422 236.906 536.719 236.125 538.672 236.125C540.641 236.125 541.922 236.906 541.938 238.172C541.922 239.312 540.906 240.07 539.297 240.219V241.188C540.594 241.125 541.906 241.023 543.125 240.844L543.234 241.734C540.219 242.266 536.891 242.281 534.453 242.281L534.312 241.281ZM545.219 243.391V247.266H543.984V244.375H536.016V243.391H545.219ZM542.703 234.656V235.594H534.656V234.656H538.078V233.266H539.297V234.656H542.703ZM538.672 237C537.391 236.984 536.594 237.438 536.594 238.172C536.594 238.891 537.391 239.391 538.672 239.375C539.953 239.391 540.766 238.891 540.766 238.172C540.766 237.438 539.953 236.984 538.672 237ZM559.672 233.391V243.547H558.453V233.391H559.672ZM560.109 245.938V246.969H550.703V242.516H551.922V245.938H560.109ZM552.172 234.359C554.25 234.359 555.812 235.766 555.812 237.766C555.812 239.797 554.25 241.188 552.172 241.188C550.094 241.188 548.531 239.797 548.531 237.766C548.531 235.766 550.094 234.359 552.172 234.359ZM552.172 235.438C550.766 235.438 549.719 236.406 549.734 237.766C549.719 239.156 550.766 240.109 552.172 240.109C553.547 240.109 554.609 239.156 554.609 237.766C554.609 236.406 553.547 235.438 552.172 235.438Z" fill="#162D55"/>
<line x1="291.5" y1="137" x2="291.5" y2="84" stroke="#AFAFAF"/>
<line x1="212" y1="500.5" x2="140" y2="500.5" stroke="#C72C41"/>
<line x1="139.5" y1="605" x2="139.5" y2="448" stroke="#C72C41"/>
<line x1="212" y1="552.5" x2="140" y2="552.5" stroke="#C72C41"/>
<line x1="212" y1="604.5" x2="140" y2="604.5" stroke="#C72C41"/>
<line x1="217" y1="448.5" x2="114" y2="448.5" stroke="#C72C41"/>
<rect y="428" width="128" height="40" rx="4" fill="#162D55"/>
<path d="M63.2656 448.484V449.5H57.6094V452.344H56.3906V449.5H50.5469V448.484H63.2656ZM61.6094 442.062V446.891H52.2031V442.062H61.6094ZM53.4062 443.031V445.906H60.3906V443.031H53.4062ZM61.8438 453.938V454.969H52.1719V450.969H53.4062V453.938H61.8438ZM68.9375 442.391C71.125 442.391 72.6719 443.719 72.6719 445.656C72.6719 447.594 71.125 448.922 68.9375 448.922C66.75 448.922 65.1719 447.594 65.1875 445.656C65.1719 443.719 66.75 442.391 68.9375 442.391ZM68.9375 443.469C67.4531 443.469 66.375 444.359 66.3906 445.656C66.375 446.953 67.4531 447.844 68.9375 447.844C70.4062 447.844 71.4688 446.953 71.4688 445.656C71.4688 444.359 70.4062 443.469 68.9375 443.469ZM75.7812 441.375V455.297H74.5625V441.375H75.7812ZM64.4688 451.188C67.0312 451.188 70.5625 451.172 73.6406 450.719L73.7344 451.625C70.5625 452.219 67.1406 452.234 64.6406 452.234L64.4688 451.188Z" fill="white"/>
<rect x="152" y="428" width="128" height="40" rx="4" fill="#FFEAED"/>
<path d="M195.578 443.344C195.562 445.203 198.047 446.781 200.469 447.141L200.016 448.109C197.844 447.742 195.734 446.586 194.891 444.906C194.047 446.586 191.93 447.742 189.797 448.109L189.312 447.141C191.719 446.781 194.203 445.203 194.203 443.344V443.25H189.75V442.25H200.016V443.25H195.578V443.344ZM201.219 449.297V450.312H195.469V455.266H194.266V450.312H188.562V449.297H201.219ZM215.094 448.484V449.5H209.438V452.344H208.219V449.5H202.375V448.484H215.094ZM213.438 442.062V446.891H204.031V442.062H213.438ZM205.234 443.031V445.906H212.219V443.031H205.234ZM213.672 453.938V454.969H204V450.969H205.234V453.938H213.672ZM221.453 444C221.453 445.406 222.844 446.594 224.812 447.031L224.312 448.016C222.711 447.625 221.477 446.773 220.875 445.641C220.273 446.867 219.023 447.797 217.375 448.203L216.844 447.219C218.844 446.781 220.234 445.484 220.234 444V443.938H217.141V442.969H220.234V441.422H221.453V442.969H224.547V443.938H221.453V444ZM227.672 441.391V455.281H226.469V441.391H227.672ZM216.188 449.188C218.844 449.188 222.375 449.156 225.453 448.766L225.531 449.656C224.203 449.875 222.828 450.008 221.484 450.078V454.859H220.266V450.141C218.859 450.211 217.523 450.219 216.359 450.219L216.188 449.188ZM242.766 452.438V453.453H230.047V452.438H235.734V449.031H236.938V452.438H242.766ZM236.969 443.391C236.969 445.719 239.719 447.75 242.141 448.172L241.594 449.188C239.477 448.758 237.242 447.32 236.344 445.312C235.43 447.312 233.211 448.758 231.094 449.188L230.547 448.172C232.969 447.75 235.688 445.719 235.688 443.391V442.328H236.969V443.391Z" fill="#C72C41"/>
<rect x="152" y="480" width="128" height="40" rx="4" fill="#FFEAED"/>
<path d="M199.406 493.375V498.25H201.484V499.281H199.406V504.25H198.172V493.375H199.406ZM199.906 505.938V506.969H190.578V503.516H191.812V505.938H199.906ZM188.5 501.641C189.602 501.641 190.906 501.633 192.266 501.578V500.516C190.648 500.367 189.609 499.594 189.609 498.422C189.609 497.078 190.906 496.281 192.859 496.281C194.828 496.281 196.109 497.078 196.125 498.422C196.109 499.586 195.094 500.359 193.484 500.516V501.516C194.789 501.453 196.102 501.328 197.312 501.141L197.422 502.016C194.438 502.578 191.078 502.625 188.641 502.641L188.5 501.641ZM196.891 494.75V495.672H188.844V494.75H192.266V493.344H193.484V494.75H196.891ZM192.859 497.156C191.578 497.156 190.781 497.641 190.781 498.422C190.781 499.188 191.578 499.672 192.859 499.672C194.141 499.672 194.953 499.188 194.953 498.422C194.953 497.641 194.141 497.156 192.859 497.156ZM205.297 493.609V494.938H212.172V493.609H213.391V498.172H204.078V493.609H205.297ZM205.297 497.219H212.172V495.875H205.297V497.219ZM215.047 499.328V500.344H209.312V501.703H213.422V504.781H205.172V506.141H213.844V507.109H203.953V503.875H212.219V502.641H203.922V501.703H208.094V500.344H202.391V499.328H215.047ZM227.688 493.391V503.578H226.469V493.391H227.688ZM228.125 505.938V506.969H218.719V502.641H219.938V505.938H228.125ZM221.141 495.562C221.125 497.672 222.578 499.578 224.641 500.328L224 501.312C222.391 500.695 221.141 499.445 220.531 497.844C219.914 499.547 218.648 500.914 217.031 501.562L216.359 500.609C218.469 499.797 219.891 497.75 219.891 495.562V494.172H221.141V495.562ZM234.781 496.359C234.781 498.094 236.281 499.641 238.328 500.25L237.734 501.203C236.125 500.727 234.836 499.672 234.219 498.297C233.609 499.82 232.344 501.016 230.688 501.562L230.094 500.625C232.141 499.938 233.578 498.25 233.578 496.359V496.062H230.438V495.078H233.578V493.312H234.812V495.078H237.922V496.062H234.781V496.359ZM241.562 493.375V501.797H240.328V498.375H237.484V497.359H240.328V493.375H241.562ZM236.953 502.172C239.844 502.172 241.609 503.078 241.609 504.703C241.609 506.312 239.844 507.234 236.953 507.234C234.062 507.234 232.297 506.312 232.297 504.703C232.297 503.078 234.062 502.172 236.953 502.172ZM236.953 503.125C234.828 503.141 233.5 503.719 233.516 504.703C233.5 505.672 234.828 506.266 236.953 506.266C239.094 506.266 240.391 505.672 240.391 504.703C240.391 503.719 239.094 503.141 236.953 503.125Z" fill="#C72C41"/>
<rect x="152" y="532" width="128" height="40" rx="4" fill="#FFEAED"/>
<path d="M177.25 558H175.781L179.922 546.688H181.406L185.547 558H184.062L182.938 554.812H178.391L177.25 558ZM178.812 553.578H182.5L180.703 548.516H180.609L178.812 553.578ZM193.234 549.531C193.109 548.422 192.094 547.781 190.734 547.781C189.234 547.781 188.25 548.562 188.25 549.641C188.25 550.828 189.578 551.266 190.438 551.484L191.562 551.797C192.781 552.109 194.766 552.812 194.766 554.922C194.766 556.766 193.281 558.203 190.656 558.203C188.219 558.203 186.703 556.938 186.578 555.062H188.016C188.141 556.328 189.312 556.922 190.656 556.922C192.219 556.922 193.391 556.125 193.391 554.891C193.391 553.797 192.344 553.375 191.156 553.031L189.766 552.656C187.984 552.141 186.891 551.234 186.891 549.703C186.891 547.797 188.594 546.531 190.781 546.531C192.969 546.531 194.547 547.812 194.609 549.531H193.234ZM207.562 545.391V555.578H206.344V545.391H207.562ZM208 557.938V558.969H198.594V554.641H199.812V557.938H208ZM201.016 547.562C201 549.672 202.453 551.578 204.516 552.328L203.875 553.312C202.266 552.695 201.016 551.445 200.406 549.844C199.789 551.547 198.523 552.914 196.906 553.562L196.234 552.609C198.344 551.797 199.766 549.75 199.766 547.562V546.172H201.016V547.562ZM214.656 548.359C214.656 550.094 216.156 551.641 218.203 552.25L217.609 553.203C216 552.727 214.711 551.672 214.094 550.297C213.484 551.82 212.219 553.016 210.562 553.562L209.969 552.625C212.016 551.938 213.453 550.25 213.453 548.359V548.062H210.312V547.078H213.453V545.312H214.688V547.078H217.797V548.062H214.656V548.359ZM221.438 545.375V553.797H220.203V550.375H217.359V549.359H220.203V545.375H221.438ZM216.828 554.172C219.719 554.172 221.484 555.078 221.484 556.703C221.484 558.312 219.719 559.234 216.828 559.234C213.938 559.234 212.172 558.312 212.172 556.703C212.172 555.078 213.938 554.172 216.828 554.172ZM216.828 555.125C214.703 555.141 213.375 555.719 213.391 556.703C213.375 557.672 214.703 558.266 216.828 558.266C218.969 558.266 220.266 557.672 220.266 556.703C220.266 555.719 218.969 555.141 216.828 555.125ZM228.297 546.156L224.641 559.703H223.422L227.062 546.156H228.297ZM240.953 545.375V559.266H239.75V552.078H237.75V558.547H236.594V545.688H237.75V551.031H239.75V545.375H240.953ZM231.016 547.078V554.578C232.398 554.562 233.867 554.469 235.562 554.125L235.719 555.219C233.781 555.562 232.188 555.672 230.656 555.672H229.797V547.078H231.016ZM254.438 554.328V559.266H253.203V555.312H245.094V554.328H254.438ZM254.438 545.375V553.562H253.203V551.562H249.625C248.977 552.352 247.953 552.82 246.75 552.812C244.672 552.828 243.141 551.453 243.141 549.484C243.141 547.547 244.672 546.172 246.75 546.172C247.945 546.172 248.969 546.641 249.625 547.422H253.203V545.375H254.438ZM246.75 547.219C245.328 547.219 244.312 548.172 244.312 549.484C244.312 550.844 245.328 551.781 246.75 551.781C248.109 551.781 249.156 550.844 249.156 549.484C249.156 548.172 248.109 547.219 246.75 547.219ZM250.172 550.547H253.203V548.438H250.172C250.281 548.766 250.344 549.109 250.344 549.484C250.344 549.859 250.281 550.219 250.172 550.547Z" fill="#C72C41"/>
<rect x="152" y="584" width="128" height="40" rx="4" fill="#FFEAED"/>
<path d="M180.062 600.359C180.062 602.234 181.547 603.922 183.625 604.578L183 605.562C181.383 605.016 180.094 603.875 179.469 602.406C178.859 603.992 177.555 605.242 175.906 605.844L175.266 604.859C177.344 604.125 178.828 602.328 178.828 600.359V599.547H175.578V598.547H183.266V599.547H180.062V600.359ZM186.531 597.391V607.578H185.312V597.391H186.531ZM186.969 609.938V610.969H177.562V606.609H178.781V609.938H186.969ZM200.688 597.375V606.172H199.516V602.188H197.656V605.672H196.5V597.656H197.656V601.172H199.516V597.375H200.688ZM195.938 599.047V600.031H188.812V599.047H191.781V597.484H193V599.047H195.938ZM192.391 600.781C194.156 600.781 195.359 601.703 195.375 603.156C195.359 604.578 194.156 605.516 192.391 605.516C190.641 605.516 189.406 604.578 189.422 603.156C189.406 601.703 190.641 600.781 192.391 600.781ZM192.391 601.688C191.281 601.688 190.516 602.281 190.516 603.156C190.516 604.016 191.281 604.594 192.391 604.594C193.5 604.594 194.266 604.016 194.266 603.156C194.266 602.281 193.5 601.688 192.391 601.688ZM196.094 606.406C199.016 606.406 200.766 607.281 200.766 608.844C200.766 610.359 199.016 611.234 196.094 611.234C193.172 611.234 191.422 610.359 191.438 608.844C191.422 607.281 193.172 606.406 196.094 606.406ZM196.094 607.375C193.938 607.359 192.641 607.891 192.656 608.844C192.641 609.75 193.938 610.281 196.094 610.281C198.25 610.281 199.531 609.75 199.547 608.844C199.531 607.891 198.25 607.359 196.094 607.375ZM207.359 599.625C207.359 601.516 208.797 603.25 210.812 603.938L210.141 604.906C208.602 604.344 207.391 603.195 206.781 601.75C206.188 603.383 204.953 604.672 203.328 605.297L202.672 604.312C204.75 603.531 206.141 601.672 206.156 599.531V598.094H207.359V599.625ZM213.578 597.375V601H215.672V602.031H213.578V605.828H212.359V597.375H213.578ZM209.125 606.188C211.984 606.188 213.703 607.109 213.703 608.703C213.703 610.328 211.984 611.234 209.125 611.234C206.266 611.234 204.516 610.328 204.516 608.703C204.516 607.109 206.266 606.188 209.125 606.188ZM209.125 607.172C207.031 607.172 205.734 607.75 205.75 608.703C205.734 609.688 207.031 610.25 209.125 610.266C211.234 610.25 212.516 609.688 212.516 608.703C212.516 607.75 211.234 607.172 209.125 607.172ZM222.609 598.984V599.984H218.281V602.656H222.406V603.641H218.281V606.781C220.344 606.773 221.617 606.719 223.141 606.438L223.25 607.453C221.625 607.766 220.281 607.828 218 607.828H217.109V598.984H222.609ZM228.453 597.375V611.266H227.266V603.984H225.359V610.562H224.172V597.672H225.359V602.969H227.266V597.375H228.453ZM241.219 597.391V601.594H243.297V602.625H241.219V606.703H239.984V597.391H241.219ZM230.312 605.281C231.422 605.281 232.719 605.281 234.078 605.234V604.219C232.461 604.078 231.422 603.32 231.422 602.172C231.422 600.906 232.719 600.125 234.672 600.125C236.641 600.125 237.922 600.906 237.938 602.172C237.922 603.312 236.906 604.07 235.297 604.219V605.188C236.594 605.125 237.906 605.023 239.125 604.844L239.234 605.734C236.219 606.266 232.891 606.281 230.453 606.281L230.312 605.281ZM241.219 607.391V611.266H239.984V608.375H232.016V607.391H241.219ZM238.703 598.656V599.594H230.656V598.656H234.078V597.266H235.297V598.656H238.703ZM234.672 601C233.391 600.984 232.594 601.438 232.594 602.172C232.594 602.891 233.391 603.391 234.672 603.375C235.953 603.391 236.766 602.891 236.766 602.172C236.766 601.438 235.953 600.984 234.672 601ZM255.672 597.391V607.547H254.453V597.391H255.672ZM256.109 609.938V610.969H246.703V606.516H247.922V609.938H256.109ZM248.172 598.359C250.25 598.359 251.812 599.766 251.812 601.766C251.812 603.797 250.25 605.188 248.172 605.188C246.094 605.188 244.531 603.797 244.531 601.766C244.531 599.766 246.094 598.359 248.172 598.359ZM248.172 599.438C246.766 599.438 245.719 600.406 245.734 601.766C245.719 603.156 246.766 604.109 248.172 604.109C249.547 604.109 250.609 603.156 250.609 601.766C250.609 600.406 249.547 599.438 248.172 599.438Z" fill="#C72C41"/>
</svg>
