<svg width="360" height="180" viewBox="0 0 360 180" fill="none" xmlns="http://www.w3.org/2000/svg">
<path d="M138.543 155.625H143.027C144.176 155.625 145.115 155.424 145.844 155.023C146.591 154.604 147.147 154.021 147.512 153.273C147.876 152.508 148.059 151.605 148.059 150.566C148.059 149.764 147.885 149.026 147.539 148.352C147.211 147.677 146.701 147.139 146.008 146.738C145.315 146.319 144.431 146.109 143.355 146.109C142.626 146.109 141.915 146.264 141.223 146.574C140.53 146.866 139.956 147.285 139.5 147.832C139.062 148.379 138.844 149.044 138.844 149.828H129.602C129.602 147.568 130.221 145.635 131.461 144.031C132.719 142.409 134.368 141.169 136.41 140.312C138.47 139.438 140.685 139 143.055 139C145.88 139 148.359 139.438 150.492 140.312C152.625 141.169 154.284 142.445 155.469 144.141C156.672 145.818 157.273 147.896 157.273 150.375C157.273 151.742 156.954 153.027 156.316 154.23C155.678 155.434 154.785 156.491 153.637 157.402C152.488 158.314 151.139 159.034 149.59 159.562C148.059 160.073 146.382 160.328 144.559 160.328H138.543V155.625ZM138.543 162.488V157.895H144.559C146.546 157.895 148.359 158.122 150 158.578C151.641 159.016 153.053 159.672 154.238 160.547C155.423 161.422 156.335 162.507 156.973 163.801C157.611 165.077 157.93 166.544 157.93 168.203C157.93 170.062 157.556 171.721 156.809 173.18C156.061 174.638 155.013 175.868 153.664 176.871C152.315 177.874 150.738 178.639 148.934 179.168C147.129 179.678 145.169 179.934 143.055 179.934C141.396 179.934 139.737 179.715 138.078 179.277C136.419 178.822 134.906 178.129 133.539 177.199C132.172 176.251 131.069 175.048 130.23 173.59C129.41 172.113 129 170.354 129 168.312H138.242C138.242 169.151 138.47 169.917 138.926 170.609C139.4 171.284 140.029 171.822 140.812 172.223C141.596 172.624 142.444 172.824 143.355 172.824C144.486 172.824 145.443 172.615 146.227 172.195C147.029 171.758 147.639 171.174 148.059 170.445C148.478 169.716 148.688 168.905 148.688 168.012C148.688 166.663 148.46 165.587 148.004 164.785C147.566 163.983 146.919 163.4 146.062 163.035C145.224 162.671 144.212 162.488 143.027 162.488H138.543Z" fill="#4375C2"/>
<path d="M190.988 163.828V170.938H162.332L161.785 165.305L177.781 139.574H185.055L177.152 152.508L170.59 163.828H190.988ZM186.969 139.574V179.387H177.754V139.574H186.969Z" fill="#4375C2"/>
<path d="M195.145 149.336V147.23C195.145 145.717 195.473 144.341 196.129 143.102C196.785 141.862 197.77 140.868 199.082 140.121C200.395 139.374 202.026 139 203.977 139C205.982 139 207.641 139.374 208.953 140.121C210.266 140.868 211.241 141.862 211.879 143.102C212.535 144.341 212.863 145.717 212.863 147.23V149.336C212.863 150.812 212.535 152.171 211.879 153.41C211.241 154.65 210.266 155.643 208.953 156.391C207.659 157.138 206.027 157.512 204.059 157.512C202.072 157.512 200.422 157.138 199.109 156.391C197.797 155.643 196.803 154.65 196.129 153.41C195.473 152.171 195.145 150.812 195.145 149.336ZM201.051 147.23V149.336C201.051 149.883 201.16 150.402 201.379 150.895C201.598 151.387 201.926 151.788 202.363 152.098C202.819 152.389 203.375 152.535 204.031 152.535C204.706 152.535 205.253 152.389 205.672 152.098C206.091 151.788 206.401 151.387 206.602 150.895C206.82 150.402 206.93 149.883 206.93 149.336V147.23C206.93 146.647 206.82 146.109 206.602 145.617C206.401 145.125 206.082 144.733 205.645 144.441C205.207 144.132 204.651 143.977 203.977 143.977C203.339 143.977 202.801 144.132 202.363 144.441C201.926 144.733 201.598 145.125 201.379 145.617C201.16 146.109 201.051 146.647 201.051 147.23ZM214.039 171.73V169.625C214.039 168.13 214.367 166.763 215.023 165.523C215.698 164.284 216.691 163.29 218.004 162.543C219.335 161.796 220.975 161.422 222.926 161.422C224.931 161.422 226.581 161.796 227.875 162.543C229.188 163.29 230.163 164.284 230.801 165.523C231.457 166.763 231.785 168.13 231.785 169.625V171.73C231.785 173.225 231.457 174.592 230.801 175.832C230.163 177.072 229.197 178.065 227.902 178.812C226.608 179.56 224.977 179.934 223.008 179.934C221.021 179.934 219.362 179.56 218.031 178.812C216.701 178.065 215.698 177.072 215.023 175.832C214.367 174.592 214.039 173.225 214.039 171.73ZM219.973 169.625V171.73C219.973 172.296 220.109 172.824 220.383 173.316C220.656 173.809 221.021 174.21 221.477 174.52C221.932 174.811 222.434 174.957 222.98 174.957C223.819 174.957 224.439 174.811 224.84 174.52C225.259 174.21 225.533 173.809 225.66 173.316C225.806 172.824 225.879 172.296 225.879 171.73V169.625C225.879 169.06 225.77 168.531 225.551 168.039C225.332 167.547 225.004 167.155 224.566 166.863C224.129 166.553 223.582 166.398 222.926 166.398C222.27 166.398 221.723 166.553 221.285 166.863C220.848 167.155 220.52 167.547 220.301 168.039C220.082 168.531 219.973 169.06 219.973 169.625ZM225.223 145.289L205.781 176.406L201.488 174.246L220.93 143.129L225.223 145.289Z" fill="#4375C2"/>
<path d="M124.299 87.6564C126.475 91.4244 125.217 96.2145 121.685 98.7546C98.47 115.447 82.7008 141.843 80.3149 172.005C79.9665 176.41 76.4183 180 72 180H8C3.58172 180 -0.0184078 176.412 0.174705 171.998C2.78463 112.341 34.4323 60.224 81.3326 29.4285C85.0584 26.9821 90.0236 28.2905 92.2522 32.1505L124.299 87.6564Z" fill="#4375C2"/>
<path d="M180 0C276.729 0 355.638 76.2987 359.825 171.996C360.018 176.41 356.418 180 352 180H288C283.582 180 280.033 176.406 279.685 172.001C275.61 120.513 232.536 80 180 80C165.923 80 152.526 82.9079 140.376 88.1566C136.43 89.8612 131.735 88.5356 129.586 84.813L97.4968 29.2341C95.2549 25.3509 96.6346 20.3668 100.658 18.3877C124.593 6.61425 151.524 0 180 0Z" fill="#EFEFF2"/>
</svg>
