<svg width="736" height="688" viewBox="0 0 736 688" fill="none" xmlns="http://www.w3.org/2000/svg">
<line x1="523" y1="20.5" x2="235" y2="20.5" stroke="#AFAFAF"/>
<line x1="520" y1="72.5" x2="444" y2="72.5" stroke="#AFAFAF"/>
<line x1="520" y1="344.5" x2="444" y2="344.5" stroke="#AFAFAF"/>
<line x1="140" y1="344.5" x2="64" y2="344.5" stroke="#162D55"/>
<line x1="216" y1="20.5" x2="140" y2="20.5" stroke="#162D55"/>
<line x1="216" y1="188.5" x2="140" y2="188.5" stroke="#162D55"/>
<line x1="216" y1="616.5" x2="140" y2="616.5" stroke="#162D55"/>
<line x1="672" y1="500.5" x2="444" y2="500.5" stroke="#AFAFAF"/>
<line x1="520" y1="124.5" x2="444" y2="124.5" stroke="#AFAFAF"/>
<line x1="596" y1="396.5" x2="444" y2="396.5" stroke="#AFAFAF"/>
<line x1="672" y1="20.5" x2="596" y2="20.5" stroke="#AFAFAF"/>
<line x1="523" y1="552.5" x2="444" y2="552.5" stroke="#AFAFAF"/>
<line x1="520" y1="240.5" x2="444" y2="240.5" stroke="#AFAFAF"/>
<line x1="672" y1="422.5" x2="596" y2="422.5" stroke="#AFAFAF"/>
<line x1="672" y1="370.5" x2="596" y2="370.5" stroke="#AFAFAF"/>
<line x1="672" y1="72.5" x2="575" y2="72.5" stroke="#AFAFAF"/>
<line x1="672" y1="124.5" x2="596" y2="124.5" stroke="#AFAFAF"/>
<line x1="520" y1="668.5" x2="292" y2="668.5" stroke="#AFAFAF"/>
<line x1="520" y1="292.5" x2="292" y2="292.5" stroke="#AFAFAF"/>
<line x1="520" y1="448.5" x2="292" y2="448.5" stroke="#AFAFAF"/>
<line x1="523" y1="188.5" x2="235" y2="188.5" stroke="#AFAFAF"/>
<line x1="443.5" y1="125" x2="443.5" y2="20" stroke="#AFAFAF"/>
<line x1="443.5" y1="397" x2="443.5" y2="293" stroke="#AFAFAF"/>
<line x1="443.5" y1="553" x2="443.5" y2="449" stroke="#AFAFAF"/>
<line x1="443.5" y1="241" x2="443.5" y2="188" stroke="#AFAFAF"/>
<line x1="595.5" y1="423" x2="595.5" y2="370" stroke="#AFAFAF"/>
<line x1="595.5" y1="125" x2="595.5" y2="20" stroke="#AFAFAF"/>
<line x1="291.5" y1="669" x2="291.5" y2="616" stroke="#AFAFAF"/>
<line x1="291.5" y1="449" x2="291.5" y2="188" stroke="#AFAFAF"/>
<line x1="139.5" y1="617" x2="139.5" y2="20" stroke="#162D55"/>
<line x1="523" y1="616.5" x2="235" y2="616.5" stroke="#AFAFAF"/>
<rect y="324" width="128" height="40" rx="4" fill="#162D55"/>
<path d="M43.5781 339.344C43.5625 341.203 46.0469 342.781 48.4688 343.141L48.0156 344.109C45.8438 343.742 43.7344 342.586 42.8906 340.906C42.0469 342.586 39.9297 343.742 37.7969 344.109L37.3125 343.141C39.7188 342.781 42.2031 341.203 42.2031 339.344V339.25H37.75V338.25H48.0156V339.25H43.5781V339.344ZM49.2188 345.297V346.312H43.4688V351.266H42.2656V346.312H36.5625V345.297H49.2188ZM63.0938 344.484V345.5H57.4375V348.344H56.2188V345.5H50.375V344.484H63.0938ZM61.4375 338.062V342.891H52.0312V338.062H61.4375ZM53.2344 339.031V341.906H60.2188V339.031H53.2344ZM61.6719 349.938V350.969H52V346.969H53.2344V349.938H61.6719ZM68.8594 339.625C68.8594 341.516 70.2969 343.25 72.3125 343.938L71.6406 344.906C70.1016 344.344 68.8906 343.195 68.2812 341.75C67.6875 343.383 66.4531 344.672 64.8281 345.297L64.1719 344.312C66.25 343.531 67.6406 341.672 67.6562 339.531V338.094H68.8594V339.625ZM75.0781 337.375V341H77.1719V342.031H75.0781V345.828H73.8594V337.375H75.0781ZM70.625 346.188C73.4844 346.188 75.2031 347.109 75.2031 348.703C75.2031 350.328 73.4844 351.234 70.625 351.234C67.7656 351.234 66.0156 350.328 66.0156 348.703C66.0156 347.109 67.7656 346.188 70.625 346.188ZM70.625 347.172C68.5312 347.172 67.2344 347.75 67.25 348.703C67.2344 349.688 68.5312 350.25 70.625 350.266C72.7344 350.25 74.0156 349.688 74.0156 348.703C74.0156 347.75 72.7344 347.172 70.625 347.172ZM82.1719 341.328C82.1719 343.531 83.25 345.922 85.0938 347.016L84.3906 347.969C83.0547 347.156 82.0938 345.672 81.6094 343.984C81.0938 345.828 80.0625 347.414 78.6719 348.266L77.8906 347.344C79.8125 346.219 80.9844 343.75 80.9844 341.375V338.688H82.1719V341.328ZM89.9531 337.375V351.266H88.7656V337.375H89.9531ZM87.0781 337.672V350.562H85.9219V343.406H83.5625V342.359H85.9219V337.672H87.0781Z" fill="white"/>
<rect x="152" width="128" height="40" rx="4" fill="#162D55"/>
<path d="M195.609 15.0156V16.0156H188.484V15.0156H191.453V13.4531H192.672V15.0156H195.609ZM192.062 16.7188C193.828 16.7188 195.031 17.7031 195.047 19.1875C195.031 20.6406 193.828 21.625 192.062 21.625C190.312 21.625 189.078 20.6406 189.094 19.1875C189.078 17.7031 190.312 16.7188 192.062 16.7188ZM192.062 17.6406C190.953 17.6562 190.188 18.2656 190.188 19.1875C190.188 20.0781 190.953 20.6875 192.062 20.6875C193.172 20.6875 193.938 20.0781 193.938 19.1875C193.938 18.2656 193.172 17.6562 192.062 17.6406ZM200.359 13.3906V22.0156H199.188V18.3125H197.375V21.9219H196.203V13.625H197.375V17.2969H199.188V13.3906H200.359ZM200.359 22.8438V27.2656H199.156V23.8438H191V22.8438H200.359ZM213.859 13.3906V21.2812H212.641V13.3906H213.859ZM213.859 22.0781V27.0781H204.828V22.0781H213.859ZM206.031 23.0781V26.0781H212.656V23.0781H206.031ZM207.312 15.2969C207.297 17.2656 208.797 19 210.844 19.7188L210.219 20.6562C208.609 20.1016 207.328 18.9297 206.703 17.4062C206.086 19.0312 204.789 20.3125 203.125 20.9219L202.5 19.9531C204.609 19.2188 206.062 17.3438 206.062 15.2969V13.9375H207.312V15.2969ZM227.734 13.375V21.6562H226.5V18.0156H223.703V17H226.5V13.375H227.734ZM223.125 22.0938C226.016 22.0938 227.781 23.0312 227.781 24.6719C227.781 26.3125 226.016 27.25 223.125 27.2656C220.234 27.25 218.469 26.3125 218.469 24.6719C218.469 23.0312 220.234 22.0938 223.125 22.0938ZM223.125 23.0469C221 23.0469 219.672 23.6562 219.688 24.6719C219.672 25.6719 221 26.2812 223.125 26.2812C225.25 26.2812 226.562 25.6719 226.562 24.6719C226.562 23.6562 225.25 23.0469 223.125 23.0469ZM221.047 15.9219C221.047 17.7344 222.438 19.4531 224.469 20.1562L223.828 21.1406C222.266 20.5781 221.055 19.4141 220.469 17.9688C219.859 19.6016 218.57 20.9062 216.922 21.5312L216.281 20.5469C218.344 19.7969 219.812 17.9219 219.812 15.9375V15.4219H216.672V14.3906H224.156V15.4219H221.047V15.9219ZM242.766 24.4688V25.4844H230.047V24.4688H235.766V21.4688H231.547V14.3594H232.781V16.875H240V14.3594H241.203V21.4688H236.969V24.4688H242.766ZM232.781 20.4688H240V17.875H232.781V20.4688Z" fill="white"/>
<rect x="304" width="128" height="40" rx="4" fill="#F6F6F9"/>
<path d="M331.078 15.3438C331.062 17.2031 333.547 18.7812 335.969 19.1406L335.516 20.1094C333.344 19.7422 331.234 18.5859 330.391 16.9062C329.547 18.5859 327.43 19.7422 325.297 20.1094L324.812 19.1406C327.219 18.7812 329.703 17.2031 329.703 15.3438V15.25H325.25V14.25H335.516V15.25H331.078V15.3438ZM336.719 21.2969V22.3125H330.969V27.2656H329.766V22.3125H324.062V21.2969H336.719ZM350.594 20.4844V21.5H344.938V24.3438H343.719V21.5H337.875V20.4844H350.594ZM348.938 14.0625V18.8906H339.531V14.0625H348.938ZM340.734 15.0312V17.9062H347.719V15.0312H340.734ZM349.172 25.9375V26.9688H339.5V22.9688H340.734V25.9375H349.172ZM356.359 15.625C356.359 17.5156 357.797 19.25 359.812 19.9375L359.141 20.9062C357.602 20.3438 356.391 19.1953 355.781 17.75C355.188 19.3828 353.953 20.6719 352.328 21.2969L351.672 20.3125C353.75 19.5312 355.141 17.6719 355.156 15.5312V14.0938H356.359V15.625ZM362.578 13.375V17H364.672V18.0312H362.578V21.8281H361.359V13.375H362.578ZM358.125 22.1875C360.984 22.1875 362.703 23.1094 362.703 24.7031C362.703 26.3281 360.984 27.2344 358.125 27.2344C355.266 27.2344 353.516 26.3281 353.516 24.7031C353.516 23.1094 355.266 22.1875 358.125 22.1875ZM358.125 23.1719C356.031 23.1719 354.734 23.75 354.75 24.7031C354.734 25.6875 356.031 26.25 358.125 26.2656C360.234 26.25 361.516 25.6875 361.516 24.7031C361.516 23.75 360.234 23.1719 358.125 23.1719ZM371.609 14.9844V15.9844H367.281V18.6562H371.406V19.6406H367.281V22.7812C369.344 22.7734 370.617 22.7188 372.141 22.4375L372.25 23.4531C370.625 23.7656 369.281 23.8281 367 23.8281H366.109V14.9844H371.609ZM377.453 13.375V27.2656H376.266V19.9844H374.359V26.5625H373.172V13.6719H374.359V18.9688H376.266V13.375H377.453ZM383.922 14.1562L380.266 27.7031H379.047L382.688 14.1562H383.922ZM388.047 14.25C389.875 14.25 391.234 15.6094 391.234 17.5312C391.234 19.4688 389.875 20.7812 388.047 20.7812C386.188 20.7812 384.859 19.4688 384.875 17.5312C384.859 15.6094 386.188 14.25 388.047 14.25ZM388.047 15.3125C386.859 15.3125 385.969 16.25 385.984 17.5312C385.969 18.8125 386.859 19.75 388.047 19.75C389.234 19.75 390.094 18.8125 390.109 17.5312C390.094 16.25 389.234 15.3125 388.047 15.3125ZM396.516 13.3906V21.6562H395.344V17.9844H393.5V21.5625H392.344V13.6562H393.5V16.9688H395.344V13.3906H396.516ZM396.516 22.4375V27.2656H395.312V23.4219H387.156V22.4375H396.516ZM403.297 15.9531C403.297 17.9844 404.688 19.9062 406.703 20.7031L406.016 21.6562C404.484 21.0234 403.297 19.7578 402.719 18.1719C402.117 19.8828 400.867 21.2422 399.25 21.9062L398.578 20.9219C400.641 20.125 402.078 18.125 402.094 15.9531V14.1719H403.297V15.9531ZM410.062 13.3906V23.7656H408.828V19.3125H405.969V18.3125H408.828V16.4688H405.969V15.4531H408.828V13.3906H410.062ZM410.375 25.9375V26.9688H401.078V22.6875H402.312V25.9375H410.375Z" fill="#2B2B2B"/>
<rect x="304" y="168" width="128" height="40" rx="4" fill="#F6F6F9"/>
<path d="M347.578 183.344C347.562 185.203 350.047 186.781 352.469 187.141L352.016 188.109C349.844 187.742 347.734 186.586 346.891 184.906C346.047 186.586 343.93 187.742 341.797 188.109L341.312 187.141C343.719 186.781 346.203 185.203 346.203 183.344V183.25H341.75V182.25H352.016V183.25H347.578V183.344ZM353.219 189.297V190.312H347.469V195.266H346.266V190.312H340.562V189.297H353.219ZM367.094 188.484V189.5H361.438V192.344H360.219V189.5H354.375V188.484H367.094ZM365.438 182.062V186.891H356.031V182.062H365.438ZM357.234 183.031V185.906H364.219V183.031H357.234ZM365.672 193.938V194.969H356V190.969H357.234V193.938H365.672ZM380.938 192.453V193.484H368.219V192.453H371.375V188.703C370.188 188.086 369.469 187.086 369.469 185.828C369.469 183.672 371.578 182.266 374.547 182.25C377.516 182.266 379.625 183.672 379.625 185.828C379.625 187.062 378.93 188.055 377.781 188.672V192.453H380.938ZM374.547 183.266C372.266 183.25 370.656 184.281 370.656 185.828C370.656 187.375 372.266 188.422 374.547 188.422C376.812 188.422 378.438 187.375 378.438 185.828C378.438 184.281 376.812 183.25 374.547 183.266ZM372.578 192.453H376.547V189.141C375.945 189.305 375.273 189.391 374.547 189.391C373.836 189.391 373.172 189.312 372.578 189.156V192.453ZM394.969 183.531V184.531H392.906V186.484H394.969V187.531H392.906V189.641H391.688V181.375H392.906V183.531H394.969ZM392.906 190.281V195.266H391.688V191.297H383.812V190.281H392.906ZM385.953 182.219C388.062 182.203 389.594 183.562 389.609 185.484C389.594 187.438 388.062 188.781 385.953 188.781C383.844 188.781 382.297 187.438 382.312 185.484C382.297 183.562 383.844 182.203 385.953 182.219ZM385.953 183.266C384.547 183.266 383.5 184.172 383.516 185.484C383.5 186.812 384.547 187.734 385.953 187.719C387.375 187.734 388.406 186.812 388.406 185.484C388.406 184.172 387.375 183.266 385.953 183.266Z" fill="#2B2B2B"/>
<rect x="304" y="272" width="128" height="40" rx="4" fill="#F6F6F9"/>
<path d="M342.25 286.703V290.094H345.266V286.703H346.406V295.797H341.078V286.703H342.25ZM342.25 294.781H345.266V291.094H342.25V294.781ZM352.469 285.375V299.266H351.281V291.906H349.344V298.562H348.172V285.672H349.344V290.891H351.281V285.375H352.469ZM361.312 290.234V292.281H367.047V293.281H354.391V292.281H360.109V290.234H361.312ZM361.328 286.25C361.328 288.094 363.828 289.641 366.281 289.984L365.781 290.969C363.672 290.602 361.586 289.484 360.719 287.875C359.844 289.492 357.75 290.602 355.625 290.969L355.156 289.984C357.609 289.641 360.094 288.094 360.094 286.25V285.594H361.328V286.25ZM360.719 294.438C363.703 294.438 365.484 295.297 365.5 296.844C365.484 298.391 363.703 299.234 360.719 299.234C357.703 299.234 355.922 298.391 355.922 296.844C355.922 295.297 357.703 294.438 360.719 294.438ZM360.719 295.406C358.469 295.406 357.156 295.922 357.172 296.844C357.156 297.75 358.469 298.281 360.719 298.281C362.938 298.281 364.266 297.75 364.266 296.844C364.266 295.922 362.938 295.406 360.719 295.406ZM379.734 285.375V293.656H378.5V290.016H375.703V289H378.5V285.375H379.734ZM375.125 294.094C378.016 294.094 379.781 295.031 379.781 296.672C379.781 298.312 378.016 299.25 375.125 299.266C372.234 299.25 370.469 298.312 370.469 296.672C370.469 295.031 372.234 294.094 375.125 294.094ZM375.125 295.047C373 295.047 371.672 295.656 371.688 296.672C371.672 297.672 373 298.281 375.125 298.281C377.25 298.281 378.562 297.672 378.562 296.672C378.562 295.656 377.25 295.047 375.125 295.047ZM373.047 287.922C373.047 289.734 374.438 291.453 376.469 292.156L375.828 293.141C374.266 292.578 373.055 291.414 372.469 289.969C371.859 291.602 370.57 292.906 368.922 293.531L368.281 292.547C370.344 291.797 371.812 289.922 371.812 287.938V287.422H368.672V286.391H376.156V287.422H373.047V287.922ZM394.766 296.469V297.484H382.047V296.469H387.766V293.469H383.547V286.359H384.781V288.875H392V286.359H393.203V293.469H388.969V296.469H394.766ZM384.781 292.469H392V289.875H384.781V292.469Z" fill="#2B2B2B"/>
<rect x="304" y="428" width="128" height="40" rx="4" fill="#F6F6F9"/>
<path d="M350.078 441.375V448.484H348.844V447.031H345.141V446.062H348.844V444.391H345.344C344.469 446.586 342.312 448.062 339.234 448.797L338.797 447.781C342.203 446.992 344.188 445.328 344.422 443.094H339.5V442.078H345.766C345.766 442.539 345.719 442.984 345.641 443.406H348.844V441.375H350.078ZM350.078 449.109V452.5H342.328V454.125H350.547V455.141H341.109V451.562H348.844V450.109H341.078V449.109H350.078ZM364.266 441.375V455.266H363.094V441.375H364.266ZM361.453 441.719V454.547H360.297V447.391H357.953V446.391H360.297V441.719H361.453ZM356.469 445.344C356.469 447.75 357.547 450.141 359.469 451.25L358.719 452.156C357.352 451.336 356.383 449.836 355.906 448.062C355.398 449.977 354.391 451.609 353 452.484L352.219 451.562C354.156 450.406 355.281 447.875 355.281 445.344V444.031H352.609V443.016H359.016V444.031H356.469V445.344ZM381.75 441.375V449.656H380.516V446.016H377.719V445H380.516V441.375H381.75ZM377.141 450.094C380.031 450.094 381.797 451.031 381.797 452.672C381.797 454.312 380.031 455.25 377.141 455.266C374.25 455.25 372.484 454.312 372.484 452.672C372.484 451.031 374.25 450.094 377.141 450.094ZM377.141 451.047C375.016 451.047 373.688 451.656 373.703 452.672C373.688 453.672 375.016 454.281 377.141 454.281C379.266 454.281 380.578 453.672 380.578 452.672C380.578 451.656 379.266 451.047 377.141 451.047ZM375.062 443.922C375.062 445.734 376.453 447.453 378.484 448.156L377.844 449.141C376.281 448.578 375.07 447.414 374.484 445.969C373.875 447.602 372.586 448.906 370.938 449.531L370.297 448.547C372.359 447.797 373.828 445.922 373.828 443.938V443.422H370.688V442.391H378.172V443.422H375.062V443.922ZM396.781 452.469V453.484H384.062V452.469H389.781V449.469H385.562V442.359H386.797V444.875H394.016V442.359H395.219V449.469H390.984V452.469H396.781ZM386.797 448.469H394.016V445.875H386.797V448.469Z" fill="#2B2B2B"/>
<rect x="304" y="596" width="128" height="40" rx="4" fill="#F6F6F9"/>
<path d="M352.453 609.375V623.266H351.281V609.375H352.453ZM349.641 609.75V622.562H348.469V617.75H345.891V616.734H348.469V614.266H346.125C345.445 616.617 343.922 618.695 341.297 620.266L340.547 619.375C343.57 617.586 345.086 615.078 345.328 612.172H341.172V611.156H346.547C346.547 611.867 346.484 612.57 346.359 613.25H348.469V609.75H349.641ZM365.906 609.375V617.656H364.672V614.016H361.875V613H364.672V609.375H365.906ZM361.297 618.094C364.188 618.094 365.953 619.031 365.953 620.672C365.953 622.312 364.188 623.25 361.297 623.266C358.406 623.25 356.641 622.312 356.641 620.672C356.641 619.031 358.406 618.094 361.297 618.094ZM361.297 619.047C359.172 619.047 357.844 619.656 357.859 620.672C357.844 621.672 359.172 622.281 361.297 622.281C363.422 622.281 364.734 621.672 364.734 620.672C364.734 619.656 363.422 619.047 361.297 619.047ZM359.219 611.922C359.219 613.734 360.609 615.453 362.641 616.156L362 617.141C360.438 616.578 359.227 615.414 358.641 613.969C358.031 615.602 356.742 616.906 355.094 617.531L354.453 616.547C356.516 615.797 357.984 613.922 357.984 611.938V611.422H354.844V610.391H362.328V611.422H359.219V611.922ZM379.734 609.375V617.656H378.5V614.016H375.703V613H378.5V609.375H379.734ZM375.125 618.094C378.016 618.094 379.781 619.031 379.781 620.672C379.781 622.312 378.016 623.25 375.125 623.266C372.234 623.25 370.469 622.312 370.469 620.672C370.469 619.031 372.234 618.094 375.125 618.094ZM375.125 619.047C373 619.047 371.672 619.656 371.688 620.672C371.672 621.672 373 622.281 375.125 622.281C377.25 622.281 378.562 621.672 378.562 620.672C378.562 619.656 377.25 619.047 375.125 619.047ZM373.047 611.922C373.047 613.734 374.438 615.453 376.469 616.156L375.828 617.141C374.266 616.578 373.055 615.414 372.469 613.969C371.859 615.602 370.57 616.906 368.922 617.531L368.281 616.547C370.344 615.797 371.812 613.922 371.812 611.938V611.422H368.672V610.391H376.156V611.422H373.047V611.922ZM394.766 620.469V621.484H382.047V620.469H387.766V617.469H383.547V610.359H384.781V612.875H392V610.359H393.203V617.469H388.969V620.469H394.766ZM384.781 616.469H392V613.875H384.781V616.469Z" fill="#2B2B2B"/>
<rect x="304" y="648" width="128" height="40" rx="4" fill="#F6F6F9"/>
<path d="M345.531 665.641C345.531 668 347.25 670.391 349.297 671.281L348.609 672.25C346.984 671.508 345.578 669.906 344.938 667.984C344.281 670.023 342.883 671.797 341.297 672.594L340.562 671.625C342.547 670.672 344.281 668.047 344.297 665.641V663.828H341.016V662.812H348.844V663.828H345.531V665.641ZM352.016 661.375V675.266H350.781V661.375H352.016ZM365.844 661.391V671.938H364.609V670.5H361.734V669.609H364.609V661.391H365.844ZM366.188 673.938V674.969H356.312V670.906H357.547V673.938H366.188ZM354.312 667.828C356.906 667.812 360.375 667.797 363.359 667.422L363.438 668.312C362.195 668.508 360.898 668.633 359.625 668.703V671.453H358.391V668.766C356.984 668.828 355.648 668.836 354.484 668.828L354.312 667.828ZM358.875 661.953C360.906 661.953 362.297 662.922 362.312 664.375C362.297 665.859 360.906 666.781 358.875 666.781C356.828 666.781 355.438 665.859 355.438 664.375C355.438 662.922 356.828 661.953 358.875 661.953ZM358.875 662.891C357.516 662.875 356.594 663.484 356.609 664.375C356.594 665.281 357.516 665.875 358.875 665.875C360.188 665.875 361.125 665.281 361.141 664.375C361.125 663.484 360.188 662.875 358.875 662.891ZM379.734 661.375V669.656H378.5V666.016H375.703V665H378.5V661.375H379.734ZM375.125 670.094C378.016 670.094 379.781 671.031 379.781 672.672C379.781 674.312 378.016 675.25 375.125 675.266C372.234 675.25 370.469 674.312 370.469 672.672C370.469 671.031 372.234 670.094 375.125 670.094ZM375.125 671.047C373 671.047 371.672 671.656 371.688 672.672C371.672 673.672 373 674.281 375.125 674.281C377.25 674.281 378.562 673.672 378.562 672.672C378.562 671.656 377.25 671.047 375.125 671.047ZM373.047 663.922C373.047 665.734 374.438 667.453 376.469 668.156L375.828 669.141C374.266 668.578 373.055 667.414 372.469 665.969C371.859 667.602 370.57 668.906 368.922 669.531L368.281 668.547C370.344 667.797 371.812 665.922 371.812 663.938V663.422H368.672V662.391H376.156V663.422H373.047V663.922ZM394.766 672.469V673.484H382.047V672.469H387.766V669.469H383.547V662.359H384.781V664.875H392V662.359H393.203V669.469H388.969V672.469H394.766ZM384.781 668.469H392V665.875H384.781V668.469Z" fill="#2B2B2B"/>
<rect x="456" y="648" width="128" height="40" rx="4" fill="#F6F6F9"/>
<path d="M481.766 665.641C481.75 667.875 483.359 670.328 485.375 671.281L484.672 672.25C483.109 671.492 481.789 669.836 481.172 667.953C480.531 670 479.133 671.797 477.578 672.594L476.828 671.625C478.828 670.656 480.547 668.016 480.562 665.641V663.828H477.328V662.812H484.891V663.828H481.766V665.641ZM487.812 661.375V667H490.141V668.047H487.812V675.266H486.594V661.375H487.812ZM497.906 663.344C497.891 665.203 500.375 666.781 502.797 667.141L502.344 668.109C500.172 667.742 498.062 666.586 497.219 664.906C496.375 666.586 494.258 667.742 492.125 668.109L491.641 667.141C494.047 666.781 496.531 665.203 496.531 663.344V663.25H492.078V662.25H502.344V663.25H497.906V663.344ZM503.547 669.297V670.312H497.797V675.266H496.594V670.312H490.891V669.297H503.547ZM515.469 661.375V667.109H517.797V668.125H515.469V675.266H514.25V661.375H515.469ZM512.906 663.609V664.625H504.641V663.609H508.219V661.547H509.438V663.609H512.906ZM508.844 665.781C510.812 665.781 512.234 667.094 512.25 668.969C512.234 670.844 510.812 672.156 508.844 672.156C506.859 672.156 505.422 670.844 505.438 668.969C505.422 667.094 506.859 665.781 508.844 665.781ZM508.844 666.812C507.547 666.812 506.594 667.719 506.609 668.969C506.594 670.234 507.547 671.125 508.844 671.109C510.125 671.125 511.062 670.234 511.078 668.969C511.062 667.719 510.125 666.812 508.844 666.812ZM529.781 665.594V666.578H520.266V661.891H521.484V665.594H529.781ZM531.25 668.469V669.469H518.531V668.469H531.25ZM529.859 673.906V674.922H520.188V670.891H521.406V673.906H529.859ZM547.844 661.375V668.594H546.641V661.375H547.844ZM547.859 669.266V672.578H540.062V674.125H548.359V675.109H538.859V671.656H546.641V670.234H538.828V669.266H547.859ZM541.391 663.344C541.391 665.156 542.875 666.734 544.969 667.359L544.359 668.312C542.719 667.797 541.414 666.695 540.797 665.266C540.195 666.828 538.867 668.047 537.172 668.609L536.594 667.641C538.672 666.953 540.156 665.25 540.156 663.344V663.188H536.906V662.172H544.594V663.188H541.391V663.344ZM562.922 668.484V669.5H557.266V672.344H556.047V669.5H550.203V668.484H562.922ZM561.266 662.062V666.891H551.859V662.062H561.266ZM553.062 663.031V665.906H560.047V663.031H553.062ZM561.5 673.938V674.969H551.828V670.969H553.062V673.938H561.5Z" fill="#2B2B2B"/>
<rect x="456" y="596" width="128" height="40" rx="4" fill="#F6F6F9"/>
<path d="M511.016 609.375V623.297H509.781V609.375H511.016ZM503.625 610.453C505.688 610.469 507.172 612.344 507.172 615.297C507.172 618.25 505.688 620.125 503.625 620.125C501.547 620.125 500.078 618.25 500.078 615.297C500.078 612.344 501.547 610.469 503.625 610.453ZM503.625 611.547C502.234 611.562 501.266 613.031 501.266 615.297C501.266 617.562 502.234 619.031 503.625 619.031C505.016 619.031 505.984 617.562 505.984 615.297C505.984 613.031 505.016 611.562 503.625 611.547ZM519.219 611V614.625H521.328V609.672H522.5V622.562H521.328V615.641H519.219V619.531H513.906V611H519.219ZM515.062 611.984V618.547H518.062V611.984H515.062ZM525.297 609.375V623.266H524.109V609.375H525.297ZM531.156 609.891C533.234 609.906 534.75 611.156 534.75 612.969C534.75 614.781 533.234 616.031 531.156 616.031C529.047 616.031 527.547 614.781 527.547 612.969C527.547 611.156 529.047 609.906 531.156 609.891ZM531.156 610.922C529.766 610.922 528.734 611.766 528.75 612.969C528.734 614.188 529.766 615.031 531.156 615.031C532.531 615.031 533.562 614.188 533.562 612.969C533.562 611.766 532.531 610.922 531.156 610.922ZM538.688 609.375V616.516H537.469V609.375H538.688ZM538.688 617.188V620.531H530.891V622.094H539.188V623.078H529.688V619.609H537.469V618.172H529.656V617.188H538.688Z" fill="#2B2B2B"/>
<rect x="456" y="428" width="128" height="40" rx="4" fill="#F6F6F9"/>
<path d="M504.078 441.375V448.484H502.844V447.031H499.141V446.062H502.844V444.391H499.344C498.469 446.586 496.312 448.062 493.234 448.797L492.797 447.781C496.203 446.992 498.188 445.328 498.422 443.094H493.5V442.078H499.766C499.766 442.539 499.719 442.984 499.641 443.406H502.844V441.375H504.078ZM504.078 449.109V452.5H496.328V454.125H504.547V455.141H495.109V451.562H502.844V450.109H495.078V449.109H504.078ZM518.266 441.375V455.266H517.094V441.375H518.266ZM515.453 441.719V454.547H514.297V447.391H511.953V446.391H514.297V441.719H515.453ZM510.469 445.344C510.469 447.75 511.547 450.141 513.469 451.25L512.719 452.156C511.352 451.336 510.383 449.836 509.906 448.062C509.398 449.977 508.391 451.609 507 452.484L506.219 451.562C508.156 450.406 509.281 447.875 509.281 445.344V444.031H506.609V443.016H513.016V444.031H510.469V445.344ZM531.266 442.125V443.156C531.266 444.234 531.266 445.5 530.906 447.234H532.938V448.25H520.219V447.234H529.672C530.047 445.492 530.047 444.234 530.047 443.156V443.141H521.828V442.125H531.266ZM531.328 450.172V455.078H521.781V450.172H531.328ZM523 451.141V454.078H530.109V451.141H523ZM537.375 442.25C539.203 442.25 540.562 443.609 540.562 445.531C540.562 447.469 539.203 448.781 537.375 448.781C535.516 448.781 534.188 447.469 534.203 445.531C534.188 443.609 535.516 442.25 537.375 442.25ZM537.375 443.312C536.188 443.312 535.297 444.25 535.312 445.531C535.297 446.812 536.188 447.75 537.375 447.75C538.562 447.75 539.422 446.812 539.438 445.531C539.422 444.25 538.562 443.312 537.375 443.312ZM545.844 441.391V449.656H544.672V445.984H542.828V449.562H541.672V441.656H542.828V444.969H544.672V441.391H545.844ZM545.844 450.438V455.266H544.641V451.422H536.484V450.438H545.844Z" fill="#2B2B2B"/>
<rect x="456" y="480" width="128" height="40" rx="4" fill="#F6F6F9"/>
<path d="M504.078 493.375V500.484H502.844V499.031H499.141V498.062H502.844V496.391H499.344C498.469 498.586 496.312 500.062 493.234 500.797L492.797 499.781C496.203 498.992 498.188 497.328 498.422 495.094H493.5V494.078H499.766C499.766 494.539 499.719 494.984 499.641 495.406H502.844V493.375H504.078ZM504.078 501.109V504.5H496.328V506.125H504.547V507.141H495.109V503.562H502.844V502.109H495.078V501.109H504.078ZM518.266 493.375V507.266H517.094V493.375H518.266ZM515.453 493.719V506.547H514.297V499.391H511.953V498.391H514.297V493.719H515.453ZM510.469 497.344C510.469 499.75 511.547 502.141 513.469 503.25L512.719 504.156C511.352 503.336 510.383 501.836 509.906 500.062C509.398 501.977 508.391 503.609 507 504.484L506.219 503.562C508.156 502.406 509.281 499.875 509.281 497.344V496.031H506.609V495.016H513.016V496.031H510.469V497.344ZM527.188 494.672C527.188 496.625 529.75 498.328 532.25 498.672L531.75 499.672C529.594 499.312 527.461 498.117 526.562 496.406C525.672 498.125 523.531 499.312 521.375 499.672L520.875 498.672C523.375 498.328 525.922 496.656 525.922 494.672V493.875H527.188V494.672ZM532.875 501.203V502.234H527.125V507.266H525.922V502.234H520.219V501.203H532.875ZM544.906 493.375V497.516H547.016V498.547H544.906V503.438H543.688V493.375H544.906ZM540.891 494.578V495.609H535.922V499.938C538.711 499.938 540.297 499.867 542.156 499.484L542.312 500.5C540.359 500.875 538.703 500.969 535.781 500.969H534.703V494.578H540.891ZM545.547 505.938V506.969H536.219V502.422H537.422V505.938H545.547Z" fill="#2B2B2B"/>
<rect x="456" y="532" width="128" height="40" rx="4" fill="#F6F6F9"/>
<path d="M490.391 547.938C490.391 549.75 491.781 551.469 493.812 552.172L493.172 553.141C491.602 552.578 490.391 551.414 489.797 549.984C489.195 551.586 487.914 552.867 486.266 553.469L485.625 552.5C487.672 551.766 489.156 549.906 489.156 547.953V547.344H486.016V546.344H493.5V547.344H490.391V547.938ZM497.078 554.438V559.266H495.844V555.453H487.734V554.438H497.078ZM497.078 545.375V553.703H495.844V550.047H493.062V549.016H495.844V545.375H497.078ZM510.859 545.391V553.016H509.641V545.391H510.859ZM506.438 546.062V549.812H501.312V551.703C503.797 551.688 505.656 551.641 507.906 551.266L508.047 552.281C505.719 552.656 503.812 552.719 501.25 552.734H500.125V548.844H505.219V547.078H500.094V546.062H506.438ZM503.062 553.719V555.375H509.641V553.719H510.859V559.078H501.828V553.719H503.062ZM503.062 558.078H509.641V556.359H503.062V558.078ZM525.938 556.5V557.547H513.219V556.5H518.922V553.297H514.375V552.312H516.547V547.75H514.344V546.734H524.719V547.75H522.516V552.312H524.688V553.297H520.125V556.5H525.938ZM517.766 552.312H521.312V547.75H517.766V552.312ZM538.516 545.391V555.547H537.297V545.391H538.516ZM538.953 557.938V558.969H529.547V554.516H530.766V557.938H538.953ZM531.016 546.359C533.094 546.359 534.656 547.766 534.656 549.766C534.656 551.797 533.094 553.188 531.016 553.188C528.938 553.188 527.375 551.797 527.375 549.766C527.375 547.766 528.938 546.359 531.016 546.359ZM531.016 547.438C529.609 547.438 528.562 548.406 528.578 549.766C528.562 551.156 529.609 552.109 531.016 552.109C532.391 552.109 533.453 551.156 533.453 549.766C533.453 548.406 532.391 547.438 531.016 547.438ZM552.125 552.891V553.891H542.516V546.578H551.969V547.609H543.766V549.672H551.672V550.656H543.766V552.891H552.125ZM553.594 556.438V557.453H540.875V556.438H553.594Z" fill="#2B2B2B"/>
<rect x="608" y="480" width="128" height="40" rx="4" fill="#F6F6F9"/>
<path d="M641.391 494.219C642.562 494.211 643.562 494.648 644.203 495.391H647.844V493.375H649.078V501.609H647.844V499.625H644.219C643.562 500.367 642.562 500.805 641.391 500.797C639.312 500.812 637.781 499.453 637.781 497.516C637.781 495.562 639.312 494.203 641.391 494.219ZM641.391 495.281C639.969 495.266 638.953 496.203 638.953 497.516C638.953 498.812 639.969 499.75 641.391 499.75C642.766 499.75 643.797 498.812 643.797 497.516C643.797 496.203 642.766 495.266 641.391 495.281ZM644.469 501.938C647.344 501.938 649.125 502.906 649.125 504.578C649.125 506.266 647.344 507.234 644.469 507.234C641.578 507.234 639.812 506.266 639.812 504.578C639.812 502.906 641.578 501.938 644.469 501.938ZM644.469 502.891C642.344 502.891 641.016 503.531 641.016 504.578C641.016 505.625 642.344 506.25 644.469 506.25C646.609 506.25 647.922 505.625 647.922 504.578C647.922 503.531 646.609 502.891 644.469 502.891ZM644.797 496.391C644.914 496.734 644.984 497.109 644.984 497.516C644.984 497.906 644.914 498.273 644.797 498.609H647.844V496.391H644.797ZM658.359 494.672C658.359 496.625 660.922 498.328 663.422 498.672L662.922 499.672C660.766 499.312 658.633 498.117 657.734 496.406C656.844 498.125 654.703 499.312 652.547 499.672L652.047 498.672C654.547 498.328 657.094 496.656 657.094 494.672V493.875H658.359V494.672ZM664.047 501.203V502.234H658.297V507.266H657.094V502.234H651.391V501.203H664.047ZM677.875 499.984V501H665.219V499.984H677.875ZM671.547 502.219C674.531 502.219 676.312 503.141 676.328 504.734C676.312 506.344 674.531 507.234 671.547 507.234C668.547 507.234 666.75 506.344 666.75 504.734C666.75 503.141 668.547 502.219 671.547 502.219ZM671.547 503.188C669.312 503.203 667.984 503.75 668 504.734C667.984 505.703 669.312 506.25 671.547 506.25C673.75 506.25 675.094 505.703 675.094 504.734C675.094 503.75 673.75 503.203 671.547 503.188ZM676.75 494.094V495.109H672.344C672.391 496.688 674.703 497.891 677.172 498.172L676.719 499.156C674.445 498.867 672.312 497.852 671.547 496.297C670.789 497.852 668.664 498.867 666.375 499.156L665.938 498.172C668.359 497.891 670.688 496.688 670.75 495.109H666.375V494.094H676.75ZM691.766 504.469V505.484H679.047V504.469H684.766V501.469H680.547V494.359H681.781V496.875H689V494.359H690.203V501.469H685.969V504.469H691.766ZM681.781 500.469H689V497.875H681.781V500.469ZM704.359 493.375V507.266H703.125V493.375H704.359ZM700.25 494.891C700.234 498.891 698.375 502.422 693.719 504.656L693.047 503.656C696.805 501.875 698.719 499.211 699 495.891H693.688V494.891H700.25Z" fill="#2B2B2B"/>
<rect x="456" y="272" width="128" height="40" rx="4" fill="#F6F6F9"/>
<path d="M487.25 286.703V290.094H490.266V286.703H491.406V295.797H486.078V286.703H487.25ZM487.25 294.781H490.266V291.094H487.25V294.781ZM497.469 285.375V299.266H496.281V291.906H494.344V298.562H493.172V285.672H494.344V290.891H496.281V285.375H497.469ZM506.312 290.234V292.281H512.047V293.281H499.391V292.281H505.109V290.234H506.312ZM506.328 286.25C506.328 288.094 508.828 289.641 511.281 289.984L510.781 290.969C508.672 290.602 506.586 289.484 505.719 287.875C504.844 289.492 502.75 290.602 500.625 290.969L500.156 289.984C502.609 289.641 505.094 288.094 505.094 286.25V285.594H506.328V286.25ZM505.719 294.438C508.703 294.438 510.484 295.297 510.5 296.844C510.484 298.391 508.703 299.234 505.719 299.234C502.703 299.234 500.922 298.391 500.922 296.844C500.922 295.297 502.703 294.438 505.719 294.438ZM505.719 295.406C503.469 295.406 502.156 295.922 502.172 296.844C502.156 297.75 503.469 298.281 505.719 298.281C507.938 298.281 509.266 297.75 509.266 296.844C509.266 295.922 507.938 295.406 505.719 295.406ZM518.188 289.641C518.188 292 519.906 294.391 521.953 295.281L521.266 296.25C519.641 295.508 518.234 293.906 517.594 291.984C516.938 294.023 515.539 295.797 513.953 296.594L513.219 295.625C515.203 294.672 516.938 292.047 516.953 289.641V287.828H513.672V286.812H521.5V287.828H518.188V289.641ZM524.672 285.375V299.266H523.438V285.375H524.672ZM538.562 285.375V293.656H537.328V290.016H534.531V289H537.328V285.375H538.562ZM533.953 294.094C536.844 294.094 538.609 295.031 538.609 296.672C538.609 298.312 536.844 299.25 533.953 299.266C531.062 299.25 529.297 298.312 529.297 296.672C529.297 295.031 531.062 294.094 533.953 294.094ZM533.953 295.047C531.828 295.047 530.5 295.656 530.516 296.672C530.5 297.672 531.828 298.281 533.953 298.281C536.078 298.281 537.391 297.672 537.391 296.672C537.391 295.656 536.078 295.047 533.953 295.047ZM531.875 287.922C531.875 289.734 533.266 291.453 535.297 292.156L534.656 293.141C533.094 292.578 531.883 291.414 531.297 289.969C530.688 291.602 529.398 292.906 527.75 293.531L527.109 292.547C529.172 291.797 530.641 289.922 530.641 287.938V287.422H527.5V286.391H534.984V287.422H531.875V287.922ZM553.594 296.469V297.484H540.875V296.469H546.594V293.469H542.375V286.359H543.609V288.875H550.828V286.359H552.031V293.469H547.797V296.469H553.594ZM543.609 292.469H550.828V289.875H543.609V292.469Z" fill="#2B2B2B"/>
<rect x="456" y="324" width="128" height="40" rx="4" fill="#F6F6F9"/>
<path d="M478.75 338.703V342.094H481.766V338.703H482.906V347.797H477.578V338.703H478.75ZM478.75 346.781H481.766V343.094H478.75V346.781ZM488.969 337.375V351.266H487.781V343.906H485.844V350.562H484.672V337.672H485.844V342.891H487.781V337.375H488.969ZM497.812 342.234V344.281H503.547V345.281H490.891V344.281H496.609V342.234H497.812ZM497.828 338.25C497.828 340.094 500.328 341.641 502.781 341.984L502.281 342.969C500.172 342.602 498.086 341.484 497.219 339.875C496.344 341.492 494.25 342.602 492.125 342.969L491.656 341.984C494.109 341.641 496.594 340.094 496.594 338.25V337.594H497.828V338.25ZM497.219 346.438C500.203 346.438 501.984 347.297 502 348.844C501.984 350.391 500.203 351.234 497.219 351.234C494.203 351.234 492.422 350.391 492.422 348.844C492.422 347.297 494.203 346.438 497.219 346.438ZM497.219 347.406C494.969 347.406 493.656 347.922 493.672 348.844C493.656 349.75 494.969 350.281 497.219 350.281C499.438 350.281 500.766 349.75 500.766 348.844C500.766 347.922 499.438 347.406 497.219 347.406ZM521.453 348.453V349.484H508.734V348.453H511.891V344.703C510.703 344.086 509.984 343.086 509.984 341.828C509.984 339.672 512.094 338.266 515.062 338.25C518.031 338.266 520.141 339.672 520.141 341.828C520.141 343.062 519.445 344.055 518.297 344.672V348.453H521.453ZM515.062 339.266C512.781 339.25 511.172 340.281 511.172 341.828C511.172 343.375 512.781 344.422 515.062 344.422C517.328 344.422 518.953 343.375 518.953 341.828C518.953 340.281 517.328 339.25 515.062 339.266ZM513.094 348.453H517.062V345.141C516.461 345.305 515.789 345.391 515.062 345.391C514.352 345.391 513.688 345.312 513.094 345.156V348.453ZM527.297 340.359C527.297 342.094 528.797 343.641 530.844 344.25L530.25 345.203C528.641 344.727 527.352 343.672 526.734 342.297C526.125 343.82 524.859 345.016 523.203 345.562L522.609 344.625C524.656 343.938 526.094 342.25 526.094 340.359V340.062H522.953V339.078H526.094V337.312H527.328V339.078H530.438V340.062H527.297V340.359ZM534.078 337.375V345.797H532.844V342.375H530V341.359H532.844V337.375H534.078ZM529.469 346.172C532.359 346.172 534.125 347.078 534.125 348.703C534.125 350.312 532.359 351.234 529.469 351.234C526.578 351.234 524.812 350.312 524.812 348.703C524.812 347.078 526.578 346.172 529.469 346.172ZM529.469 347.125C527.344 347.141 526.016 347.719 526.031 348.703C526.016 349.672 527.344 350.266 529.469 350.266C531.609 350.266 532.906 349.672 532.906 348.703C532.906 347.719 531.609 347.141 529.469 347.125ZM541.047 341.109C541.047 343.562 542.672 346.078 544.641 347.047L543.891 348.031C542.359 347.227 541.078 345.586 540.469 343.656C539.844 345.711 538.531 347.461 536.969 348.297L536.188 347.312C538.219 346.312 539.828 343.641 539.844 341.109V338.578H541.047V341.109ZM547.141 337.375V343.016H549.469V344.078H547.141V351.266H545.922V337.375H547.141ZM561.078 337.375V341.25H563.172V342.297H561.078V346.344H559.859V337.375H561.078ZM556.688 346.438C559.516 346.438 561.234 347.328 561.234 348.844C561.234 350.359 559.516 351.234 556.688 351.234C553.859 351.234 552.125 350.359 552.141 348.844C552.125 347.328 553.859 346.438 556.688 346.438ZM556.688 347.406C554.609 347.406 553.344 347.922 553.359 348.844C553.344 349.75 554.609 350.281 556.688 350.281C558.766 350.281 560.016 349.75 560.016 348.844C560.016 347.922 558.766 347.406 556.688 347.406ZM558.531 338.969V339.938H550.25V338.969H553.781V337.266H555V338.969H558.531ZM554.391 340.656C556.391 340.656 557.719 341.625 557.734 343.109C557.719 344.609 556.391 345.562 554.391 345.562C552.375 345.562 551.031 344.609 551.047 343.109C551.031 341.625 552.375 340.656 554.391 340.656ZM554.391 341.578C553.078 341.594 552.203 342.203 552.219 343.109C552.203 344.016 553.078 344.609 554.391 344.609C555.688 344.609 556.562 344.016 556.578 343.109C556.562 342.203 555.688 341.594 554.391 341.578Z" fill="#2B2B2B"/>
<rect x="456" y="376" width="128" height="40" rx="4" fill="#F6F6F9"/>
<path d="M492.25 390.703V394.094H495.266V390.703H496.406V399.797H491.078V390.703H492.25ZM492.25 398.781H495.266V395.094H492.25V398.781ZM502.469 389.375V403.266H501.281V395.906H499.344V402.562H498.172V389.672H499.344V394.891H501.281V389.375H502.469ZM511.312 394.234V396.281H517.047V397.281H504.391V396.281H510.109V394.234H511.312ZM511.328 390.25C511.328 392.094 513.828 393.641 516.281 393.984L515.781 394.969C513.672 394.602 511.586 393.484 510.719 391.875C509.844 393.492 507.75 394.602 505.625 394.969L505.156 393.984C507.609 393.641 510.094 392.094 510.094 390.25V389.594H511.328V390.25ZM510.719 398.438C513.703 398.438 515.484 399.297 515.5 400.844C515.484 402.391 513.703 403.234 510.719 403.234C507.703 403.234 505.922 402.391 505.922 400.844C505.922 399.297 507.703 398.438 510.719 398.438ZM510.719 399.406C508.469 399.406 507.156 399.922 507.172 400.844C507.156 401.75 508.469 402.281 510.719 402.281C512.938 402.281 514.266 401.75 514.266 400.844C514.266 399.922 512.938 399.406 510.719 399.406ZM525.562 390.25C527.391 390.25 528.75 391.609 528.75 393.531C528.75 395.469 527.391 396.781 525.562 396.781C523.703 396.781 522.375 395.469 522.391 393.531C522.375 391.609 523.703 390.25 525.562 390.25ZM525.562 391.312C524.375 391.312 523.484 392.25 523.5 393.531C523.484 394.812 524.375 395.75 525.562 395.75C526.75 395.75 527.609 394.812 527.625 393.531C527.609 392.25 526.75 391.312 525.562 391.312ZM534.031 389.391V397.656H532.859V393.984H531.016V397.562H529.859V389.656H531.016V392.969H532.859V389.391H534.031ZM534.031 398.438V403.266H532.828V399.422H524.672V398.438H534.031ZM540.812 391.953C540.812 393.984 542.203 395.906 544.219 396.703L543.531 397.656C542 397.023 540.812 395.758 540.234 394.172C539.633 395.883 538.383 397.242 536.766 397.906L536.094 396.922C538.156 396.125 539.594 394.125 539.609 391.953V390.172H540.812V391.953ZM547.578 389.391V399.766H546.344V395.312H543.484V394.312H546.344V392.469H543.484V391.453H546.344V389.391H547.578ZM547.891 401.938V402.969H538.594V398.688H539.828V401.938H547.891Z" fill="#2B2B2B"/>
<rect x="608" y="350" width="128" height="40" rx="4" fill="#F6F6F9"/>
<path d="M637.25 364.703V368.094H640.266V364.703H641.406V373.797H636.078V364.703H637.25ZM637.25 372.781H640.266V369.094H637.25V372.781ZM647.469 363.375V377.266H646.281V369.906H644.344V376.562H643.172V363.672H644.344V368.891H646.281V363.375H647.469ZM656.312 368.234V370.281H662.047V371.281H649.391V370.281H655.109V368.234H656.312ZM656.328 364.25C656.328 366.094 658.828 367.641 661.281 367.984L660.781 368.969C658.672 368.602 656.586 367.484 655.719 365.875C654.844 367.492 652.75 368.602 650.625 368.969L650.156 367.984C652.609 367.641 655.094 366.094 655.094 364.25V363.594H656.328V364.25ZM655.719 372.438C658.703 372.438 660.484 373.297 660.5 374.844C660.484 376.391 658.703 377.234 655.719 377.234C652.703 377.234 650.922 376.391 650.922 374.844C650.922 373.297 652.703 372.438 655.719 372.438ZM655.719 373.406C653.469 373.406 652.156 373.922 652.172 374.844C652.156 375.75 653.469 376.281 655.719 376.281C657.938 376.281 659.266 375.75 659.266 374.844C659.266 373.922 657.938 373.406 655.719 373.406ZM668.188 367.641C668.188 370 669.906 372.391 671.953 373.281L671.266 374.25C669.641 373.508 668.234 371.906 667.594 369.984C666.938 372.023 665.539 373.797 663.953 374.594L663.219 373.625C665.203 372.672 666.938 370.047 666.953 367.641V365.828H663.672V364.812H671.5V365.828H668.188V367.641ZM674.672 363.375V377.266H673.438V363.375H674.672ZM692.578 363.391V373.672H691.344V369.938H688.062V371.297H681.766V364.312H682.984V366.781H686.859V364.312H688.062V365.938H691.344V363.391H692.578ZM692.891 375.938V376.969H683.594V372.656H684.828V375.938H692.891ZM682.984 370.281H686.859V367.75H682.984V370.281ZM688.062 368.922H691.344V366.969H688.062V368.922ZM706.406 363.391V371.734H705.172V369.859H701.484V368.844H705.172V366.969H701.625C700.711 369.203 698.562 370.82 695.594 371.703L695.078 370.734C698.438 369.734 700.523 367.859 700.781 365.453H695.781V364.422H702.109C702.109 364.969 702.047 365.492 701.938 365.984H705.172V363.391H706.406ZM701.859 371.875C704.672 371.875 706.484 372.875 706.484 374.531C706.484 376.203 704.672 377.203 701.859 377.203C699.016 377.203 697.219 376.203 697.219 374.531C697.219 372.875 699.016 371.875 701.859 371.875ZM701.859 372.859C699.766 372.844 698.422 373.484 698.422 374.531C698.422 375.578 699.766 376.203 701.859 376.203C703.922 376.203 705.25 375.578 705.266 374.531C705.25 373.484 703.922 372.844 701.859 372.859Z" fill="#2B2B2B"/>
<rect x="608" width="128" height="40" rx="4" fill="#F6F6F9"/>
<path d="M651.578 15.3438C651.562 17.2031 654.047 18.7812 656.469 19.1406L656.016 20.1094C653.844 19.7422 651.734 18.5859 650.891 16.9062C650.047 18.5859 647.93 19.7422 645.797 20.1094L645.312 19.1406C647.719 18.7812 650.203 17.2031 650.203 15.3438V15.25H645.75V14.25H656.016V15.25H651.578V15.3438ZM657.219 21.2969V22.3125H651.469V27.2656H650.266V22.3125H644.562V21.2969H657.219ZM671.094 20.4844V21.5H665.438V24.3438H664.219V21.5H658.375V20.4844H671.094ZM669.438 14.0625V18.8906H660.031V14.0625H669.438ZM661.234 15.0312V17.9062H668.219V15.0312H661.234ZM669.672 25.9375V26.9688H660V22.9688H661.234V25.9375H669.672ZM677.453 16C677.453 17.4062 678.844 18.5938 680.812 19.0312L680.312 20.0156C678.711 19.625 677.477 18.7734 676.875 17.6406C676.273 18.8672 675.023 19.7969 673.375 20.2031L672.844 19.2188C674.844 18.7812 676.234 17.4844 676.234 16V15.9375H673.141V14.9688H676.234V13.4219H677.453V14.9688H680.547V15.9375H677.453V16ZM683.672 13.3906V27.2812H682.469V13.3906H683.672ZM672.188 21.1875C674.844 21.1875 678.375 21.1562 681.453 20.7656L681.531 21.6562C680.203 21.875 678.828 22.0078 677.484 22.0781V26.8594H676.266V22.1406C674.859 22.2109 673.523 22.2188 672.359 22.2188L672.188 21.1875ZM698.766 24.4375V25.4531H686.047V24.4375H691.734V21.0312H692.938V24.4375H698.766ZM692.969 15.3906C692.969 17.7188 695.719 19.75 698.141 20.1719L697.594 21.1875C695.477 20.7578 693.242 19.3203 692.344 17.3125C691.43 19.3125 689.211 20.7578 687.094 21.1875L686.547 20.1719C688.969 19.75 691.688 17.7188 691.688 15.3906V14.3281H692.969V15.3906Z" fill="#2B2B2B"/>
<rect x="608" y="402" width="128" height="40" rx="4" fill="#F6F6F9"/>
<path d="M646.25 416.703V420.094H649.266V416.703H650.406V425.797H645.078V416.703H646.25ZM646.25 424.781H649.266V421.094H646.25V424.781ZM656.469 415.375V429.266H655.281V421.906H653.344V428.562H652.172V415.672H653.344V420.891H655.281V415.375H656.469ZM665.312 420.234V422.281H671.047V423.281H658.391V422.281H664.109V420.234H665.312ZM665.328 416.25C665.328 418.094 667.828 419.641 670.281 419.984L669.781 420.969C667.672 420.602 665.586 419.484 664.719 417.875C663.844 419.492 661.75 420.602 659.625 420.969L659.156 419.984C661.609 419.641 664.094 418.094 664.094 416.25V415.594H665.328V416.25ZM664.719 424.438C667.703 424.438 669.484 425.297 669.5 426.844C669.484 428.391 667.703 429.234 664.719 429.234C661.703 429.234 659.922 428.391 659.922 426.844C659.922 425.297 661.703 424.438 664.719 424.438ZM664.719 425.406C662.469 425.406 661.156 425.922 661.172 426.844C661.156 427.75 662.469 428.281 664.719 428.281C666.938 428.281 668.266 427.75 668.266 426.844C668.266 425.922 666.938 425.406 664.719 425.406ZM684.938 426.453V427.484H672.219V426.453H677.953V423.078H679.188V426.453H684.938ZM679.188 418.016C679.188 420.234 681.938 422.141 684.328 422.531L683.828 423.5C681.703 423.086 679.461 421.734 678.578 419.797C677.68 421.742 675.445 423.125 673.359 423.562L672.844 422.578C675.188 422.172 677.922 420.234 677.922 418.016V417.672H673.266V416.641H683.844V417.672H679.188V418.016ZM697.438 415.375V429.266H696.219V415.375H697.438ZM686.125 425.562C687.312 425.555 688.672 425.547 690.078 425.5V423.984C688.414 423.805 687.328 422.859 687.344 421.469C687.328 419.906 688.672 418.891 690.672 418.891C692.672 418.891 694.031 419.906 694.031 421.469C694.031 422.844 692.953 423.789 691.312 423.969V425.453C692.656 425.398 694.016 425.297 695.297 425.125L695.391 426.062C692.297 426.562 688.891 426.609 686.312 426.609L686.125 425.562ZM694.938 417.094V418.094H686.422V417.094H690.078V415.391H691.312V417.094H694.938ZM690.672 419.844C689.391 419.844 688.484 420.5 688.484 421.469C688.484 422.438 689.391 423.062 690.672 423.047C691.969 423.062 692.859 422.438 692.859 421.469C692.859 420.5 691.969 419.844 690.672 419.844Z" fill="#2B2B2B"/>
<rect x="608" y="52" width="128" height="40" rx="4" fill="#F6F6F9"/>
<path d="M655.422 65.3906V69.5938H657.516V70.625H655.422V75.5938H654.203V65.3906H655.422ZM656.062 77.9375V78.9688H646.734V74.5938H647.938V77.9375H656.062ZM646.359 66.3906V68.7344H650.406V66.3906H651.625V73.25H645.156V66.3906H646.359ZM646.359 72.25H650.406V69.7031H646.359V72.25ZM671.047 72.0938V73.1094H665.312V74.75H669.5V79.0781H659.938V74.75H664.109V73.1094H658.391V72.0938H671.047ZM669.844 65.8281V66.8438H667.703V69.7656H669.797V70.7812H659.625V69.7656H661.719V66.8438H659.578V65.8281H669.844ZM661.156 75.7188V78.0781H668.297V75.7188H661.156ZM662.938 69.7656H666.484V66.8438H662.938V69.7656ZM683.688 65.3906V75.5781H682.469V65.3906H683.688ZM684.125 77.9375V78.9688H674.719V74.6406H675.938V77.9375H684.125ZM677.141 67.5625C677.125 69.6719 678.578 71.5781 680.641 72.3281L680 73.3125C678.391 72.6953 677.141 71.4453 676.531 69.8438C675.914 71.5469 674.648 72.9141 673.031 73.5625L672.359 72.6094C674.469 71.7969 675.891 69.75 675.891 67.5625V66.1719H677.141V67.5625ZM690.781 68.3594C690.781 70.0938 692.281 71.6406 694.328 72.25L693.734 73.2031C692.125 72.7266 690.836 71.6719 690.219 70.2969C689.609 71.8203 688.344 73.0156 686.688 73.5625L686.094 72.625C688.141 71.9375 689.578 70.25 689.578 68.3594V68.0625H686.438V67.0781H689.578V65.3125H690.812V67.0781H693.922V68.0625H690.781V68.3594ZM697.562 65.375V73.7969H696.328V70.375H693.484V69.3594H696.328V65.375H697.562ZM692.953 74.1719C695.844 74.1719 697.609 75.0781 697.609 76.7031C697.609 78.3125 695.844 79.2344 692.953 79.2344C690.062 79.2344 688.297 78.3125 688.297 76.7031C688.297 75.0781 690.062 74.1719 692.953 74.1719ZM692.953 75.125C690.828 75.1406 689.5 75.7188 689.516 76.7031C689.5 77.6719 690.828 78.2656 692.953 78.2656C695.094 78.2656 696.391 77.6719 696.391 76.7031C696.391 75.7188 695.094 75.1406 692.953 75.125Z" fill="#2B2B2B"/>
<rect x="608" y="104" width="128" height="40" rx="4" fill="#F6F6F9"/>
<path d="M655.547 118.281V119.5C655.547 120.82 655.547 122.25 655.156 124.25H657.219V125.266H651.484V131.297H650.25V125.266H644.562V124.25H653.906C654.328 122.25 654.328 120.789 654.328 119.5V119.297H646.156V118.281H655.547ZM670.297 117.375V131.266H669.109V123.906H667.172V130.562H666V117.672H667.172V122.891H669.109V117.375H670.297ZM664.219 119V127.531H658.906V119H664.219ZM660.062 119.984V126.547H663.062V119.984H660.062ZM683.062 117.391V121.594H685.141V122.625H683.062V126.703H681.828V117.391H683.062ZM672.156 125.281C673.266 125.281 674.562 125.281 675.922 125.234V124.219C674.305 124.078 673.266 123.32 673.266 122.172C673.266 120.906 674.562 120.125 676.516 120.125C678.484 120.125 679.766 120.906 679.781 122.172C679.766 123.312 678.75 124.07 677.141 124.219V125.188C678.438 125.125 679.75 125.023 680.969 124.844L681.078 125.734C678.062 126.266 674.734 126.281 672.297 126.281L672.156 125.281ZM683.062 127.391V131.266H681.828V128.375H673.859V127.391H683.062ZM680.547 118.656V119.594H672.5V118.656H675.922V117.266H677.141V118.656H680.547ZM676.516 121C675.234 120.984 674.438 121.438 674.438 122.172C674.438 122.891 675.234 123.391 676.516 123.375C677.797 123.391 678.609 122.891 678.609 122.172C678.609 121.438 677.797 120.984 676.516 121ZM697.562 117.375V125.656H696.328V122.016H693.531V121H696.328V117.375H697.562ZM692.953 126.094C695.844 126.094 697.609 127.031 697.609 128.672C697.609 130.312 695.844 131.25 692.953 131.266C690.062 131.25 688.297 130.312 688.297 128.672C688.297 127.031 690.062 126.094 692.953 126.094ZM692.953 127.047C690.828 127.047 689.5 127.656 689.516 128.672C689.5 129.672 690.828 130.281 692.953 130.281C695.078 130.281 696.391 129.672 696.391 128.672C696.391 127.656 695.078 127.047 692.953 127.047ZM690.875 119.922C690.875 121.734 692.266 123.453 694.297 124.156L693.656 125.141C692.094 124.578 690.883 123.414 690.297 121.969C689.688 123.602 688.398 124.906 686.75 125.531L686.109 124.547C688.172 123.797 689.641 121.922 689.641 119.938V119.422H686.5V118.391H693.984V119.422H690.875V119.922Z" fill="#2B2B2B"/>
<rect x="456" y="168" width="128" height="40" rx="4" fill="#F6F6F9"/>
<path d="M499.578 183.344C499.562 185.203 502.047 186.781 504.469 187.141L504.016 188.109C501.844 187.742 499.734 186.586 498.891 184.906C498.047 186.586 495.93 187.742 493.797 188.109L493.312 187.141C495.719 186.781 498.203 185.203 498.203 183.344V183.25H493.75V182.25H504.016V183.25H499.578V183.344ZM505.219 189.297V190.312H499.469V195.266H498.266V190.312H492.562V189.297H505.219ZM519.094 188.484V189.5H513.438V192.344H512.219V189.5H506.375V188.484H519.094ZM517.438 182.062V186.891H508.031V182.062H517.438ZM509.234 183.031V185.906H516.219V183.031H509.234ZM517.672 193.938V194.969H508V190.969H509.234V193.938H517.672ZM531.078 181.375V184.281H533.172V185.312H531.078V188.391H529.859V181.375H531.078ZM522.125 182V186.656C524.102 186.664 526.141 186.523 528.391 186.062L528.547 187.094C526.172 187.578 524.094 187.719 522 187.719H520.891V182H522.125ZM531.078 189.062V192.453H523.469V194.078H531.594V195.078H522.25V191.484H529.859V190.047H522.219V189.062H531.078ZM545.125 181.375V186.906H547.094V187.953H545.125V195.266H543.891V181.375H545.125ZM537.203 185.562C537.203 187.078 537.414 189.336 538.578 190.844C539.703 189.375 539.938 187.148 539.953 185.562V183.828H538.875V182.797H542.734V183.828H541.109V185.562C541.109 187.609 541.578 190.203 543.312 191.453L542.5 192.359C541.469 191.562 540.859 190.242 540.531 188.797C540.219 190.266 539.633 191.648 538.562 192.469C537.5 191.648 536.922 190.25 536.609 188.797C536.273 190.234 535.672 191.555 534.656 192.359L533.844 191.453C535.547 190.188 536.031 187.516 536.047 185.562V183.828H534.297V182.797H538.266V183.828H537.203V185.562Z" fill="#2B2B2B"/>
<rect x="456" y="220" width="128" height="40" rx="4" fill="#F6F6F9"/>
<path d="M499.578 235.344C499.562 237.203 502.047 238.781 504.469 239.141L504.016 240.109C501.844 239.742 499.734 238.586 498.891 236.906C498.047 238.586 495.93 239.742 493.797 240.109L493.312 239.141C495.719 238.781 498.203 237.203 498.203 235.344V235.25H493.75V234.25H504.016V235.25H499.578V235.344ZM505.219 241.297V242.312H499.469V247.266H498.266V242.312H492.562V241.297H505.219ZM519.094 240.484V241.5H513.438V244.344H512.219V241.5H506.375V240.484H519.094ZM517.438 234.062V238.891H508.031V234.062H517.438ZM509.234 235.031V237.906H516.219V235.031H509.234ZM517.672 245.938V246.969H508V242.969H509.234V245.938H517.672ZM531.734 233.391V243.672H530.5V238.328H527.219V241.297H520.922V234.312H522.141V236.781H526.016V234.312H527.219V237.297H530.5V233.391H531.734ZM532.047 245.938V246.969H522.75V242.656H523.984V245.938H532.047ZM522.141 240.281H526.016V237.75H522.141V240.281ZM546.047 235.438V236.453H534.672V235.438H539.766V233.609H540.969V235.438H546.047ZM546.766 244.625V245.641H534.047V244.625H539.766V242.672C537.297 242.539 535.797 241.578 535.812 240.016C535.797 238.359 537.547 237.391 540.375 237.406C543.172 237.391 544.938 238.359 544.938 240.016C544.938 241.578 543.422 242.539 540.969 242.672V244.625H546.766ZM540.375 238.375C538.297 238.375 537.031 238.984 537.047 240.016C537.031 241.078 538.297 241.672 540.375 241.688C542.422 241.672 543.688 241.078 543.688 240.016C543.688 238.984 542.422 238.375 540.375 238.375Z" fill="#2B2B2B"/>
<rect x="456" width="128" height="40" rx="4" fill="#F6F6F9"/>
<path d="M499.578 15.3438C499.562 17.2031 502.047 18.7812 504.469 19.1406L504.016 20.1094C501.844 19.7422 499.734 18.5859 498.891 16.9062C498.047 18.5859 495.93 19.7422 493.797 20.1094L493.312 19.1406C495.719 18.7812 498.203 17.2031 498.203 15.3438V15.25H493.75V14.25H504.016V15.25H499.578V15.3438ZM505.219 21.2969V22.3125H499.469V27.2656H498.266V22.3125H492.562V21.2969H505.219ZM519.094 20.4844V21.5H513.438V24.3438H512.219V21.5H506.375V20.4844H519.094ZM517.438 14.0625V18.8906H508.031V14.0625H517.438ZM509.234 15.0312V17.9062H516.219V15.0312H509.234ZM517.672 25.9375V26.9688H508V22.9688H509.234V25.9375H517.672ZM524.859 15.625C524.859 17.5156 526.297 19.25 528.312 19.9375L527.641 20.9062C526.102 20.3438 524.891 19.1953 524.281 17.75C523.688 19.3828 522.453 20.6719 520.828 21.2969L520.172 20.3125C522.25 19.5312 523.641 17.6719 523.656 15.5312V14.0938H524.859V15.625ZM531.078 13.375V17H533.172V18.0312H531.078V21.8281H529.859V13.375H531.078ZM526.625 22.1875C529.484 22.1875 531.203 23.1094 531.203 24.7031C531.203 26.3281 529.484 27.2344 526.625 27.2344C523.766 27.2344 522.016 26.3281 522.016 24.7031C522.016 23.1094 523.766 22.1875 526.625 22.1875ZM526.625 23.1719C524.531 23.1719 523.234 23.75 523.25 24.7031C523.234 25.6875 524.531 26.25 526.625 26.2656C528.734 26.25 530.016 25.6875 530.016 24.7031C530.016 23.75 528.734 23.1719 526.625 23.1719ZM540.109 14.9844V15.9844H535.781V18.6562H539.906V19.6406H535.781V22.7812C537.844 22.7734 539.117 22.7188 540.641 22.4375L540.75 23.4531C539.125 23.7656 537.781 23.8281 535.5 23.8281H534.609V14.9844H540.109ZM545.953 13.375V27.2656H544.766V19.9844H542.859V26.5625H541.672V13.6719H542.859V18.9688H544.766V13.375H545.953Z" fill="#2B2B2B"/>
<rect x="456" y="52" width="128" height="40" rx="4" fill="#F6F6F9"/>
<path d="M481.703 67.625C481.703 69.5156 483.141 71.25 485.156 71.9375L484.484 72.9062C482.945 72.3438 481.734 71.1953 481.125 69.75C480.531 71.3828 479.297 72.6719 477.672 73.2969L477.016 72.3125C479.094 71.5312 480.484 69.6719 480.5 67.5312V66.0938H481.703V67.625ZM487.922 65.375V69H490.016V70.0312H487.922V73.8281H486.703V65.375H487.922ZM483.469 74.1875C486.328 74.1875 488.047 75.1094 488.047 76.7031C488.047 78.3281 486.328 79.2344 483.469 79.2344C480.609 79.2344 478.859 78.3281 478.859 76.7031C478.859 75.1094 480.609 74.1875 483.469 74.1875ZM483.469 75.1719C481.375 75.1719 480.078 75.75 480.094 76.7031C480.078 77.6875 481.375 78.25 483.469 78.2656C485.578 78.25 486.859 77.6875 486.859 76.7031C486.859 75.75 485.578 75.1719 483.469 75.1719ZM496.953 66.9844V67.9844H492.625V70.6562H496.75V71.6406H492.625V74.7812C494.688 74.7734 495.961 74.7188 497.484 74.4375L497.594 75.4531C495.969 75.7656 494.625 75.8281 492.344 75.8281H491.453V66.9844H496.953ZM502.797 65.375V79.2656H501.609V71.9844H499.703V78.5625H498.516V65.6719H499.703V70.9688H501.609V65.375H502.797ZM516.203 65.375V79.2656H514.969V65.375H516.203ZM512.094 66.8906C512.078 70.8906 510.219 74.4219 505.562 76.6562L504.891 75.6562C508.648 73.875 510.562 71.2109 510.844 67.8906H505.531V66.8906H512.094ZM529.406 65.3906V69.5938H531.5V70.625H529.406V75.5938H528.188V65.3906H529.406ZM530.047 77.9375V78.9688H520.719V74.5938H521.922V77.9375H530.047ZM520.344 66.3906V68.7344H524.391V66.3906H525.609V73.25H519.141V66.3906H520.344ZM520.344 72.25H524.391V69.7031H520.344V72.25ZM539.719 66.25C541.547 66.25 542.906 67.6094 542.906 69.5312C542.906 71.4688 541.547 72.7812 539.719 72.7812C537.859 72.7812 536.531 71.4688 536.547 69.5312C536.531 67.6094 537.859 66.25 539.719 66.25ZM539.719 67.3125C538.531 67.3125 537.641 68.25 537.656 69.5312C537.641 70.8125 538.531 71.75 539.719 71.75C540.906 71.75 541.766 70.8125 541.781 69.5312C541.766 68.25 540.906 67.3125 539.719 67.3125ZM548.188 65.3906V73.6562H547.016V69.9844H545.172V73.5625H544.016V65.6562H545.172V68.9688H547.016V65.3906H548.188ZM548.188 74.4375V79.2656H546.984V75.4219H538.828V74.4375H548.188ZM554.969 67.9531C554.969 69.9844 556.359 71.9062 558.375 72.7031L557.688 73.6562C556.156 73.0234 554.969 71.7578 554.391 70.1719C553.789 71.8828 552.539 73.2422 550.922 73.9062L550.25 72.9219C552.312 72.125 553.75 70.125 553.766 67.9531V66.1719H554.969V67.9531ZM561.734 65.3906V75.7656H560.5V71.3125H557.641V70.3125H560.5V68.4688H557.641V67.4531H560.5V65.3906H561.734ZM562.047 77.9375V78.9688H552.75V74.6875H553.984V77.9375H562.047Z" fill="#2B2B2B"/>
<rect x="456" y="104" width="128" height="40" rx="4" fill="#F6F6F9"/>
<path d="M499.578 119.344C499.562 121.203 502.047 122.781 504.469 123.141L504.016 124.109C501.844 123.742 499.734 122.586 498.891 120.906C498.047 122.586 495.93 123.742 493.797 124.109L493.312 123.141C495.719 122.781 498.203 121.203 498.203 119.344V119.25H493.75V118.25H504.016V119.25H499.578V119.344ZM505.219 125.297V126.312H499.469V131.266H498.266V126.312H492.562V125.297H505.219ZM519.094 124.484V125.5H513.438V128.344H512.219V125.5H506.375V124.484H519.094ZM517.438 118.062V122.891H508.031V118.062H517.438ZM509.234 119.031V121.906H516.219V119.031H509.234ZM517.672 129.938V130.969H508V126.969H509.234V129.938H517.672ZM524.859 119.625C524.859 121.516 526.297 123.25 528.312 123.938L527.641 124.906C526.102 124.344 524.891 123.195 524.281 121.75C523.688 123.383 522.453 124.672 520.828 125.297L520.172 124.312C522.25 123.531 523.641 121.672 523.656 119.531V118.094H524.859V119.625ZM531.078 117.375V121H533.172V122.031H531.078V125.828H529.859V117.375H531.078ZM526.625 126.188C529.484 126.188 531.203 127.109 531.203 128.703C531.203 130.328 529.484 131.234 526.625 131.234C523.766 131.234 522.016 130.328 522.016 128.703C522.016 127.109 523.766 126.188 526.625 126.188ZM526.625 127.172C524.531 127.172 523.234 127.75 523.25 128.703C523.234 129.688 524.531 130.25 526.625 130.266C528.734 130.25 530.016 129.688 530.016 128.703C530.016 127.75 528.734 127.172 526.625 127.172ZM546.703 124.094V125.109H540.969V126.75H545.156V131.078H535.594V126.75H539.766V125.109H534.047V124.094H546.703ZM545.5 117.828V118.844H543.359V121.766H545.453V122.781H535.281V121.766H537.375V118.844H535.234V117.828H545.5ZM536.812 127.719V130.078H543.953V127.719H536.812ZM538.594 121.766H542.141V118.844H538.594V121.766Z" fill="#2B2B2B"/>
<rect x="152" y="168" width="128" height="40" rx="4" fill="#162D55"/>
<path d="M195.578 183.344C195.562 185.203 198.047 186.781 200.469 187.141L200.016 188.109C197.844 187.742 195.734 186.586 194.891 184.906C194.047 186.586 191.93 187.742 189.797 188.109L189.312 187.141C191.719 186.781 194.203 185.203 194.203 183.344V183.25H189.75V182.25H200.016V183.25H195.578V183.344ZM201.219 189.297V190.312H195.469V195.266H194.266V190.312H188.562V189.297H201.219ZM215.109 192.453V193.484H202.391V192.453H205.547V188.703C204.359 188.086 203.641 187.086 203.641 185.828C203.641 183.672 205.75 182.266 208.719 182.25C211.688 182.266 213.797 183.672 213.797 185.828C213.797 187.062 213.102 188.055 211.953 188.672V192.453H215.109ZM208.719 183.266C206.438 183.25 204.828 184.281 204.828 185.828C204.828 187.375 206.438 188.422 208.719 188.422C210.984 188.422 212.609 187.375 212.609 185.828C212.609 184.281 210.984 183.25 208.719 183.266ZM206.75 192.453H210.719V189.141C210.117 189.305 209.445 189.391 208.719 189.391C208.008 189.391 207.344 189.312 206.75 189.156V192.453ZM227.734 181.375V189.656H226.5V186.016H223.703V185H226.5V181.375H227.734ZM223.125 190.094C226.016 190.094 227.781 191.031 227.781 192.672C227.781 194.312 226.016 195.25 223.125 195.266C220.234 195.25 218.469 194.312 218.469 192.672C218.469 191.031 220.234 190.094 223.125 190.094ZM223.125 191.047C221 191.047 219.672 191.656 219.688 192.672C219.672 193.672 221 194.281 223.125 194.281C225.25 194.281 226.562 193.672 226.562 192.672C226.562 191.656 225.25 191.047 223.125 191.047ZM221.047 183.922C221.047 185.734 222.438 187.453 224.469 188.156L223.828 189.141C222.266 188.578 221.055 187.414 220.469 185.969C219.859 187.602 218.57 188.906 216.922 189.531L216.281 188.547C218.344 187.797 219.812 185.922 219.812 183.938V183.422H216.672V182.391H224.156V183.422H221.047V183.922ZM242.766 192.469V193.484H230.047V192.469H235.766V189.469H231.547V182.359H232.781V184.875H240V182.359H241.203V189.469H236.969V192.469H242.766ZM232.781 188.469H240V185.875H232.781V188.469Z" fill="white"/>
<rect x="152" y="596" width="128" height="40" rx="4" fill="#162D55"/>
<path d="M201.281 620.469V621.484H188.562V620.469H194.281V617.469H190.062V610.359H191.297V612.875H198.516V610.359H199.719V617.469H195.484V620.469H201.281ZM191.297 616.469H198.516V613.875H191.297V616.469ZM215.109 620.453V621.484H202.391V620.453H208.125V617.078H209.359V620.453H215.109ZM209.359 612.016C209.359 614.234 212.109 616.141 214.5 616.531L214 617.5C211.875 617.086 209.633 615.734 208.75 613.797C207.852 615.742 205.617 617.125 203.531 617.562L203.016 616.578C205.359 616.172 208.094 614.234 208.094 612.016V611.672H203.438V610.641H214.016V611.672H209.359V612.016ZM227.734 609.375V617.656H226.5V614.016H223.703V613H226.5V609.375H227.734ZM223.125 618.094C226.016 618.094 227.781 619.031 227.781 620.672C227.781 622.312 226.016 623.25 223.125 623.266C220.234 623.25 218.469 622.312 218.469 620.672C218.469 619.031 220.234 618.094 223.125 618.094ZM223.125 619.047C221 619.047 219.672 619.656 219.688 620.672C219.672 621.672 221 622.281 223.125 622.281C225.25 622.281 226.562 621.672 226.562 620.672C226.562 619.656 225.25 619.047 223.125 619.047ZM221.047 611.922C221.047 613.734 222.438 615.453 224.469 616.156L223.828 617.141C222.266 616.578 221.055 615.414 220.469 613.969C219.859 615.602 218.57 616.906 216.922 617.531L216.281 616.547C218.344 615.797 219.812 613.922 219.812 611.938V611.422H216.672V610.391H224.156V611.422H221.047V611.922ZM242.766 620.469V621.484H230.047V620.469H235.766V617.469H231.547V610.359H232.781V612.875H240V610.359H241.203V617.469H236.969V620.469H242.766ZM232.781 616.469H240V613.875H232.781V616.469Z" fill="white"/>
</svg>
