<svg width="832" height="504" viewBox="0 0 832 504" fill="none" xmlns="http://www.w3.org/2000/svg">
<line x1="154" y1="53" x2="134" y2="53" stroke="#162D55" stroke-width="2"/>
<line x1="680" y1="53" x2="662" y2="53" stroke="#001F23" stroke-width="2"/>
<line x1="680" y1="125" x2="662" y2="125" stroke="#001F23" stroke-width="2"/>
<line x1="680" y1="197" x2="662" y2="197" stroke="#001F23" stroke-width="2"/>
<rect y="32" width="128" height="40" rx="4" fill="#F6F6F9"/>
<path d="M48.0781 45.375V52.4844H46.8438V51.0312H43.1406V50.0625H46.8438V48.3906H43.3438C42.4688 50.5859 40.3125 52.0625 37.2344 52.7969L36.7969 51.7812C40.2031 50.9922 42.1875 49.3281 42.4219 47.0938H37.5V46.0781H43.7656C43.7656 46.5391 43.7188 46.9844 43.6406 47.4062H46.8438V45.375H48.0781ZM48.0781 53.1094V56.5H40.3281V58.125H48.5469V59.1406H39.1094V55.5625H46.8438V54.1094H39.0781V53.1094H48.0781ZM62.2656 45.375V59.2656H61.0938V45.375H62.2656ZM59.4531 45.7188V58.5469H58.2969V51.3906H55.9531V50.3906H58.2969V45.7188H59.4531ZM54.4688 49.3438C54.4688 51.75 55.5469 54.1406 57.4688 55.25L56.7188 56.1562C55.3516 55.3359 54.3828 53.8359 53.9062 52.0625C53.3984 53.9766 52.3906 55.6094 51 56.4844L50.2188 55.5625C52.1562 54.4062 53.2812 51.875 53.2812 49.3438V48.0312H50.6094V47.0156H57.0156V48.0312H54.4688V49.3438ZM76.0938 45.375V59.2656H74.9219V51.9844H72.875V58.5469H71.75V45.6875H72.875V50.9688H74.9219V45.375H76.0938ZM69.9375 47.0781V48.0938H65.9531V54.7812C67.8672 54.7734 69.1953 54.7031 70.7344 54.3906L70.8438 55.4219C69.1719 55.7656 67.75 55.8281 65.625 55.8281H64.7344V47.0781H69.9375ZM89.5312 45.375V59.2656H88.2969V45.375H89.5312ZM85.4219 46.8906C85.4062 50.8906 83.5469 54.4219 78.8906 56.6562L78.2188 55.6562C81.9766 53.875 83.8906 51.2109 84.1719 47.8906H78.8594V46.8906H85.4219Z" fill="#2B2B2B"/>
<rect x="528" y="32" width="128" height="40" rx="4" fill="#E6F3F5"/>
<path d="M583.062 45.375V52.9219H581.844V49.7812H579.031V48.75H581.844V45.375H583.062ZM575.359 53.5938V55.3281H581.844V53.5938H583.062V59.0781H574.125V53.5938H575.359ZM575.359 58.0781H581.844V56.3125H575.359V58.0781ZM576.391 47.6406C576.391 49.4219 577.781 51.1719 579.812 51.875L579.172 52.8281C577.602 52.2578 576.391 51.0938 575.797 49.6562C575.195 51.2656 573.914 52.5547 572.266 53.1562L571.625 52.1875C573.672 51.4531 575.156 49.6094 575.156 47.6406V47.2344H572.016V46.2188H579.5V47.2344H576.391V47.6406ZM592.359 46.6719C592.359 48.625 594.922 50.3281 597.422 50.6719L596.922 51.6719C594.766 51.3125 592.633 50.1172 591.734 48.4062C590.844 50.125 588.703 51.3125 586.547 51.6719L586.047 50.6719C588.547 50.3281 591.094 48.6562 591.094 46.6719V45.875H592.359V46.6719ZM598.047 53.2031V54.2344H592.297V59.2656H591.094V54.2344H585.391V53.2031H598.047ZM611.875 51.875V52.8906H606.141V54.375C608.766 54.4844 610.312 55.3438 610.328 56.8125C610.312 58.3594 608.531 59.2344 605.547 59.2344C602.531 59.2344 600.75 58.3594 600.75 56.8125C600.75 55.3438 602.289 54.4844 604.938 54.375V52.8906H599.219V51.875H611.875ZM605.547 55.3125C603.312 55.3281 601.984 55.875 602 56.8125C601.984 57.7344 603.312 58.2812 605.547 58.2812C607.75 58.2812 609.094 57.7344 609.094 56.8125C609.094 55.875 607.75 55.3281 605.547 55.3125ZM610.75 46.0312V47.0312H606.344C606.422 48.5938 608.719 49.8047 611.172 50.0625L610.719 51.0312C608.445 50.7578 606.312 49.7422 605.547 48.1875C604.789 49.7422 602.664 50.7578 600.375 51.0312L599.938 50.0625C602.344 49.8047 604.656 48.5938 604.75 47.0312H600.375V46.0312H610.75Z" fill="#00454D"/>
<rect x="528" y="104" width="128" height="40" rx="4" fill="#E6F3F5"/>
<path d="M576.562 120.359C576.562 122.234 578.047 123.922 580.125 124.578L579.5 125.562C577.883 125.016 576.594 123.875 575.969 122.406C575.359 123.992 574.055 125.242 572.406 125.844L571.766 124.859C573.844 124.125 575.328 122.328 575.328 120.359V119.547H572.078V118.547H579.766V119.547H576.562V120.359ZM583.031 117.391V127.578H581.812V117.391H583.031ZM583.469 129.938V130.969H574.062V126.609H575.281V129.938H583.469ZM596.25 117.375V121.516H598.359V122.547H596.25V127.438H595.031V117.375H596.25ZM592.234 118.578V119.609H587.266V123.938C590.055 123.938 591.641 123.867 593.5 123.484L593.656 124.5C591.703 124.875 590.047 124.969 587.125 124.969H586.047V118.578H592.234ZM596.891 129.938V130.969H587.562V126.422H588.766V129.938H596.891ZM611.875 123.875V124.891H606.141V126.375C608.766 126.484 610.312 127.344 610.328 128.812C610.312 130.359 608.531 131.234 605.547 131.234C602.531 131.234 600.75 130.359 600.75 128.812C600.75 127.344 602.289 126.484 604.938 126.375V124.891H599.219V123.875H611.875ZM605.547 127.312C603.312 127.328 601.984 127.875 602 128.812C601.984 129.734 603.312 130.281 605.547 130.281C607.75 130.281 609.094 129.734 609.094 128.812C609.094 127.875 607.75 127.328 605.547 127.312ZM610.75 118.031V119.031H606.344C606.422 120.594 608.719 121.805 611.172 122.062L610.719 123.031C608.445 122.758 606.312 121.742 605.547 120.188C604.789 121.742 602.664 122.758 600.375 123.031L599.938 122.062C602.344 121.805 604.656 120.594 604.75 119.031H600.375V118.031H610.75Z" fill="#00454D"/>
<rect x="528" y="176" width="128" height="40" rx="4" fill="#E6F3F5"/>
<path d="M576.078 189.391V199.75H574.844V196.391H571.109V195.375H574.844V193.266H571.297C570.32 195.461 568.188 197.133 565.344 198.047L564.797 197.062C568.047 195.992 570.281 193.992 570.547 191.484H565.484V190.469H571.891C571.891 191.094 571.805 191.695 571.656 192.266H574.844V189.391H576.078ZM576.438 201.938V202.969H567.234V198.719H568.484V201.938H576.438ZM583.219 191.938C583.219 193.75 584.609 195.469 586.641 196.172L586 197.141C584.43 196.578 583.219 195.414 582.625 193.984C582.023 195.586 580.742 196.867 579.094 197.469L578.453 196.5C580.5 195.766 581.984 193.906 581.984 191.953V191.344H578.844V190.344H586.328V191.344H583.219V191.938ZM589.906 198.438V203.266H588.672V199.453H580.562V198.438H589.906ZM589.906 189.375V197.703H588.672V194.047H585.891V193.016H588.672V189.375H589.906ZM596.453 190.031C598.484 190.031 599.906 191.125 599.906 192.781C599.906 194.211 598.781 195.25 597.109 195.453V196.812C598.406 196.758 599.727 196.641 600.938 196.453L601.031 197.375C598.094 197.906 594.766 197.938 592.359 197.938L592.203 196.922C593.281 196.93 594.547 196.922 595.875 196.875V195.469C594.156 195.281 593 194.234 593.016 192.781C593 191.125 594.422 190.031 596.453 190.031ZM596.453 190.984C595.109 190.984 594.156 191.703 594.172 192.781C594.156 193.828 595.109 194.547 596.453 194.562C597.812 194.547 598.734 193.828 598.75 192.781C598.734 191.703 597.812 190.984 596.453 190.984ZM603.062 189.391V194.094H605.141V195.141H603.062V200.016H601.828V189.391H603.062ZM603.562 201.922V202.953H594.234V199.094H595.469V201.922H603.562ZM618.766 200.516V201.547H606.047V200.516H609.625V197.875H607.641V193.594H615.953V191.422H607.609V190.406H617.156V194.609H608.859V196.859H617.484V197.875H615.312V200.516H618.766ZM610.828 200.516H614.109V197.875H610.828V200.516Z" fill="#00454D"/>
<rect x="528" y="248" width="128" height="40" rx="4" fill="#E6F3F5"/>
<path d="M576.078 261.375V268.484H574.844V267.031H571.141V266.062H574.844V264.391H571.344C570.469 266.586 568.312 268.062 565.234 268.797L564.797 267.781C568.203 266.992 570.188 265.328 570.422 263.094H565.5V262.078H571.766C571.766 262.539 571.719 262.984 571.641 263.406H574.844V261.375H576.078ZM576.078 269.109V272.5H568.328V274.125H576.547V275.141H567.109V271.562H574.844V270.109H567.078V269.109H576.078ZM590.266 261.375V275.266H589.094V261.375H590.266ZM587.453 261.719V274.547H586.297V267.391H583.953V266.391H586.297V261.719H587.453ZM582.469 265.344C582.469 267.75 583.547 270.141 585.469 271.25L584.719 272.156C583.352 271.336 582.383 269.836 581.906 268.062C581.398 269.977 580.391 271.609 579 272.484L578.219 271.562C580.156 270.406 581.281 267.875 581.281 265.344V264.031H578.609V263.016H585.016V264.031H582.469V265.344ZM604.094 261.375V275.266H602.922V267.984H600.875V274.547H599.75V261.688H600.875V266.969H602.922V261.375H604.094ZM597.938 263.078V264.094H593.953V270.781C595.867 270.773 597.195 270.703 598.734 270.391L598.844 271.422C597.172 271.766 595.75 271.828 593.625 271.828H592.734V263.078H597.938ZM617.531 261.375V275.266H616.297V261.375H617.531ZM613.422 262.891C613.406 266.891 611.547 270.422 606.891 272.656L606.219 271.656C609.977 269.875 611.891 267.211 612.172 263.891H606.859V262.891H613.422Z" fill="#00454D"/>
<rect x="704" y="248" width="128" height="40" rx="4" fill="#C2DCDF"/>
<path d="M738.797 264C738.797 265.406 740.188 266.594 742.156 267.031L741.656 268.016C740.055 267.625 738.82 266.773 738.219 265.641C737.617 266.867 736.367 267.797 734.719 268.203L734.188 267.219C736.188 266.781 737.578 265.484 737.578 264V263.938H734.484V262.969H737.578V261.422H738.797V262.969H741.891V263.938H738.797V264ZM745.016 261.391V275.281H743.812V261.391H745.016ZM733.531 269.188C736.188 269.188 739.719 269.156 742.797 268.766L742.875 269.656C741.547 269.875 740.172 270.008 738.828 270.078V274.859H737.609V270.141C736.203 270.211 734.867 270.219 733.703 270.219L733.531 269.188ZM760.109 272.438V273.453H747.391V272.438H753.078V269.031H754.281V272.438H760.109ZM754.312 263.391C754.312 265.719 757.062 267.75 759.484 268.172L758.938 269.188C756.82 268.758 754.586 267.32 753.688 265.312C752.773 267.312 750.555 268.758 748.438 269.188L747.891 268.172C750.312 267.75 753.031 265.719 753.031 263.391V262.328H754.312V263.391ZM772.734 261.375V275.297H771.5V267.984H768.453V266.969H771.5V261.375H772.734ZM766.016 265.906C766.016 268.203 767.578 270.453 769.641 271.375L768.938 272.328C767.359 271.602 766.047 270.086 765.438 268.25C764.828 270.188 763.531 271.812 761.953 272.578L761.25 271.625C763.281 270.672 764.812 268.297 764.812 265.906V264.797H761.625V263.797H764.812V261.641H766.031V263.797H769.172V264.797H766.016V265.906ZM786.516 261.375V275.297H785.297V261.375H786.516ZM782.297 262.672V267.609H777.109V270.891C779.414 270.891 781.469 270.789 783.953 270.391L784.078 271.422C781.516 271.828 779.406 271.922 777.016 271.922H775.859V266.609H781.062V263.688H775.828V262.672H782.297ZM801.531 267.875V268.891H795.797V270.375C798.422 270.484 799.969 271.344 799.984 272.812C799.969 274.359 798.188 275.234 795.203 275.234C792.188 275.234 790.406 274.359 790.406 272.812C790.406 271.344 791.945 270.484 794.594 270.375V268.891H788.875V267.875H801.531ZM795.203 271.312C792.969 271.328 791.641 271.875 791.656 272.812C791.641 273.734 792.969 274.281 795.203 274.281C797.406 274.281 798.75 273.734 798.75 272.812C798.75 271.875 797.406 271.328 795.203 271.312ZM800.406 262.031V263.031H796C796.078 264.594 798.375 265.805 800.828 266.062L800.375 267.031C798.102 266.758 795.969 265.742 795.203 264.188C794.445 265.742 792.32 266.758 790.031 267.031L789.594 266.062C792 265.805 794.312 264.594 794.406 263.031H790.031V262.031H800.406Z" fill="#001F23"/>
<rect x="704" y="320" width="128" height="40" rx="4" fill="#C2DCDF"/>
<path d="M745.797 336C745.797 337.406 747.188 338.594 749.156 339.031L748.656 340.016C747.055 339.625 745.82 338.773 745.219 337.641C744.617 338.867 743.367 339.797 741.719 340.203L741.188 339.219C743.188 338.781 744.578 337.484 744.578 336V335.938H741.484V334.969H744.578V333.422H745.797V334.969H748.891V335.938H745.797V336ZM752.016 333.391V347.281H750.812V333.391H752.016ZM740.531 341.188C743.188 341.188 746.719 341.156 749.797 340.766L749.875 341.656C748.547 341.875 747.172 342.008 745.828 342.078V346.859H744.609V342.141C743.203 342.211 741.867 342.219 740.703 342.219L740.531 341.188ZM767.109 344.438V345.453H754.391V344.438H760.078V341.031H761.281V344.438H767.109ZM761.312 335.391C761.312 337.719 764.062 339.75 766.484 340.172L765.938 341.188C763.82 340.758 761.586 339.32 760.688 337.312C759.773 339.312 757.555 340.758 755.438 341.188L754.891 340.172C757.312 339.75 760.031 337.719 760.031 335.391V334.328H761.312V335.391ZM772.453 334.031C774.484 334.031 775.906 335.125 775.906 336.781C775.906 338.211 774.781 339.25 773.109 339.453V340.812C774.406 340.758 775.727 340.641 776.938 340.453L777.031 341.375C774.094 341.906 770.766 341.938 768.359 341.938L768.203 340.922C769.281 340.93 770.547 340.922 771.875 340.875V339.469C770.156 339.281 769 338.234 769.016 336.781C769 335.125 770.422 334.031 772.453 334.031ZM772.453 334.984C771.109 334.984 770.156 335.703 770.172 336.781C770.156 337.828 771.109 338.547 772.453 338.562C773.812 338.547 774.734 337.828 774.75 336.781C774.734 335.703 773.812 334.984 772.453 334.984ZM779.062 333.391V338.094H781.141V339.141H779.062V344.016H777.828V333.391H779.062ZM779.562 345.922V346.953H770.234V343.094H771.469V345.922H779.562ZM794.766 344.516V345.547H782.047V344.516H785.625V341.875H783.641V337.594H791.953V335.422H783.609V334.406H793.156V338.609H784.859V340.859H793.484V341.875H791.312V344.516H794.766ZM786.828 344.516H790.109V341.875H786.828V344.516Z" fill="#001F23"/>
<rect x="528" y="320" width="128" height="40" rx="4" fill="#E6F3F5"/>
<path d="M578.531 334.672C578.531 336.625 581.094 338.328 583.594 338.672L583.094 339.672C580.938 339.312 578.805 338.117 577.906 336.406C577.016 338.125 574.875 339.312 572.719 339.672L572.219 338.672C574.719 338.328 577.266 336.656 577.266 334.672V333.875H578.531V334.672ZM584.219 341.203V342.234H578.469V347.266H577.266V342.234H571.562V341.203H584.219ZM596.859 333.375V347.297H595.641V333.375H596.859ZM592.641 334.672V339.609H587.453V342.891C589.758 342.891 591.812 342.789 594.297 342.391L594.422 343.422C591.859 343.828 589.75 343.922 587.359 343.922H586.203V338.609H591.406V335.688H586.172V334.672H592.641ZM611.875 339.875V340.891H606.141V342.375C608.766 342.484 610.312 343.344 610.328 344.812C610.312 346.359 608.531 347.234 605.547 347.234C602.531 347.234 600.75 346.359 600.75 344.812C600.75 343.344 602.289 342.484 604.938 342.375V340.891H599.219V339.875H611.875ZM605.547 343.312C603.312 343.328 601.984 343.875 602 344.812C601.984 345.734 603.312 346.281 605.547 346.281C607.75 346.281 609.094 345.734 609.094 344.812C609.094 343.875 607.75 343.328 605.547 343.312ZM610.75 334.031V335.031H606.344C606.422 336.594 608.719 337.805 611.172 338.062L610.719 339.031C608.445 338.758 606.312 337.742 605.547 336.188C604.789 337.742 602.664 338.758 600.375 339.031L599.938 338.062C602.344 337.805 604.656 336.594 604.75 335.031H600.375V334.031H610.75Z" fill="#00454D"/>
<rect x="528" y="392" width="128" height="40" rx="4" fill="#E6F3F5"/>
<path d="M573.25 406.703V410.094H576.266V406.703H577.406V415.797H572.078V406.703H573.25ZM573.25 414.781H576.266V411.094H573.25V414.781ZM583.469 405.375V419.266H582.281V411.906H580.344V418.562H579.172V405.672H580.344V410.891H582.281V405.375H583.469ZM592.312 410.234V412.281H598.047V413.281H585.391V412.281H591.109V410.234H592.312ZM592.328 406.25C592.328 408.094 594.828 409.641 597.281 409.984L596.781 410.969C594.672 410.602 592.586 409.484 591.719 407.875C590.844 409.492 588.75 410.602 586.625 410.969L586.156 409.984C588.609 409.641 591.094 408.094 591.094 406.25V405.594H592.328V406.25ZM591.719 414.438C594.703 414.438 596.484 415.297 596.5 416.844C596.484 418.391 594.703 419.234 591.719 419.234C588.703 419.234 586.922 418.391 586.922 416.844C586.922 415.297 588.703 414.438 591.719 414.438ZM591.719 415.406C589.469 415.406 588.156 415.922 588.172 416.844C588.156 417.75 589.469 418.281 591.719 418.281C593.938 418.281 595.266 417.75 595.266 416.844C595.266 415.922 593.938 415.406 591.719 415.406ZM611.875 411.875V412.891H606.141V414.375C608.766 414.484 610.312 415.344 610.328 416.812C610.312 418.359 608.531 419.234 605.547 419.234C602.531 419.234 600.75 418.359 600.75 416.812C600.75 415.344 602.289 414.484 604.938 414.375V412.891H599.219V411.875H611.875ZM605.547 415.312C603.312 415.328 601.984 415.875 602 416.812C601.984 417.734 603.312 418.281 605.547 418.281C607.75 418.281 609.094 417.734 609.094 416.812C609.094 415.875 607.75 415.328 605.547 415.312ZM610.75 406.031V407.031H606.344C606.422 408.594 608.719 409.805 611.172 410.062L610.719 411.031C608.445 410.758 606.312 409.742 605.547 408.188C604.789 409.742 602.664 410.758 600.375 411.031L599.938 410.062C602.344 409.805 604.656 408.594 604.75 407.031H600.375V406.031H610.75Z" fill="#00454D"/>
<rect x="528" y="464" width="128" height="40" rx="4" fill="#E6F3F5"/>
<path d="M566.25 478.703V482.094H569.266V478.703H570.406V487.797H565.078V478.703H566.25ZM566.25 486.781H569.266V483.094H566.25V486.781ZM576.469 477.375V491.266H575.281V483.906H573.344V490.562H572.172V477.672H573.344V482.891H575.281V477.375H576.469ZM585.312 482.234V484.281H591.047V485.281H578.391V484.281H584.109V482.234H585.312ZM585.328 478.25C585.328 480.094 587.828 481.641 590.281 481.984L589.781 482.969C587.672 482.602 585.586 481.484 584.719 479.875C583.844 481.492 581.75 482.602 579.625 482.969L579.156 481.984C581.609 481.641 584.094 480.094 584.094 478.25V477.594H585.328V478.25ZM584.719 486.438C587.703 486.438 589.484 487.297 589.5 488.844C589.484 490.391 587.703 491.234 584.719 491.234C581.703 491.234 579.922 490.391 579.922 488.844C579.922 487.297 581.703 486.438 584.719 486.438ZM584.719 487.406C582.469 487.406 581.156 487.922 581.172 488.844C581.156 489.75 582.469 490.281 584.719 490.281C586.938 490.281 588.266 489.75 588.266 488.844C588.266 487.922 586.938 487.406 584.719 487.406ZM596.453 478.031C598.484 478.031 599.906 479.125 599.906 480.781C599.906 482.211 598.781 483.25 597.109 483.453V484.812C598.406 484.758 599.727 484.641 600.938 484.453L601.031 485.375C598.094 485.906 594.766 485.938 592.359 485.938L592.203 484.922C593.281 484.93 594.547 484.922 595.875 484.875V483.469C594.156 483.281 593 482.234 593.016 480.781C593 479.125 594.422 478.031 596.453 478.031ZM596.453 478.984C595.109 478.984 594.156 479.703 594.172 480.781C594.156 481.828 595.109 482.547 596.453 482.562C597.812 482.547 598.734 481.828 598.75 480.781C598.734 479.703 597.812 478.984 596.453 478.984ZM603.062 477.391V482.094H605.141V483.141H603.062V488.016H601.828V477.391H603.062ZM603.562 489.922V490.953H594.234V487.094H595.469V489.922H603.562ZM618.766 488.516V489.547H606.047V488.516H609.625V485.875H607.641V481.594H615.953V479.422H607.609V478.406H617.156V482.609H608.859V484.859H617.484V485.875H615.312V488.516H618.766ZM610.828 488.516H614.109V485.875H610.828V488.516Z" fill="#00454D"/>
<rect y="104" width="128" height="40" rx="4" fill="#F6F6F9"/>
<path d="M34.2031 119.625C34.2031 121.516 35.6406 123.25 37.6562 123.938L36.9844 124.906C35.4453 124.344 34.2344 123.195 33.625 121.75C33.0312 123.383 31.7969 124.672 30.1719 125.297L29.5156 124.312C31.5938 123.531 32.9844 121.672 33 119.531V118.094H34.2031V119.625ZM40.4219 117.375V121H42.5156V122.031H40.4219V125.828H39.2031V117.375H40.4219ZM35.9688 126.188C38.8281 126.188 40.5469 127.109 40.5469 128.703C40.5469 130.328 38.8281 131.234 35.9688 131.234C33.1094 131.234 31.3594 130.328 31.3594 128.703C31.3594 127.109 33.1094 126.188 35.9688 126.188ZM35.9688 127.172C33.875 127.172 32.5781 127.75 32.5938 128.703C32.5781 129.688 33.875 130.25 35.9688 130.266C38.0781 130.25 39.3594 129.688 39.3594 128.703C39.3594 127.75 38.0781 127.172 35.9688 127.172ZM56.0469 124.094V125.109H50.3125V126.75H54.5V131.078H44.9375V126.75H49.1094V125.109H43.3906V124.094H56.0469ZM54.8438 117.828V118.844H52.7031V121.766H54.7969V122.781H44.625V121.766H46.7188V118.844H44.5781V117.828H54.8438ZM46.1562 127.719V130.078H53.2969V127.719H46.1562ZM47.9375 121.766H51.4844V118.844H47.9375V121.766ZM64.3438 119.109C64.3281 120.812 66.6719 122.203 69.125 122.547L68.6406 123.516C66.3984 123.195 64.3047 122.07 63.5469 120.438C62.7969 122.07 60.7109 123.195 58.4531 123.516L58 122.547C60.4531 122.203 62.75 120.812 62.75 119.109V119.078H58.375V118.078H68.75V119.078H64.3438V119.109ZM69.9219 124.531V125.547H64.2656V128.391H63.0469V125.547H57.2031V124.531H69.9219ZM68.5 129.938V130.969H58.8281V127H60.0625V129.938H68.5ZM82.5 117.375V131.297H81.2656V117.375H82.5ZM73.0781 118.562V122.234H77.2188V118.562H78.4219V127.938H71.8594V118.562H73.0781ZM73.0781 126.906H77.2188V123.219H73.0781V126.906ZM97.5312 123.875V124.891H91.7969V126.375C94.4219 126.484 95.9688 127.344 95.9844 128.812C95.9688 130.359 94.1875 131.234 91.2031 131.234C88.1875 131.234 86.4062 130.359 86.4062 128.812C86.4062 127.344 87.9453 126.484 90.5938 126.375V124.891H84.875V123.875H97.5312ZM91.2031 127.312C88.9688 127.328 87.6406 127.875 87.6562 128.812C87.6406 129.734 88.9688 130.281 91.2031 130.281C93.4062 130.281 94.75 129.734 94.75 128.812C94.75 127.875 93.4062 127.328 91.2031 127.312ZM96.4062 118.031V119.031H92C92.0781 120.594 94.375 121.805 96.8281 122.062L96.375 123.031C94.1016 122.758 91.9688 121.742 91.2031 120.188C90.4453 121.742 88.3203 122.758 86.0312 123.031L85.5938 122.062C88 121.805 90.3125 120.594 90.4062 119.031H86.0312V118.031H96.4062Z" fill="#2B2B2B"/>
<rect x="176" y="104" width="128" height="40" rx="4" fill="#E4EFFF"/>
<path d="M210.797 120C210.797 121.406 212.188 122.594 214.156 123.031L213.656 124.016C212.055 123.625 210.82 122.773 210.219 121.641C209.617 122.867 208.367 123.797 206.719 124.203L206.188 123.219C208.188 122.781 209.578 121.484 209.578 120V119.938H206.484V118.969H209.578V117.422H210.797V118.969H213.891V119.938H210.797V120ZM217.016 117.391V131.281H215.812V117.391H217.016ZM205.531 125.188C208.188 125.188 211.719 125.156 214.797 124.766L214.875 125.656C213.547 125.875 212.172 126.008 210.828 126.078V130.859H209.609V126.141C208.203 126.211 206.867 126.219 205.703 126.219L205.531 125.188ZM232.109 128.438V129.453H219.391V128.438H225.078V125.031H226.281V128.438H232.109ZM226.312 119.391C226.312 121.719 229.062 123.75 231.484 124.172L230.938 125.188C228.82 124.758 226.586 123.32 225.688 121.312C224.773 123.312 222.555 124.758 220.438 125.188L219.891 124.172C222.312 123.75 225.031 121.719 225.031 119.391V118.328H226.312V119.391ZM244.734 117.375V131.297H243.5V123.984H240.453V122.969H243.5V117.375H244.734ZM238.016 121.906C238.016 124.203 239.578 126.453 241.641 127.375L240.938 128.328C239.359 127.602 238.047 126.086 237.438 124.25C236.828 126.188 235.531 127.812 233.953 128.578L233.25 127.625C235.281 126.672 236.812 124.297 236.812 121.906V120.797H233.625V119.797H236.812V117.641H238.031V119.797H241.172V120.797H238.016V121.906ZM258.516 117.375V131.297H257.297V117.375H258.516ZM254.297 118.672V123.609H249.109V126.891C251.414 126.891 253.469 126.789 255.953 126.391L256.078 127.422C253.516 127.828 251.406 127.922 249.016 127.922H247.859V122.609H253.062V119.688H247.828V118.672H254.297ZM273.531 123.875V124.891H267.797V126.375C270.422 126.484 271.969 127.344 271.984 128.812C271.969 130.359 270.188 131.234 267.203 131.234C264.188 131.234 262.406 130.359 262.406 128.812C262.406 127.344 263.945 126.484 266.594 126.375V124.891H260.875V123.875H273.531ZM267.203 127.312C264.969 127.328 263.641 127.875 263.656 128.812C263.641 129.734 264.969 130.281 267.203 130.281C269.406 130.281 270.75 129.734 270.75 128.812C270.75 127.875 269.406 127.328 267.203 127.312ZM272.406 118.031V119.031H268C268.078 120.594 270.375 121.805 272.828 122.062L272.375 123.031C270.102 122.758 267.969 121.742 267.203 120.188C266.445 121.742 264.32 122.758 262.031 123.031L261.594 122.062C264 121.805 266.312 120.594 266.406 119.031H262.031V118.031H272.406Z" fill="#162D55"/>
<rect x="176" y="176" width="128" height="40" rx="4" fill="#E4EFFF"/>
<path d="M217.797 192C217.797 193.406 219.188 194.594 221.156 195.031L220.656 196.016C219.055 195.625 217.82 194.773 217.219 193.641C216.617 194.867 215.367 195.797 213.719 196.203L213.188 195.219C215.188 194.781 216.578 193.484 216.578 192V191.938H213.484V190.969H216.578V189.422H217.797V190.969H220.891V191.938H217.797V192ZM224.016 189.391V203.281H222.812V189.391H224.016ZM212.531 197.188C215.188 197.188 218.719 197.156 221.797 196.766L221.875 197.656C220.547 197.875 219.172 198.008 217.828 198.078V202.859H216.609V198.141C215.203 198.211 213.867 198.219 212.703 198.219L212.531 197.188ZM239.109 200.438V201.453H226.391V200.438H232.078V197.031H233.281V200.438H239.109ZM233.312 191.391C233.312 193.719 236.062 195.75 238.484 196.172L237.938 197.188C235.82 196.758 233.586 195.32 232.688 193.312C231.773 195.312 229.555 196.758 227.438 197.188L226.891 196.172C229.312 195.75 232.031 193.719 232.031 191.391V190.328H233.312V191.391ZM244.453 190.031C246.484 190.031 247.906 191.125 247.906 192.781C247.906 194.211 246.781 195.25 245.109 195.453V196.812C246.406 196.758 247.727 196.641 248.938 196.453L249.031 197.375C246.094 197.906 242.766 197.938 240.359 197.938L240.203 196.922C241.281 196.93 242.547 196.922 243.875 196.875V195.469C242.156 195.281 241 194.234 241.016 192.781C241 191.125 242.422 190.031 244.453 190.031ZM244.453 190.984C243.109 190.984 242.156 191.703 242.172 192.781C242.156 193.828 243.109 194.547 244.453 194.562C245.812 194.547 246.734 193.828 246.75 192.781C246.734 191.703 245.812 190.984 244.453 190.984ZM251.062 189.391V194.094H253.141V195.141H251.062V200.016H249.828V189.391H251.062ZM251.562 201.922V202.953H242.234V199.094H243.469V201.922H251.562ZM266.766 200.516V201.547H254.047V200.516H257.625V197.875H255.641V193.594H263.953V191.422H255.609V190.406H265.156V194.609H256.859V196.859H265.484V197.875H263.312V200.516H266.766ZM258.828 200.516H262.109V197.875H258.828V200.516Z" fill="#162D55"/>
<rect x="352" y="248" width="128" height="40" rx="4" fill="#7189A0"/>
<path d="M392.422 261.391V265.594H394.516V266.625H392.422V271.594H391.203V261.391H392.422ZM393.062 273.938V274.969H383.734V270.594H384.938V273.938H393.062ZM383.359 262.391V264.734H387.406V262.391H388.625V269.25H382.156V262.391H383.359ZM383.359 268.25H387.406V265.703H383.359V268.25ZM408.047 268.094V269.109H402.312V270.75H406.5V275.078H396.938V270.75H401.109V269.109H395.391V268.094H408.047ZM406.844 261.828V262.844H404.703V265.766H406.797V266.781H396.625V265.766H398.719V262.844H396.578V261.828H406.844ZM398.156 271.719V274.078H405.297V271.719H398.156ZM399.938 265.766H403.484V262.844H399.938V265.766ZM420.734 261.375V275.297H419.5V267.984H416.453V266.969H419.5V261.375H420.734ZM414.016 265.906C414.016 268.203 415.578 270.453 417.641 271.375L416.938 272.328C415.359 271.602 414.047 270.086 413.438 268.25C412.828 270.188 411.531 271.812 409.953 272.578L409.25 271.625C411.281 270.672 412.812 268.297 412.812 265.906V264.797H409.625V263.797H412.812V261.641H414.031V263.797H417.172V264.797H414.016V265.906ZM434.516 261.375V275.297H433.297V261.375H434.516ZM430.297 262.672V267.609H425.109V270.891C427.414 270.891 429.469 270.789 431.953 270.391L432.078 271.422C429.516 271.828 427.406 271.922 425.016 271.922H423.859V266.609H429.062V263.688H423.828V262.672H430.297ZM449.531 267.875V268.891H443.797V270.375C446.422 270.484 447.969 271.344 447.984 272.812C447.969 274.359 446.188 275.234 443.203 275.234C440.188 275.234 438.406 274.359 438.406 272.812C438.406 271.344 439.945 270.484 442.594 270.375V268.891H436.875V267.875H449.531ZM443.203 271.312C440.969 271.328 439.641 271.875 439.656 272.812C439.641 273.734 440.969 274.281 443.203 274.281C445.406 274.281 446.75 273.734 446.75 272.812C446.75 271.875 445.406 271.328 443.203 271.312ZM448.406 262.031V263.031H444C444.078 264.594 446.375 265.805 448.828 266.062L448.375 267.031C446.102 266.758 443.969 265.742 443.203 264.188C442.445 265.742 440.32 266.758 438.031 267.031L437.594 266.062C440 265.805 442.312 264.594 442.406 263.031H438.031V262.031H448.406Z" fill="#000B1F"/>
<rect x="352" y="320" width="128" height="40" rx="4" fill="#7189A0"/>
<path d="M399.422 333.391V337.594H401.516V338.625H399.422V343.594H398.203V333.391H399.422ZM400.062 345.938V346.969H390.734V342.594H391.938V345.938H400.062ZM390.359 334.391V336.734H394.406V334.391H395.625V341.25H389.156V334.391H390.359ZM390.359 340.25H394.406V337.703H390.359V340.25ZM415.047 340.094V341.109H409.312V342.75H413.5V347.078H403.938V342.75H408.109V341.109H402.391V340.094H415.047ZM413.844 333.828V334.844H411.703V337.766H413.797V338.781H403.625V337.766H405.719V334.844H403.578V333.828H413.844ZM405.156 343.719V346.078H412.297V343.719H405.156ZM406.938 337.766H410.484V334.844H406.938V337.766ZM420.453 334.031C422.484 334.031 423.906 335.125 423.906 336.781C423.906 338.211 422.781 339.25 421.109 339.453V340.812C422.406 340.758 423.727 340.641 424.938 340.453L425.031 341.375C422.094 341.906 418.766 341.938 416.359 341.938L416.203 340.922C417.281 340.93 418.547 340.922 419.875 340.875V339.469C418.156 339.281 417 338.234 417.016 336.781C417 335.125 418.422 334.031 420.453 334.031ZM420.453 334.984C419.109 334.984 418.156 335.703 418.172 336.781C418.156 337.828 419.109 338.547 420.453 338.562C421.812 338.547 422.734 337.828 422.75 336.781C422.734 335.703 421.812 334.984 420.453 334.984ZM427.062 333.391V338.094H429.141V339.141H427.062V344.016H425.828V333.391H427.062ZM427.562 345.922V346.953H418.234V343.094H419.469V345.922H427.562ZM442.766 344.516V345.547H430.047V344.516H433.625V341.875H431.641V337.594H439.953V335.422H431.609V334.406H441.156V338.609H432.859V340.859H441.484V341.875H439.312V344.516H442.766ZM434.828 344.516H438.109V341.875H434.828V344.516Z" fill="#000B1F"/>
<rect y="176" width="128" height="40" rx="4" fill="#F6F6F9"/>
<path d="M45.25 190.703V194.094H48.2656V190.703H49.4062V199.797H44.0781V190.703H45.25ZM45.25 198.781H48.2656V195.094H45.25V198.781ZM55.4688 189.375V203.266H54.2812V195.906H52.3438V202.562H51.1719V189.672H52.3438V194.891H54.2812V189.375H55.4688ZM64.3125 194.234V196.281H70.0469V197.281H57.3906V196.281H63.1094V194.234H64.3125ZM64.3281 190.25C64.3281 192.094 66.8281 193.641 69.2812 193.984L68.7812 194.969C66.6719 194.602 64.5859 193.484 63.7188 191.875C62.8438 193.492 60.75 194.602 58.625 194.969L58.1562 193.984C60.6094 193.641 63.0938 192.094 63.0938 190.25V189.594H64.3281V190.25ZM63.7188 198.438C66.7031 198.438 68.4844 199.297 68.5 200.844C68.4844 202.391 66.7031 203.234 63.7188 203.234C60.7031 203.234 58.9219 202.391 58.9219 200.844C58.9219 199.297 60.7031 198.438 63.7188 198.438ZM63.7188 199.406C61.4688 199.406 60.1562 199.922 60.1719 200.844C60.1562 201.75 61.4688 202.281 63.7188 202.281C65.9375 202.281 67.2656 201.75 67.2656 200.844C67.2656 199.922 65.9375 199.406 63.7188 199.406ZM83.875 195.875V196.891H78.1406V198.375C80.7656 198.484 82.3125 199.344 82.3281 200.812C82.3125 202.359 80.5312 203.234 77.5469 203.234C74.5312 203.234 72.75 202.359 72.75 200.812C72.75 199.344 74.2891 198.484 76.9375 198.375V196.891H71.2188V195.875H83.875ZM77.5469 199.312C75.3125 199.328 73.9844 199.875 74 200.812C73.9844 201.734 75.3125 202.281 77.5469 202.281C79.75 202.281 81.0938 201.734 81.0938 200.812C81.0938 199.875 79.75 199.328 77.5469 199.312ZM82.75 190.031V191.031H78.3438C78.4219 192.594 80.7188 193.805 83.1719 194.062L82.7188 195.031C80.4453 194.758 78.3125 193.742 77.5469 192.188C76.7891 193.742 74.6641 194.758 72.375 195.031L71.9375 194.062C74.3438 193.805 76.6562 192.594 76.75 191.031H72.375V190.031H82.75Z" fill="#2B2B2B"/>
<rect y="248" width="128" height="40" rx="4" fill="#F6F6F9"/>
<path d="M38.25 262.703V266.094H41.2656V262.703H42.4062V271.797H37.0781V262.703H38.25ZM38.25 270.781H41.2656V267.094H38.25V270.781ZM48.4688 261.375V275.266H47.2812V267.906H45.3438V274.562H44.1719V261.672H45.3438V266.891H47.2812V261.375H48.4688ZM57.3125 266.234V268.281H63.0469V269.281H50.3906V268.281H56.1094V266.234H57.3125ZM57.3281 262.25C57.3281 264.094 59.8281 265.641 62.2812 265.984L61.7812 266.969C59.6719 266.602 57.5859 265.484 56.7188 263.875C55.8438 265.492 53.75 266.602 51.625 266.969L51.1562 265.984C53.6094 265.641 56.0938 264.094 56.0938 262.25V261.594H57.3281V262.25ZM56.7188 270.438C59.7031 270.438 61.4844 271.297 61.5 272.844C61.4844 274.391 59.7031 275.234 56.7188 275.234C53.7031 275.234 51.9219 274.391 51.9219 272.844C51.9219 271.297 53.7031 270.438 56.7188 270.438ZM56.7188 271.406C54.4688 271.406 53.1562 271.922 53.1719 272.844C53.1562 273.75 54.4688 274.281 56.7188 274.281C58.9375 274.281 60.2656 273.75 60.2656 272.844C60.2656 271.922 58.9375 271.406 56.7188 271.406ZM68.4531 262.031C70.4844 262.031 71.9062 263.125 71.9062 264.781C71.9062 266.211 70.7812 267.25 69.1094 267.453V268.812C70.4062 268.758 71.7266 268.641 72.9375 268.453L73.0312 269.375C70.0938 269.906 66.7656 269.938 64.3594 269.938L64.2031 268.922C65.2812 268.93 66.5469 268.922 67.875 268.875V267.469C66.1562 267.281 65 266.234 65.0156 264.781C65 263.125 66.4219 262.031 68.4531 262.031ZM68.4531 262.984C67.1094 262.984 66.1562 263.703 66.1719 264.781C66.1562 265.828 67.1094 266.547 68.4531 266.562C69.8125 266.547 70.7344 265.828 70.75 264.781C70.7344 263.703 69.8125 262.984 68.4531 262.984ZM75.0625 261.391V266.094H77.1406V267.141H75.0625V272.016H73.8281V261.391H75.0625ZM75.5625 273.922V274.953H66.2344V271.094H67.4688V273.922H75.5625ZM90.7656 272.516V273.547H78.0469V272.516H81.625V269.875H79.6406V265.594H87.9531V263.422H79.6094V262.406H89.1562V266.609H80.8594V268.859H89.4844V269.875H87.3125V272.516H90.7656ZM82.8281 272.516H86.1094V269.875H82.8281V272.516Z" fill="#2B2B2B"/>
<rect y="320" width="128" height="40" rx="4" fill="#F6F6F9"/>
<path d="M47.5469 334.281V335.5C47.5469 336.82 47.5469 338.25 47.1562 340.25H49.2188V341.266H43.4844V347.297H42.25V341.266H36.5625V340.25H45.9062C46.3281 338.25 46.3281 336.789 46.3281 335.5V335.297H38.1562V334.281H47.5469ZM62.2969 333.375V347.266H61.1094V339.906H59.1719V346.562H58V333.672H59.1719V338.891H61.1094V333.375H62.2969ZM56.2188 335V343.531H50.9062V335H56.2188ZM52.0625 335.984V342.547H55.0625V335.984H52.0625ZM75.0625 333.391V337.594H77.1406V338.625H75.0625V342.703H73.8281V333.391H75.0625ZM64.1562 341.281C65.2656 341.281 66.5625 341.281 67.9219 341.234V340.219C66.3047 340.078 65.2656 339.32 65.2656 338.172C65.2656 336.906 66.5625 336.125 68.5156 336.125C70.4844 336.125 71.7656 336.906 71.7812 338.172C71.7656 339.312 70.75 340.07 69.1406 340.219V341.188C70.4375 341.125 71.75 341.023 72.9688 340.844L73.0781 341.734C70.0625 342.266 66.7344 342.281 64.2969 342.281L64.1562 341.281ZM75.0625 343.391V347.266H73.8281V344.375H65.8594V343.391H75.0625ZM72.5469 334.656V335.594H64.5V334.656H67.9219V333.266H69.1406V334.656H72.5469ZM68.5156 337C67.2344 336.984 66.4375 337.438 66.4375 338.172C66.4375 338.891 67.2344 339.391 68.5156 339.375C69.7969 339.391 70.6094 338.891 70.6094 338.172C70.6094 337.438 69.7969 336.984 68.5156 337ZM89.5625 333.375V341.656H88.3281V338.016H85.5312V337H88.3281V333.375H89.5625ZM84.9531 342.094C87.8438 342.094 89.6094 343.031 89.6094 344.672C89.6094 346.312 87.8438 347.25 84.9531 347.266C82.0625 347.25 80.2969 346.312 80.2969 344.672C80.2969 343.031 82.0625 342.094 84.9531 342.094ZM84.9531 343.047C82.8281 343.047 81.5 343.656 81.5156 344.672C81.5 345.672 82.8281 346.281 84.9531 346.281C87.0781 346.281 88.3906 345.672 88.3906 344.672C88.3906 343.656 87.0781 343.047 84.9531 343.047ZM82.875 335.922C82.875 337.734 84.2656 339.453 86.2969 340.156L85.6562 341.141C84.0938 340.578 82.8828 339.414 82.2969 337.969C81.6875 339.602 80.3984 340.906 78.75 341.531L78.1094 340.547C80.1719 339.797 81.6406 337.922 81.6406 335.938V335.422H78.5V334.391H85.9844V335.422H82.875V335.922Z" fill="#2B2B2B"/>
<path d="M63.2929 98.7071C63.6834 99.0976 64.3166 99.0976 64.7071 98.7071L71.0711 92.3431C71.4616 91.9526 71.4616 91.3195 71.0711 90.9289C70.6805 90.5384 70.0474 90.5384 69.6569 90.9289L64 96.5858L58.3431 90.9289C57.9526 90.5384 57.3195 90.5384 56.9289 90.9289C56.5384 91.3195 56.5384 91.9526 56.9289 92.3431L63.2929 98.7071ZM64 78L63 78L63 98L64 98L65 98L65 78L64 78Z" fill="#8F8F8F"/>
<path d="M63.2929 170.707C63.6834 171.098 64.3166 171.098 64.7071 170.707L71.0711 164.343C71.4616 163.953 71.4616 163.319 71.0711 162.929C70.6805 162.538 70.0474 162.538 69.6569 162.929L64 168.586L58.3431 162.929C57.9526 162.538 57.3195 162.538 56.9289 162.929C56.5384 163.319 56.5384 163.953 56.9289 164.343L63.2929 170.707ZM64 150L63 150L63 170L64 170L65 170L65 150L64 150Z" fill="#8F8F8F"/>
<path d="M239.293 170.707C239.683 171.098 240.317 171.098 240.707 170.707L247.071 164.343C247.462 163.953 247.462 163.319 247.071 162.929C246.681 162.538 246.047 162.538 245.657 162.929L240 168.586L234.343 162.929C233.953 162.538 233.319 162.538 232.929 162.929C232.538 163.319 232.538 163.953 232.929 164.343L239.293 170.707ZM240 150L239 150L239 170L240 170L241 170L241 150L240 150Z" fill="#162D55"/>
<path d="M63.2929 242.707C63.6834 243.098 64.3166 243.098 64.7071 242.707L71.0711 236.343C71.4616 235.953 71.4616 235.319 71.0711 234.929C70.6805 234.538 70.0474 234.538 69.6569 234.929L64 240.586L58.3431 234.929C57.9526 234.538 57.3195 234.538 56.9289 234.929C56.5384 235.319 56.5384 235.953 56.9289 236.343L63.2929 242.707ZM64 222L63 222L63 242L64 242L65 242L65 222L64 222Z" fill="#8F8F8F"/>
<path d="M63.2929 314.707C63.6834 315.098 64.3166 315.098 64.7071 314.707L71.0711 308.343C71.4616 307.953 71.4616 307.319 71.0711 306.929C70.6805 306.538 70.0474 306.538 69.6569 306.929L64 312.586L58.3431 306.929C57.9526 306.538 57.3195 306.538 56.9289 306.929C56.5384 307.319 56.5384 307.953 56.9289 308.343L63.2929 314.707ZM64 294L63 294L63 314L64 314L65 314L65 294L64 294Z" fill="#8F8F8F"/>
<path d="M415.293 314.707C415.683 315.098 416.317 315.098 416.707 314.707L423.071 308.343C423.462 307.953 423.462 307.319 423.071 306.929C422.681 306.538 422.047 306.538 421.657 306.929L416 312.586L410.343 306.929C409.953 306.538 409.319 306.538 408.929 306.929C408.538 307.319 408.538 307.953 408.929 308.343L415.293 314.707ZM416 294L415 294L415 314L416 314L417 314L417 294L416 294Z" fill="#000B1F"/>
<path d="M591.293 98.7071C591.683 99.0976 592.317 99.0976 592.707 98.7071L599.071 92.3431C599.462 91.9526 599.462 91.3195 599.071 90.9289C598.681 90.5384 598.047 90.5384 597.657 90.9289L592 96.5858L586.343 90.9289C585.953 90.5384 585.319 90.5384 584.929 90.9289C584.538 91.3195 584.538 91.9526 584.929 92.3431L591.293 98.7071ZM592 78L591 78L591 98L592 98L593 98L593 78L592 78Z" fill="#00454D"/>
<path d="M591.293 170.707C591.683 171.098 592.317 171.098 592.707 170.707L599.071 164.343C599.462 163.953 599.462 163.319 599.071 162.929C598.681 162.538 598.047 162.538 597.657 162.929L592 168.586L586.343 162.929C585.953 162.538 585.319 162.538 584.929 162.929C584.538 163.319 584.538 163.953 584.929 164.343L591.293 170.707ZM592 150L591 150L591 170L592 170L593 170L593 150L592 150Z" fill="#00454D"/>
<path d="M591.293 242.707C591.683 243.098 592.317 243.098 592.707 242.707L599.071 236.343C599.462 235.953 599.462 235.319 599.071 234.929C598.681 234.538 598.047 234.538 597.657 234.929L592 240.586L586.343 234.929C585.953 234.538 585.319 234.538 584.929 234.929C584.538 235.319 584.538 235.953 584.929 236.343L591.293 242.707ZM592 222L591 222L591 242L592 242L593 242L593 222L592 222Z" fill="#00454D"/>
<path d="M591.293 314.707C591.683 315.098 592.317 315.098 592.707 314.707L599.071 308.343C599.462 307.953 599.462 307.319 599.071 306.929C598.681 306.538 598.047 306.538 597.657 306.929L592 312.586L586.343 306.929C585.953 306.538 585.319 306.538 584.929 306.929C584.538 307.319 584.538 307.953 584.929 308.343L591.293 314.707ZM592 294L591 294L591 314L592 314L593 314L593 294L592 294Z" fill="#00454D"/>
<path d="M767.293 314.707C767.683 315.098 768.317 315.098 768.707 314.707L775.071 308.343C775.462 307.953 775.462 307.319 775.071 306.929C774.681 306.538 774.047 306.538 773.657 306.929L768 312.586L762.343 306.929C761.953 306.538 761.319 306.538 760.929 306.929C760.538 307.319 760.538 307.953 760.929 308.343L767.293 314.707ZM768 294L767 294L767 314L768 314L769 314L769 294L768 294Z" fill="#001F23"/>
<path d="M591.293 386.707C591.683 387.098 592.317 387.098 592.707 386.707L599.071 380.343C599.462 379.953 599.462 379.319 599.071 378.929C598.681 378.538 598.047 378.538 597.657 378.929L592 384.586L586.343 378.929C585.953 378.538 585.319 378.538 584.929 378.929C584.538 379.319 584.538 379.953 584.929 380.343L591.293 386.707ZM592 366L591 366L591 386L592 386L593 386L593 366L592 366Z" fill="#00454D"/>
<path d="M591.293 458.707C591.683 459.098 592.317 459.098 592.707 458.707L599.071 452.343C599.462 451.953 599.462 451.319 599.071 450.929C598.681 450.538 598.047 450.538 597.657 450.929L592 456.586L586.343 450.929C585.953 450.538 585.319 450.538 584.929 450.929C584.538 451.319 584.538 451.953 584.929 452.343L591.293 458.707ZM592 438L591 438L591 458L592 458L593 458L593 438L592 438Z" fill="#00454D"/>
<path d="M170.707 124.707C171.098 124.317 171.098 123.683 170.707 123.293L164.343 116.929C163.953 116.538 163.319 116.538 162.929 116.929C162.538 117.319 162.538 117.953 162.929 118.343L168.586 124L162.929 129.657C162.538 130.047 162.538 130.681 162.929 131.071C163.319 131.462 163.953 131.462 164.343 131.071L170.707 124.707ZM134 124L134 125L170 125L170 124L170 123L134 123L134 124Z" fill="#162D55"/>
<path d="M346.707 268.707C347.098 268.317 347.098 267.683 346.707 267.293L340.343 260.929C339.953 260.538 339.319 260.538 338.929 260.929C338.538 261.319 338.538 261.953 338.929 262.343L344.586 268L338.929 273.657C338.538 274.047 338.538 274.681 338.929 275.071C339.319 275.462 339.953 275.462 340.343 275.071L346.707 268.707ZM134 268L134 269L346 269L346 268L346 267L134 267L134 268Z" fill="#000B1F"/>
<path d="M170.707 196.707C171.098 196.317 171.098 195.683 170.707 195.293L164.343 188.929C163.953 188.538 163.319 188.538 162.929 188.929C162.538 189.319 162.538 189.953 162.929 190.343L168.586 196L162.929 201.657C162.538 202.047 162.538 202.681 162.929 203.071C163.319 203.462 163.953 203.462 164.343 203.071L170.707 196.707ZM152 196L152 197L170 197L170 196L170 195L152 195L152 196Z" fill="#162D55"/>
<path d="M698.707 268.707C699.098 268.317 699.098 267.683 698.707 267.293L692.343 260.929C691.953 260.538 691.319 260.538 690.929 260.929C690.538 261.319 690.538 261.953 690.929 262.343L696.586 268L690.929 273.657C690.538 274.047 690.538 274.681 690.929 275.071C691.319 275.462 691.953 275.462 692.343 275.071L698.707 268.707ZM662 268L662 269L698 269L698 268L698 267L662 267L662 268Z" fill="#001F23"/>
<line x1="153" y1="52" x2="153" y2="196" stroke="#162D55" stroke-width="2"/>
<line x1="681" y1="52" x2="681" y2="268" stroke="#001F23" stroke-width="2"/>
<path d="M17.0469 5.375V19.2656H15.8125V5.375H17.0469ZM12.9375 6.89062C12.9219 10.8906 11.0625 14.4219 6.40625 16.6562L5.73438 15.6562C9.49219 13.875 11.4062 11.2109 11.6875 7.89062H6.375V6.89062H12.9375ZM26.5156 7.10938C26.5 8.82812 28.8438 10.2344 31.2969 10.5469L30.8125 11.5469C28.5703 11.1953 26.4766 10.0859 25.7188 8.45312C24.9688 10.0859 22.8828 11.1953 20.625 11.5469L20.1719 10.5469C22.625 10.2344 24.9219 8.82812 24.9219 7.10938V7.07812H20.5469V6.0625H30.9219V7.07812H26.5156V7.10938ZM30.6406 17.9375V18.9688H21.0312V15.0156H22.2656V17.9375H30.6406ZM32.0938 12.875V13.8906H19.3906V12.875H25.1094V10.5469H26.3125V12.875H32.0938ZM48.2188 6.28125V7.5C48.2188 8.82031 48.2188 10.25 47.8281 12.25H49.8906V13.2656H44.1562V19.2969H42.9219V13.2656H37.2344V12.25H46.5781C47 10.25 47 8.78906 47 7.5V7.29688H38.8281V6.28125H48.2188ZM62.9688 5.375V19.2656H61.7812V11.9062H59.8438V18.5625H58.6719V5.67188H59.8438V10.8906H61.7812V5.375H62.9688ZM56.8906 7V15.5312H51.5781V7H56.8906ZM52.7344 7.98438V14.5469H55.7344V7.98438H52.7344ZM81.625 16.4375V17.4844H68.9062V16.4375H81.625ZM80.4062 6.78125V7.79688H78.2031V12.6562H80.375V13.6562H70.0625V12.6562H72.2344V7.79688H70.0312V6.78125H80.4062ZM73.4531 12.6562H77V7.79688H73.4531V12.6562ZM95.4531 16.5156V17.5469H82.7344V16.5156H88.4531V13.8906H84.3281V9.60938H92.6406V7.42188H84.2969V6.40625H93.8438V10.6094H85.5469V12.875H94.1719V13.8906H89.6562V16.5156H95.4531ZM100.688 9.32812C100.688 11.5312 101.766 13.9219 103.609 15.0156L102.906 15.9688C101.57 15.1562 100.609 13.6719 100.125 11.9844C99.6094 13.8281 98.5781 15.4141 97.1875 16.2656L96.4062 15.3438C98.3281 14.2188 99.5 11.75 99.5 9.375V6.6875H100.688V9.32812ZM108.469 5.375V19.2656H107.281V5.375H108.469ZM105.594 5.67188V18.5625H104.438V11.4062H102.078V10.3594H104.438V5.67188H105.594ZM117.312 7.42188C117.312 9.79688 120.031 11.9219 122.453 12.375L121.891 13.4062C119.797 12.9219 117.586 11.4297 116.688 9.375C115.789 11.4219 113.586 12.9141 111.484 13.4062L110.922 12.375C113.328 11.9062 116.031 9.8125 116.031 7.42188V6.35938H117.312V7.42188ZM123.109 16.3594V17.375H110.391V16.3594H123.109Z" fill="#666666"/>
<path d="M219.578 79.3438C219.562 81.2031 222.047 82.7812 224.469 83.1406L224.016 84.1094C221.844 83.7422 219.734 82.5859 218.891 80.9062C218.047 82.5859 215.93 83.7422 213.797 84.1094L213.312 83.1406C215.719 82.7812 218.203 81.2031 218.203 79.3438V79.25H213.75V78.25H224.016V79.25H219.578V79.3438ZM225.219 85.2969V86.3125H219.469V91.2656H218.266V86.3125H212.562V85.2969H225.219ZM239.094 84.4844V85.5H233.438V88.3438H232.219V85.5H226.375V84.4844H239.094ZM237.438 78.0625V82.8906H228.031V78.0625H237.438ZM229.234 79.0312V81.9062H236.219V79.0312H229.234ZM237.672 89.9375V90.9688H228V86.9688H229.234V89.9375H237.672ZM245.453 80C245.453 81.4062 246.844 82.5938 248.812 83.0312L248.312 84.0156C246.711 83.625 245.477 82.7734 244.875 81.6406C244.273 82.8672 243.023 83.7969 241.375 84.2031L240.844 83.2188C242.844 82.7812 244.234 81.4844 244.234 80V79.9375H241.141V78.9688H244.234V77.4219H245.453V78.9688H248.547V79.9375H245.453V80ZM251.672 77.3906V91.2812H250.469V77.3906H251.672ZM240.188 85.1875C242.844 85.1875 246.375 85.1562 249.453 84.7656L249.531 85.6562C248.203 85.875 246.828 86.0078 245.484 86.0781V90.8594H244.266V86.1406C242.859 86.2109 241.523 86.2188 240.359 86.2188L240.188 85.1875ZM266.766 88.4375V89.4531H254.047V88.4375H259.734V85.0312H260.938V88.4375H266.766ZM260.969 79.3906C260.969 81.7188 263.719 83.75 266.141 84.1719L265.594 85.1875C263.477 84.7578 261.242 83.3203 260.344 81.3125C259.43 83.3125 257.211 84.7578 255.094 85.1875L254.547 84.1719C256.969 83.75 259.688 81.7188 259.688 79.3906V78.3281H260.969V79.3906Z" fill="#666666"/>
<path d="M583.75 18H582.281L586.422 6.6875H587.906L592.047 18H590.562L589.438 14.8125H584.891L583.75 18ZM585.312 13.5781H589L587.203 8.51562H587.109L585.312 13.5781ZM599.734 9.53125C599.609 8.42188 598.594 7.78125 597.234 7.78125C595.734 7.78125 594.75 8.5625 594.75 9.64062C594.75 10.8281 596.078 11.2656 596.938 11.4844L598.062 11.7969C599.281 12.1094 601.266 12.8125 601.266 14.9219C601.266 16.7656 599.781 18.2031 597.156 18.2031C594.719 18.2031 593.203 16.9375 593.078 15.0625H594.516C594.641 16.3281 595.812 16.9219 597.156 16.9219C598.719 16.9219 599.891 16.125 599.891 14.8906C599.891 13.7969 598.844 13.375 597.656 13.0312L596.266 12.6562C594.484 12.1406 593.391 11.2344 593.391 9.70312C593.391 7.79688 595.094 6.53125 597.281 6.53125C599.469 6.53125 601.047 7.8125 601.109 9.53125H599.734Z" fill="#666666"/>
<path d="M745.75 234H744.281L748.422 222.688H749.906L754.047 234H752.562L751.438 230.812H746.891L745.75 234ZM747.312 229.578H751L749.203 224.516H749.109L747.312 229.578ZM761.734 225.531C761.609 224.422 760.594 223.781 759.234 223.781C757.734 223.781 756.75 224.562 756.75 225.641C756.75 226.828 758.078 227.266 758.938 227.484L760.062 227.797C761.281 228.109 763.266 228.812 763.266 230.922C763.266 232.766 761.781 234.203 759.156 234.203C756.719 234.203 755.203 232.938 755.078 231.062H756.516C756.641 232.328 757.812 232.922 759.156 232.922C760.719 232.922 761.891 232.125 761.891 230.891C761.891 229.797 760.844 229.375 759.656 229.031L758.266 228.656C756.484 228.141 755.391 227.234 755.391 225.703C755.391 223.797 757.094 222.531 759.281 222.531C761.469 222.531 763.047 223.812 763.109 225.531H761.734ZM769.828 224C769.828 225.406 771.219 226.594 773.188 227.031L772.688 228.016C771.086 227.625 769.852 226.773 769.25 225.641C768.648 226.867 767.398 227.797 765.75 228.203L765.219 227.219C767.219 226.781 768.609 225.484 768.609 224V223.938H765.516V222.969H768.609V221.422H769.828V222.969H772.922V223.938H769.828V224ZM776.047 221.391V235.281H774.844V221.391H776.047ZM764.562 229.188C767.219 229.188 770.75 229.156 773.828 228.766L773.906 229.656C772.578 229.875 771.203 230.008 769.859 230.078V234.859H768.641V230.141C767.234 230.211 765.898 230.219 764.734 230.219L764.562 229.188ZM791.141 232.438V233.453H778.422V232.438H784.109V229.031H785.312V232.438H791.141ZM785.344 223.391C785.344 225.719 788.094 227.75 790.516 228.172L789.969 229.188C787.852 228.758 785.617 227.32 784.719 225.312C783.805 227.312 781.586 228.758 779.469 229.188L778.922 228.172C781.344 227.75 784.062 225.719 784.062 223.391V222.328H785.344V223.391Z" fill="#666666"/>
<path d="M413.422 221.391V225.594H415.516V226.625H413.422V231.594H412.203V221.391H413.422ZM414.062 233.938V234.969H404.734V230.594H405.938V233.938H414.062ZM404.359 222.391V224.734H408.406V222.391H409.625V229.25H403.156V222.391H404.359ZM404.359 228.25H408.406V225.703H404.359V228.25ZM429.047 228.094V229.109H423.312V230.75H427.5V235.078H417.938V230.75H422.109V229.109H416.391V228.094H429.047ZM427.844 221.828V222.844H425.703V225.766H427.797V226.781H417.625V225.766H419.719V222.844H417.578V221.828H427.844ZM419.156 231.719V234.078H426.297V231.719H419.156ZM420.938 225.766H424.484V222.844H420.938V225.766Z" fill="#666666"/>
</svg>
