<svg width="432" height="324" viewBox="0 0 432 324" fill="none" xmlns="http://www.w3.org/2000/svg">
<line x1="64" y1="19.5" x2="216" y2="19.5" stroke="#009896"/>
<line x1="64" y1="135.5" x2="216" y2="135.5" stroke="#009896"/>
<line x1="64" y1="251.5" x2="216" y2="251.5" stroke="#009896"/>
<line x1="216" y1="19.5" x2="368" y2="19.5" stroke="#AFAFAF"/>
<line x1="292" y1="71.5" x2="368" y2="71.5" stroke="#AFAFAF"/>
<line x1="140" y1="71.5" x2="216" y2="71.5" stroke="#009896"/>
<line x1="140" y1="187.5" x2="216" y2="187.5" stroke="#009896"/>
<line x1="140" y1="303.5" x2="216" y2="303.5" stroke="#009896"/>
<line x1="139.5" y1="72" x2="139.5" y2="20" stroke="#009896"/>
<line x1="139.5" y1="188" x2="139.5" y2="136" stroke="#009896"/>
<line x1="139.5" y1="304" x2="139.5" y2="252" stroke="#009896"/>
<line x1="291.5" y1="72" x2="291.5" y2="20" stroke="#AFAFAF"/>
<rect width="128" height="40" rx="4" fill="#009896"/>
<path d="M41.2031 15.625C41.2031 17.5156 42.6406 19.25 44.6562 19.9375L43.9844 20.9062C42.4453 20.3438 41.2344 19.1953 40.625 17.75C40.0312 19.3828 38.7969 20.6719 37.1719 21.2969L36.5156 20.3125C38.5938 19.5312 39.9844 17.6719 40 15.5312V14.0938H41.2031V15.625ZM47.4219 13.375V17H49.5156V18.0312H47.4219V21.8281H46.2031V13.375H47.4219ZM42.9688 22.1875C45.8281 22.1875 47.5469 23.1094 47.5469 24.7031C47.5469 26.3281 45.8281 27.2344 42.9688 27.2344C40.1094 27.2344 38.3594 26.3281 38.3594 24.7031C38.3594 23.1094 40.1094 22.1875 42.9688 22.1875ZM42.9688 23.1719C40.875 23.1719 39.5781 23.75 39.5938 24.7031C39.5781 25.6875 40.875 26.25 42.9688 26.2656C45.0781 26.25 46.3594 25.6875 46.3594 24.7031C46.3594 23.75 45.0781 23.1719 42.9688 23.1719ZM56.4531 14.9844V15.9844H52.125V18.6562H56.25V19.6406H52.125V22.7812C54.1875 22.7734 55.4609 22.7188 56.9844 22.4375L57.0938 23.4531C55.4688 23.7656 54.125 23.8281 51.8438 23.8281H50.9531V14.9844H56.4531ZM62.2969 13.375V27.2656H61.1094V19.9844H59.2031V26.5625H58.0156V13.6719H59.2031V18.9688H61.1094V13.375H62.2969ZM75.7344 13.375V21.6562H74.5V18.0156H71.7031V17H74.5V13.375H75.7344ZM71.125 22.0938C74.0156 22.0938 75.7812 23.0312 75.7812 24.6719C75.7812 26.3125 74.0156 27.25 71.125 27.2656C68.2344 27.25 66.4688 26.3125 66.4688 24.6719C66.4688 23.0312 68.2344 22.0938 71.125 22.0938ZM71.125 23.0469C69 23.0469 67.6719 23.6562 67.6875 24.6719C67.6719 25.6719 69 26.2812 71.125 26.2812C73.25 26.2812 74.5625 25.6719 74.5625 24.6719C74.5625 23.6562 73.25 23.0469 71.125 23.0469ZM69.0469 15.9219C69.0469 17.7344 70.4375 19.4531 72.4688 20.1562L71.8281 21.1406C70.2656 20.5781 69.0547 19.4141 68.4688 17.9688C67.8594 19.6016 66.5703 20.9062 64.9219 21.5312L64.2812 20.5469C66.3438 19.7969 67.8125 17.9219 67.8125 15.9375V15.4219H64.6719V14.3906H72.1562V15.4219H69.0469V15.9219ZM90.7656 24.4688V25.4844H78.0469V24.4688H83.7656V21.4688H79.5469V14.3594H80.7812V16.875H88V14.3594H89.2031V21.4688H84.9688V24.4688H90.7656ZM80.7812 20.4688H88V17.875H80.7812V20.4688Z" fill="white"/>
<rect x="152" width="128" height="40" rx="4" fill="#D8EBEA"/>
<path d="M193.266 16.0156C193.266 17.8281 194.625 19.4531 196.672 20.125L196.094 21.0938C194.492 20.5703 193.281 19.4609 192.688 18.0625C192.086 19.6562 190.805 20.8984 189.141 21.5L188.516 20.5156C190.594 19.8125 192.047 18.0156 192.062 16.0156V15.4219H188.891V14.4062H196.391V15.4219H193.266V16.0156ZM199.422 13.375V16.9219H201.516V17.9531H199.422V21.7656H198.203V13.375H199.422ZM194.969 22.1406C197.828 22.1406 199.547 23.0781 199.547 24.6719C199.547 26.2969 197.828 27.2344 194.969 27.2344C192.109 27.2344 190.359 26.2969 190.359 24.6719C190.359 23.0781 192.109 22.1406 194.969 22.1406ZM194.969 23.125C192.875 23.125 191.578 23.7031 191.594 24.6719C191.578 25.6719 192.875 26.25 194.969 26.25C197.078 26.25 198.359 25.6719 198.359 24.6719C198.359 23.7031 197.078 23.125 194.969 23.125ZM205.547 14.5469C207.359 14.5469 208.531 16.4219 208.547 19.375C208.531 22.3281 207.359 24.2031 205.547 24.2031C203.734 24.2031 202.562 22.3281 202.562 19.375C202.562 16.4219 203.734 14.5469 205.547 14.5469ZM205.547 15.7031C204.422 15.7031 203.703 17.1094 203.719 19.375C203.703 21.625 204.422 23.0469 205.547 23.0312C206.672 23.0469 207.391 21.625 207.391 19.375C207.391 17.1094 206.672 15.7031 205.547 15.7031ZM214.297 13.375V27.2656H213.109V19.9062H211.172V26.5625H210V13.6719H211.172V18.8906H213.109V13.375H214.297ZM227.734 13.3906V23.9844H226.5V21H224.094V20H226.5V18.1094H224.094V17.0938H226.5V13.3906H227.734ZM224.094 15.0938V16.0938H216.234V15.0938H219.609V13.375H220.828V15.0938H224.094ZM220.203 16.8594C222.062 16.8594 223.375 17.9219 223.375 19.5156C223.375 21.0938 222.062 22.1719 220.203 22.1719C218.344 22.1719 217.047 21.0938 217.062 19.5156C217.047 17.9219 218.344 16.8594 220.203 16.8594ZM220.203 17.8281C219.016 17.8438 218.203 18.5156 218.203 19.5156C218.203 20.5156 219.016 21.1875 220.203 21.1875C221.391 21.1875 222.203 20.5156 222.219 19.5156C222.203 18.5156 221.391 17.8438 220.203 17.8281ZM228.047 25.9375V26.9688H218.75V23.0469H219.984V25.9375H228.047ZM240.891 13.3906V17.5781H242.969V18.6094H240.891V22.8125H239.656V13.3906H240.891ZM236.406 22.9844C239.297 22.9688 240.969 23.7344 240.984 25.125C240.969 26.5156 239.297 27.25 236.406 27.2656C233.5 27.25 231.844 26.5156 231.844 25.125C231.844 23.7344 233.5 22.9688 236.406 22.9844ZM236.406 23.9062C234.266 23.8906 233.062 24.3438 233.078 25.125C233.062 25.875 234.266 26.3281 236.406 26.3281C238.531 26.3281 239.734 25.875 239.734 25.125C239.734 24.3438 238.531 23.8906 236.406 23.9062ZM229.984 21.1875C231.102 21.1875 232.398 21.1797 233.75 21.1406V20.0312C232.125 19.8984 231.094 19.1719 231.094 18.0781C231.094 16.8438 232.375 16.1094 234.344 16.1094C236.328 16.1094 237.594 16.8438 237.609 18.0781C237.594 19.1641 236.594 19.8906 234.969 20.0312V21.0781C236.273 21.0234 237.586 20.9219 238.797 20.75L238.906 21.6094C235.922 22.125 232.594 22.1719 230.125 22.1719L229.984 21.1875ZM238.375 14.5781V15.5312H230.328V14.5781H233.75V13.2656H234.969V14.5781H238.375ZM234.344 16.9688C233.062 16.9688 232.266 17.4062 232.266 18.0781C232.266 18.7812 233.062 19.2031 234.344 19.2031C235.625 19.2031 236.438 18.7812 236.438 18.0781C236.438 17.4062 235.625 16.9688 234.344 16.9688Z" fill="#004747"/>
<rect x="152" y="116" width="128" height="40" rx="4" fill="#D8EBEA"/>
<path d="M183.812 129.375V135.031H186.062V136.062H183.812V143.266H182.594V129.375H183.812ZM180.219 130.875C180.219 134.812 178.375 138.391 173.844 140.625L173.156 139.656C176.75 137.867 178.703 135.195 178.984 131.906H173.797V130.875H180.219ZM199.562 136.25V137.234H186.891V136.25H192.625V134.625H188.5V130.031H197.984V131.016H189.703V133.625H198.078V134.625H193.812V136.25H199.562ZM193.219 138.25C196.203 138.25 197.984 139.156 198 140.75C197.984 142.359 196.203 143.25 193.219 143.266C190.219 143.25 188.422 142.359 188.422 140.75C188.422 139.156 190.219 138.25 193.219 138.25ZM193.219 139.219C190.984 139.219 189.656 139.797 189.672 140.75C189.656 141.719 190.984 142.281 193.219 142.281C195.422 142.281 196.766 141.719 196.766 140.75C196.766 139.797 195.422 139.219 193.219 139.219ZM205.359 131.625C205.359 133.516 206.797 135.25 208.812 135.938L208.141 136.906C206.602 136.344 205.391 135.195 204.781 133.75C204.188 135.383 202.953 136.672 201.328 137.297L200.672 136.312C202.75 135.531 204.141 133.672 204.156 131.531V130.094H205.359V131.625ZM211.578 129.375V133H213.672V134.031H211.578V137.828H210.359V129.375H211.578ZM207.125 138.188C209.984 138.188 211.703 139.109 211.703 140.703C211.703 142.328 209.984 143.234 207.125 143.234C204.266 143.234 202.516 142.328 202.516 140.703C202.516 139.109 204.266 138.188 207.125 138.188ZM207.125 139.172C205.031 139.172 203.734 139.75 203.75 140.703C203.734 141.688 205.031 142.25 207.125 142.266C209.234 142.25 210.516 141.688 210.516 140.703C210.516 139.75 209.234 139.172 207.125 139.172ZM220.609 130.984V131.984H216.281V134.656H220.406V135.641H216.281V138.781C218.344 138.773 219.617 138.719 221.141 138.438L221.25 139.453C219.625 139.766 218.281 139.828 216 139.828H215.109V130.984H220.609ZM226.453 129.375V143.266H225.266V135.984H223.359V142.562H222.172V129.672H223.359V134.969H225.266V129.375H226.453ZM245.109 140.453V141.484H232.391V140.453H235.547V136.703C234.359 136.086 233.641 135.086 233.641 133.828C233.641 131.672 235.75 130.266 238.719 130.25C241.688 130.266 243.797 131.672 243.797 133.828C243.797 135.062 243.102 136.055 241.953 136.672V140.453H245.109ZM238.719 131.266C236.438 131.25 234.828 132.281 234.828 133.828C234.828 135.375 236.438 136.422 238.719 136.422C240.984 136.422 242.609 135.375 242.609 133.828C242.609 132.281 240.984 131.25 238.719 131.266ZM236.75 140.453H240.719V137.141C240.117 137.305 239.445 137.391 238.719 137.391C238.008 137.391 237.344 137.312 236.75 137.156V140.453ZM259.141 131.531V132.531H257.078V134.484H259.141V135.531H257.078V137.641H255.859V129.375H257.078V131.531H259.141ZM257.078 138.281V143.266H255.859V139.297H247.984V138.281H257.078ZM250.125 130.219C252.234 130.203 253.766 131.562 253.781 133.484C253.766 135.438 252.234 136.781 250.125 136.781C248.016 136.781 246.469 135.438 246.484 133.484C246.469 131.562 248.016 130.203 250.125 130.219ZM250.125 131.266C248.719 131.266 247.672 132.172 247.688 133.484C247.672 134.812 248.719 135.734 250.125 135.719C251.547 135.734 252.578 134.812 252.578 133.484C252.578 132.172 251.547 131.266 250.125 131.266Z" fill="#004747"/>
<rect x="152" y="232" width="128" height="40" rx="4" fill="#D8EBEA"/>
<path d="M181.359 245.969V247.969H185.406V245.969H186.625V252.016H180.156V245.969H181.359ZM181.359 251.016H185.406V248.922H181.359V251.016ZM190.422 245.375V248.391H192.516V249.422H190.422V252.562H189.203V245.375H190.422ZM190.422 253.219V256.578H182.797V258.109H190.938V259.109H181.594V255.641H189.203V254.203H181.562V253.219H190.422ZM204.906 245.391V255.578H203.672V250.25H200.812V249.234H203.672V245.391H204.906ZM205.297 257.938V258.969H195.984V254.656H197.219V257.938H205.297ZM198.219 248.25C198.219 250.047 199.609 251.797 201.641 252.484L201 253.469C199.43 252.906 198.219 251.734 197.625 250.297C197.023 251.898 195.742 253.18 194.094 253.797L193.453 252.797C195.5 252.078 196.984 250.25 196.984 248.25V247.531H193.844V246.516H201.328V247.531H198.219V248.25ZM220.188 247.562V248.594H218.078V250.484H220.188V251.531H218.078V253.797H216.859V245.391H218.078V247.562H220.188ZM214.109 246.25V250H209.047V251.938C211.516 251.938 213.305 251.852 215.469 251.484L215.594 252.516C213.359 252.891 211.5 252.969 208.922 252.969H207.844V249.031H212.906V247.266H207.812V246.25H214.109ZM213.625 254.203C216.453 254.203 218.203 255.141 218.203 256.734C218.203 258.328 216.453 259.234 213.625 259.234C210.75 259.234 209.016 258.328 209.016 256.734C209.016 255.141 210.75 254.203 213.625 254.203ZM213.625 255.172C211.5 255.172 210.203 255.75 210.219 256.734C210.203 257.703 211.5 258.281 213.625 258.281C215.734 258.281 217.016 257.703 217.016 256.734C217.016 255.75 215.734 255.172 213.625 255.172ZM237.719 253.781V254.812H231.984V259.297H230.781V254.812H225.062V253.781H237.719ZM232 248.125C232 249.859 234.422 251.375 236.906 251.719L236.453 252.703C234.305 252.375 232.281 251.297 231.406 249.781C230.516 251.312 228.461 252.375 226.312 252.703L225.859 251.719C228.328 251.375 230.781 249.875 230.781 248.125V248.109H226.297V247.109H230.781V245.375H231.984V247.109H236.5V248.109H232V248.125ZM250.344 245.375V259.297H249.109V245.375H250.344ZM242.953 246.453C245.016 246.469 246.5 248.344 246.5 251.297C246.5 254.25 245.016 256.125 242.953 256.125C240.875 256.125 239.406 254.25 239.406 251.297C239.406 248.344 240.875 246.469 242.953 246.453ZM242.953 247.547C241.562 247.562 240.594 249.031 240.594 251.297C240.594 253.562 241.562 255.031 242.953 255.031C244.344 255.031 245.312 253.562 245.312 251.297C245.312 249.031 244.344 247.562 242.953 247.547Z" fill="#004747"/>
<rect x="152" y="168" width="128" height="40" rx="4" fill="#D8EBEA"/>
<path d="M183.812 181.375V187.031H186.062V188.062H183.812V195.266H182.594V181.375H183.812ZM180.219 182.875C180.219 186.812 178.375 190.391 173.844 192.625L173.156 191.656C176.75 189.867 178.703 187.195 178.984 183.906H173.797V182.875H180.219ZM199.562 188.25V189.234H186.891V188.25H192.625V186.625H188.5V182.031H197.984V183.016H189.703V185.625H198.078V186.625H193.812V188.25H199.562ZM193.219 190.25C196.203 190.25 197.984 191.156 198 192.75C197.984 194.359 196.203 195.25 193.219 195.266C190.219 195.25 188.422 194.359 188.422 192.75C188.422 191.156 190.219 190.25 193.219 190.25ZM193.219 191.219C190.984 191.219 189.656 191.797 189.672 192.75C189.656 193.719 190.984 194.281 193.219 194.281C195.422 194.281 196.766 193.719 196.766 192.75C196.766 191.797 195.422 191.219 193.219 191.219ZM209.375 183.625C209.375 185.516 210.812 187.25 212.828 187.938L212.156 188.906C210.617 188.344 209.406 187.195 208.797 185.75C208.203 187.383 206.969 188.672 205.344 189.297L204.688 188.312C206.766 187.531 208.156 185.672 208.172 183.531V182.094H209.375V183.625ZM215.594 181.375V185H217.688V186.031H215.594V189.828H214.375V181.375H215.594ZM211.141 190.188C214 190.188 215.719 191.109 215.719 192.703C215.719 194.328 214 195.234 211.141 195.234C208.281 195.234 206.531 194.328 206.531 192.703C206.531 191.109 208.281 190.188 211.141 190.188ZM211.141 191.172C209.047 191.172 207.75 191.75 207.766 192.703C207.75 193.688 209.047 194.25 211.141 194.266C213.25 194.25 214.531 193.688 214.531 192.703C214.531 191.75 213.25 191.172 211.141 191.172ZM222.688 185.328C222.688 187.531 223.766 189.922 225.609 191.016L224.906 191.969C223.57 191.156 222.609 189.672 222.125 187.984C221.609 189.828 220.578 191.414 219.188 192.266L218.406 191.344C220.328 190.219 221.5 187.75 221.5 185.375V182.688H222.688V185.328ZM230.469 181.375V195.266H229.281V181.375H230.469ZM227.594 181.672V194.562H226.438V187.406H224.078V186.359H226.438V181.672H227.594ZM237.359 185.641C237.359 188 239.078 190.391 241.125 191.281L240.438 192.25C238.812 191.508 237.406 189.906 236.766 187.984C236.109 190.023 234.711 191.797 233.125 192.594L232.391 191.625C234.375 190.672 236.109 188.047 236.125 185.641V183.828H232.844V182.812H240.672V183.828H237.359V185.641ZM243.844 181.375V195.266H242.609V181.375H243.844ZM258.938 192.547V193.562H246.219V192.547H249.766V189.234H247.375V188.219H249.547V183.688H247.344V182.672H257.719V183.688H255.516V188.219H257.688V189.234H255.297V192.547H258.938ZM250.766 188.219H254.312V183.688H250.766V188.219ZM251 192.547H254.078V189.234H251V192.547Z" fill="#004747"/>
<rect x="152" y="284" width="128" height="40" rx="4" fill="#D8EBEA"/>
<path d="M174.859 297.969V299.969H178.906V297.969H180.125V304.016H173.656V297.969H174.859ZM174.859 303.016H178.906V300.922H174.859V303.016ZM183.922 297.375V300.391H186.016V301.422H183.922V304.562H182.703V297.375H183.922ZM183.922 305.219V308.578H176.297V310.109H184.438V311.109H175.094V307.641H182.703V306.203H175.062V305.219H183.922ZM198.406 297.391V307.578H197.172V302.25H194.312V301.234H197.172V297.391H198.406ZM198.797 309.938V310.969H189.484V306.656H190.719V309.938H198.797ZM191.719 300.25C191.719 302.047 193.109 303.797 195.141 304.484L194.5 305.469C192.93 304.906 191.719 303.734 191.125 302.297C190.523 303.898 189.242 305.18 187.594 305.797L186.953 304.797C189 304.078 190.484 302.25 190.484 300.25V299.531H187.344V298.516H194.828V299.531H191.719V300.25ZM209.516 299.562C209.5 301.547 210.906 303.297 212.953 303.984L212.266 304.938C210.734 304.359 209.531 303.234 208.938 301.766C208.336 303.43 207.062 304.727 205.391 305.359L204.719 304.359C206.859 303.609 208.281 301.766 208.297 299.609V298.172H209.516V299.562ZM216.25 297.375V305.609H215.016V301.375H211.922V300.359H215.016V297.375H216.25ZM211.641 306.016C214.531 306.016 216.297 306.969 216.297 308.641C216.297 310.297 214.531 311.234 211.641 311.234C208.75 311.234 206.984 310.297 206.984 308.641C206.984 306.969 208.75 306.016 211.641 306.016ZM211.641 306.984C209.516 306.984 208.188 307.609 208.203 308.641C208.188 309.641 209.516 310.25 211.641 310.25C213.766 310.25 215.078 309.641 215.078 308.641C215.078 307.609 213.766 306.984 211.641 306.984ZM226.266 298.922V299.641C226.25 300.734 226.25 302.578 225.859 305.156L224.625 305.047C225 302.719 225.031 301.031 225.031 299.922H219.203V298.922H226.266ZM222.625 302.891V307.109C224.164 307.055 225.742 306.953 227.188 306.781L227.25 307.703C224.328 308.156 221.062 308.219 218.578 308.203L218.422 307.188C219.336 307.18 220.352 307.172 221.422 307.141V302.891H222.625ZM229.281 297.375V303.188H231.531V304.25H229.281V311.266H228.062V297.375H229.281ZM237.359 301.641C237.359 304 239.078 306.391 241.125 307.281L240.438 308.25C238.812 307.508 237.406 305.906 236.766 303.984C236.109 306.023 234.711 307.797 233.125 308.594L232.391 307.625C234.375 306.672 236.109 304.047 236.125 301.641V299.828H232.844V298.812H240.672V299.828H237.359V301.641ZM243.844 297.375V311.266H242.609V297.375H243.844ZM258.938 308.547V309.562H246.219V308.547H249.766V305.234H247.375V304.219H249.547V299.688H247.344V298.672H257.719V299.688H255.516V304.219H257.688V305.234H255.297V308.547H258.938ZM250.766 304.219H254.312V299.688H250.766V304.219ZM251 308.547H254.078V305.234H251V308.547Z" fill="#004747"/>
<rect x="304" width="128" height="40" rx="4" fill="#F6F6F9"/>
<path d="M345.266 16.0156C345.266 17.8281 346.625 19.4531 348.672 20.125L348.094 21.0938C346.492 20.5703 345.281 19.4609 344.688 18.0625C344.086 19.6562 342.805 20.8984 341.141 21.5L340.516 20.5156C342.594 19.8125 344.047 18.0156 344.062 16.0156V15.4219H340.891V14.4062H348.391V15.4219H345.266V16.0156ZM351.422 13.375V16.9219H353.516V17.9531H351.422V21.7656H350.203V13.375H351.422ZM346.969 22.1406C349.828 22.1406 351.547 23.0781 351.547 24.6719C351.547 26.2969 349.828 27.2344 346.969 27.2344C344.109 27.2344 342.359 26.2969 342.359 24.6719C342.359 23.0781 344.109 22.1406 346.969 22.1406ZM346.969 23.125C344.875 23.125 343.578 23.7031 343.594 24.6719C343.578 25.6719 344.875 26.25 346.969 26.25C349.078 26.25 350.359 25.6719 350.359 24.6719C350.359 23.7031 349.078 23.125 346.969 23.125ZM357.547 14.5469C359.359 14.5469 360.531 16.4219 360.547 19.375C360.531 22.3281 359.359 24.2031 357.547 24.2031C355.734 24.2031 354.562 22.3281 354.562 19.375C354.562 16.4219 355.734 14.5469 357.547 14.5469ZM357.547 15.7031C356.422 15.7031 355.703 17.1094 355.719 19.375C355.703 21.625 356.422 23.0469 357.547 23.0312C358.672 23.0469 359.391 21.625 359.391 19.375C359.391 17.1094 358.672 15.7031 357.547 15.7031ZM366.297 13.375V27.2656H365.109V19.9062H363.172V26.5625H362V13.6719H363.172V18.8906H365.109V13.375H366.297ZM370.016 13.9688V15.9688H374.062V13.9688H375.281V20.0156H368.812V13.9688H370.016ZM370.016 19.0156H374.062V16.9219H370.016V19.0156ZM379.078 13.375V16.3906H381.172V17.4219H379.078V20.5625H377.859V13.375H379.078ZM379.078 21.2188V24.5781H371.453V26.1094H379.594V27.1094H370.25V23.6406H377.859V22.2031H370.219V21.2188H379.078ZM386.188 16.1406C386.188 17.6719 387.266 19.2344 389.047 19.9062L388.406 20.8438C387.07 20.3281 386.109 19.3359 385.609 18.1406C385.094 19.4688 384.102 20.6484 382.734 21.2344L382.062 20.2812C383.891 19.4844 385.016 17.6875 385.016 16.1406V14.25H386.188V16.1406ZM393.844 13.3906V21.9688H392.672V18.1406H390.828V21.5312H389.672V13.6562H390.828V17.125H392.672V13.3906H393.844ZM389.25 22.2812C392.125 22.2812 393.922 23.1875 393.922 24.7656C393.922 26.3281 392.125 27.2344 389.25 27.2344C386.359 27.2344 384.578 26.3281 384.594 24.7656C384.578 23.1875 386.359 22.2812 389.25 22.2812ZM389.25 23.2188C387.125 23.2188 385.797 23.7969 385.812 24.7656C385.797 25.7188 387.125 26.2812 389.25 26.2812C391.359 26.2812 392.688 25.7188 392.703 24.7656C392.688 23.7969 391.359 23.2188 389.25 23.2188Z" fill="#2B2B2B"/>
<rect x="304" y="52" width="128" height="40" rx="4" fill="#F6F6F9"/>
<path d="M345.75 78H344.281L348.422 66.6875H349.906L354.047 78H352.562L351.438 74.8125H346.891L345.75 78ZM347.312 73.5781H351L349.203 68.5156H349.109L347.312 73.5781ZM361.734 69.5312C361.609 68.4219 360.594 67.7812 359.234 67.7812C357.734 67.7812 356.75 68.5625 356.75 69.6406C356.75 70.8281 358.078 71.2656 358.938 71.4844L360.062 71.7969C361.281 72.1094 363.266 72.8125 363.266 74.9219C363.266 76.7656 361.781 78.2031 359.156 78.2031C356.719 78.2031 355.203 76.9375 355.078 75.0625H356.516C356.641 76.3281 357.812 76.9219 359.156 76.9219C360.719 76.9219 361.891 76.125 361.891 74.8906C361.891 73.7969 360.844 73.375 359.656 73.0312L358.266 72.6562C356.484 72.1406 355.391 71.2344 355.391 69.7031C355.391 67.7969 357.094 66.5312 359.281 66.5312C361.469 66.5312 363.047 67.8125 363.109 69.5312H361.734ZM376.5 65.375V79.2656H375.312V65.375H376.5ZM373.734 65.6719V78.5625H372.562V74H370.344C369.859 75.3906 368.938 76.2031 367.75 76.2031C365.938 76.2031 364.766 74.3281 364.766 71.375C364.766 68.4219 365.938 66.5469 367.75 66.5469C368.938 66.5469 369.859 67.3594 370.344 68.75H372.562V65.6719H373.734ZM367.75 67.7031C366.609 67.7031 365.906 69.1094 365.906 71.375C365.906 73.625 366.609 75.0469 367.75 75.0312C368.875 75.0469 369.609 73.625 369.609 71.375C369.609 69.1094 368.875 67.7031 367.75 67.7031ZM370.609 69.7656C370.703 70.2578 370.75 70.7969 370.75 71.375C370.75 71.9453 370.703 72.4844 370.625 72.9688H372.562V69.7656H370.609ZM389.938 65.375V73.6562H388.703V70.0156H385.906V69H388.703V65.375H389.938ZM385.328 74.0938C388.219 74.0938 389.984 75.0312 389.984 76.6719C389.984 78.3125 388.219 79.25 385.328 79.2656C382.438 79.25 380.672 78.3125 380.672 76.6719C380.672 75.0312 382.438 74.0938 385.328 74.0938ZM385.328 75.0469C383.203 75.0469 381.875 75.6562 381.891 76.6719C381.875 77.6719 383.203 78.2812 385.328 78.2812C387.453 78.2812 388.766 77.6719 388.766 76.6719C388.766 75.6562 387.453 75.0469 385.328 75.0469ZM383.25 67.9219C383.25 69.7344 384.641 71.4531 386.672 72.1562L386.031 73.1406C384.469 72.5781 383.258 71.4141 382.672 69.9688C382.062 71.6016 380.773 72.9062 379.125 73.5312L378.484 72.5469C380.547 71.7969 382.016 69.9219 382.016 67.9375V67.4219H378.875V66.3906H386.359V67.4219H383.25V67.9219Z" fill="#2B2B2B"/>
<rect x="152" y="52" width="128" height="40" rx="4" fill="#D8EBEA"/>
<path d="M201.266 72.4844V73.5H195.609V76.3438H194.391V73.5H188.547V72.4844H201.266ZM199.609 66.0625V70.8906H190.203V66.0625H199.609ZM191.406 67.0312V69.9062H198.391V67.0312H191.406ZM199.844 77.9375V78.9688H190.172V74.9688H191.406V77.9375H199.844ZM206.938 66.3906C209.125 66.3906 210.672 67.7188 210.672 69.6562C210.672 71.5938 209.125 72.9219 206.938 72.9219C204.75 72.9219 203.172 71.5938 203.188 69.6562C203.172 67.7188 204.75 66.3906 206.938 66.3906ZM206.938 67.4688C205.453 67.4688 204.375 68.3594 204.391 69.6562C204.375 70.9531 205.453 71.8438 206.938 71.8438C208.406 71.8438 209.469 70.9531 209.469 69.6562C209.469 68.3594 208.406 67.4688 206.938 67.4688ZM213.781 65.375V79.2969H212.562V65.375H213.781ZM202.469 75.1875C205.031 75.1875 208.562 75.1719 211.641 74.7188L211.734 75.625C208.562 76.2188 205.141 76.2344 202.641 76.2344L202.469 75.1875ZM227.734 65.3906V75.9844H226.5V73H224.094V72H226.5V70.1094H224.094V69.0938H226.5V65.3906H227.734ZM224.094 67.0938V68.0938H216.234V67.0938H219.609V65.375H220.828V67.0938H224.094ZM220.203 68.8594C222.062 68.8594 223.375 69.9219 223.375 71.5156C223.375 73.0938 222.062 74.1719 220.203 74.1719C218.344 74.1719 217.047 73.0938 217.062 71.5156C217.047 69.9219 218.344 68.8594 220.203 68.8594ZM220.203 69.8281C219.016 69.8438 218.203 70.5156 218.203 71.5156C218.203 72.5156 219.016 73.1875 220.203 73.1875C221.391 73.1875 222.203 72.5156 222.219 71.5156C222.203 70.5156 221.391 69.8438 220.203 69.8281ZM228.047 77.9375V78.9688H218.75V75.0469H219.984V77.9375H228.047ZM240.891 65.3906V69.5781H242.969V70.6094H240.891V74.8125H239.656V65.3906H240.891ZM236.406 74.9844C239.297 74.9688 240.969 75.7344 240.984 77.125C240.969 78.5156 239.297 79.25 236.406 79.2656C233.5 79.25 231.844 78.5156 231.844 77.125C231.844 75.7344 233.5 74.9688 236.406 74.9844ZM236.406 75.9062C234.266 75.8906 233.062 76.3438 233.078 77.125C233.062 77.875 234.266 78.3281 236.406 78.3281C238.531 78.3281 239.734 77.875 239.734 77.125C239.734 76.3438 238.531 75.8906 236.406 75.9062ZM229.984 73.1875C231.102 73.1875 232.398 73.1797 233.75 73.1406V72.0312C232.125 71.8984 231.094 71.1719 231.094 70.0781C231.094 68.8438 232.375 68.1094 234.344 68.1094C236.328 68.1094 237.594 68.8438 237.609 70.0781C237.594 71.1641 236.594 71.8906 234.969 72.0312V73.0781C236.273 73.0234 237.586 72.9219 238.797 72.75L238.906 73.6094C235.922 74.125 232.594 74.1719 230.125 74.1719L229.984 73.1875ZM238.375 66.5781V67.5312H230.328V66.5781H233.75V65.2656H234.969V66.5781H238.375ZM234.344 68.9688C233.062 68.9688 232.266 69.4062 232.266 70.0781C232.266 70.7812 233.062 71.2031 234.344 71.2031C235.625 71.2031 236.438 70.7812 236.438 70.0781C236.438 69.4062 235.625 68.9688 234.344 68.9688Z" fill="#004747"/>
<rect y="116" width="128" height="40" rx="4" fill="#009896"/>
<path d="M47.3125 129.375V135.031H49.5625V136.062H47.3125V143.266H46.0938V129.375H47.3125ZM43.7188 130.875C43.7188 134.812 41.875 138.391 37.3438 140.625L36.6562 139.656C40.25 137.867 42.2031 135.195 42.4844 131.906H37.2969V130.875H43.7188ZM63.0625 136.25V137.234H50.3906V136.25H56.125V134.625H52V130.031H61.4844V131.016H53.2031V133.625H61.5781V134.625H57.3125V136.25H63.0625ZM56.7188 138.25C59.7031 138.25 61.4844 139.156 61.5 140.75C61.4844 142.359 59.7031 143.25 56.7188 143.266C53.7188 143.25 51.9219 142.359 51.9219 140.75C51.9219 139.156 53.7188 138.25 56.7188 138.25ZM56.7188 139.219C54.4844 139.219 53.1562 139.797 53.1719 140.75C53.1562 141.719 54.4844 142.281 56.7188 142.281C58.9219 142.281 60.2656 141.719 60.2656 140.75C60.2656 139.797 58.9219 139.219 56.7188 139.219ZM75.7344 129.391V139.984H74.5V137H72.0938V136H74.5V134.109H72.0938V133.094H74.5V129.391H75.7344ZM72.0938 131.094V132.094H64.2344V131.094H67.6094V129.375H68.8281V131.094H72.0938ZM68.2031 132.859C70.0625 132.859 71.375 133.922 71.375 135.516C71.375 137.094 70.0625 138.172 68.2031 138.172C66.3438 138.172 65.0469 137.094 65.0625 135.516C65.0469 133.922 66.3438 132.859 68.2031 132.859ZM68.2031 133.828C67.0156 133.844 66.2031 134.516 66.2031 135.516C66.2031 136.516 67.0156 137.188 68.2031 137.188C69.3906 137.188 70.2031 136.516 70.2188 135.516C70.2031 134.516 69.3906 133.844 68.2031 133.828ZM76.0469 141.938V142.969H66.75V139.047H67.9844V141.938H76.0469ZM88.8906 129.391V133.578H90.9688V134.609H88.8906V138.812H87.6562V129.391H88.8906ZM84.4062 138.984C87.2969 138.969 88.9688 139.734 88.9844 141.125C88.9688 142.516 87.2969 143.25 84.4062 143.266C81.5 143.25 79.8438 142.516 79.8438 141.125C79.8438 139.734 81.5 138.969 84.4062 138.984ZM84.4062 139.906C82.2656 139.891 81.0625 140.344 81.0781 141.125C81.0625 141.875 82.2656 142.328 84.4062 142.328C86.5312 142.328 87.7344 141.875 87.7344 141.125C87.7344 140.344 86.5312 139.891 84.4062 139.906ZM77.9844 137.188C79.1016 137.188 80.3984 137.18 81.75 137.141V136.031C80.125 135.898 79.0938 135.172 79.0938 134.078C79.0938 132.844 80.375 132.109 82.3438 132.109C84.3281 132.109 85.5938 132.844 85.6094 134.078C85.5938 135.164 84.5938 135.891 82.9688 136.031V137.078C84.2734 137.023 85.5859 136.922 86.7969 136.75L86.9062 137.609C83.9219 138.125 80.5938 138.172 78.125 138.172L77.9844 137.188ZM86.375 130.578V131.531H78.3281V130.578H81.75V129.266H82.9688V130.578H86.375ZM82.3438 132.969C81.0625 132.969 80.2656 133.406 80.2656 134.078C80.2656 134.781 81.0625 135.203 82.3438 135.203C83.625 135.203 84.4375 134.781 84.4375 134.078C84.4375 133.406 83.625 132.969 82.3438 132.969Z" fill="white"/>
<rect y="232" width="128" height="40" rx="4" fill="#009896"/>
<path d="M38.3594 245.969V247.969H42.4062V245.969H43.625V252.016H37.1562V245.969H38.3594ZM38.3594 251.016H42.4062V248.922H38.3594V251.016ZM47.4219 245.375V248.391H49.5156V249.422H47.4219V252.562H46.2031V245.375H47.4219ZM47.4219 253.219V256.578H39.7969V258.109H47.9375V259.109H38.5938V255.641H46.2031V254.203H38.5625V253.219H47.4219ZM61.9062 245.391V255.578H60.6719V250.25H57.8125V249.234H60.6719V245.391H61.9062ZM62.2969 257.938V258.969H52.9844V254.656H54.2188V257.938H62.2969ZM55.2188 248.25C55.2188 250.047 56.6094 251.797 58.6406 252.484L58 253.469C56.4297 252.906 55.2188 251.734 54.625 250.297C54.0234 251.898 52.7422 253.18 51.0938 253.797L50.4531 252.797C52.5 252.078 53.9844 250.25 53.9844 248.25V247.531H50.8438V246.516H58.3281V247.531H55.2188V248.25ZM75.7344 245.391V255.984H74.5V253H72.0938V252H74.5V250.109H72.0938V249.094H74.5V245.391H75.7344ZM72.0938 247.094V248.094H64.2344V247.094H67.6094V245.375H68.8281V247.094H72.0938ZM68.2031 248.859C70.0625 248.859 71.375 249.922 71.375 251.516C71.375 253.094 70.0625 254.172 68.2031 254.172C66.3438 254.172 65.0469 253.094 65.0625 251.516C65.0469 249.922 66.3438 248.859 68.2031 248.859ZM68.2031 249.828C67.0156 249.844 66.2031 250.516 66.2031 251.516C66.2031 252.516 67.0156 253.188 68.2031 253.188C69.3906 253.188 70.2031 252.516 70.2188 251.516C70.2031 250.516 69.3906 249.844 68.2031 249.828ZM76.0469 257.938V258.969H66.75V255.047H67.9844V257.938H76.0469ZM88.8906 245.391V249.578H90.9688V250.609H88.8906V254.812H87.6562V245.391H88.8906ZM84.4062 254.984C87.2969 254.969 88.9688 255.734 88.9844 257.125C88.9688 258.516 87.2969 259.25 84.4062 259.266C81.5 259.25 79.8438 258.516 79.8438 257.125C79.8438 255.734 81.5 254.969 84.4062 254.984ZM84.4062 255.906C82.2656 255.891 81.0625 256.344 81.0781 257.125C81.0625 257.875 82.2656 258.328 84.4062 258.328C86.5312 258.328 87.7344 257.875 87.7344 257.125C87.7344 256.344 86.5312 255.891 84.4062 255.906ZM77.9844 253.188C79.1016 253.188 80.3984 253.18 81.75 253.141V252.031C80.125 251.898 79.0938 251.172 79.0938 250.078C79.0938 248.844 80.375 248.109 82.3438 248.109C84.3281 248.109 85.5938 248.844 85.6094 250.078C85.5938 251.164 84.5938 251.891 82.9688 252.031V253.078C84.2734 253.023 85.5859 252.922 86.7969 252.75L86.9062 253.609C83.9219 254.125 80.5938 254.172 78.125 254.172L77.9844 253.188ZM86.375 246.578V247.531H78.3281V246.578H81.75V245.266H82.9688V246.578H86.375ZM82.3438 248.969C81.0625 248.969 80.2656 249.406 80.2656 250.078C80.2656 250.781 81.0625 251.203 82.3438 251.203C83.625 251.203 84.4375 250.781 84.4375 250.078C84.4375 249.406 83.625 248.969 82.3438 248.969Z" fill="white"/>
</svg>
