<svg width="362" height="40" viewBox="0 0 362 40" fill="none" xmlns="http://www.w3.org/2000/svg">
<rect width="40" height="40" rx="20" fill="#00D15D"/>
<path d="M21.2969 14.1875V25.5H19.5625V15.9062H19.5L16.7969 17.6719V16.0312L19.6094 14.1875H21.2969Z" fill="#00301F"/>
<path d="M58.4219 13.375V21.6562H57.1875V18.0156H54.3906V17H57.1875V13.375H58.4219ZM53.8125 22.0938C56.7031 22.0938 58.4688 23.0312 58.4688 24.6719C58.4688 26.3125 56.7031 27.25 53.8125 27.2656C50.9219 27.25 49.1562 26.3125 49.1562 24.6719C49.1562 23.0312 50.9219 22.0938 53.8125 22.0938ZM53.8125 23.0469C51.6875 23.0469 50.3594 23.6562 50.375 24.6719C50.3594 25.6719 51.6875 26.2812 53.8125 26.2812C55.9375 26.2812 57.25 25.6719 57.25 24.6719C57.25 23.6562 55.9375 23.0469 53.8125 23.0469ZM51.7344 15.9219C51.7344 17.7344 53.125 19.4531 55.1562 20.1562L54.5156 21.1406C52.9531 20.5781 51.7422 19.4141 51.1562 17.9688C50.5469 19.6016 49.2578 20.9062 47.6094 21.5312L46.9688 20.5469C49.0312 19.7969 50.5 17.9219 50.5 15.9375V15.4219H47.3594V14.3906H54.8438V15.4219H51.7344V15.9219ZM65.375 15.625C65.375 17.5156 66.8125 19.25 68.8281 19.9375L68.1562 20.9062C66.6172 20.3438 65.4062 19.1953 64.7969 17.75C64.2031 19.3828 62.9688 20.6719 61.3438 21.2969L60.6875 20.3125C62.7656 19.5312 64.1562 17.6719 64.1719 15.5312V14.0938H65.375V15.625ZM71.5938 13.375V17H73.6875V18.0312H71.5938V21.8281H70.375V13.375H71.5938ZM67.1406 22.1875C70 22.1875 71.7188 23.1094 71.7188 24.7031C71.7188 26.3281 70 27.2344 67.1406 27.2344C64.2812 27.2344 62.5312 26.3281 62.5312 24.7031C62.5312 23.1094 64.2812 22.1875 67.1406 22.1875ZM67.1406 23.1719C65.0469 23.1719 63.75 23.75 63.7656 24.7031C63.75 25.6875 65.0469 26.25 67.1406 26.2656C69.25 26.25 70.5312 25.6875 70.5312 24.7031C70.5312 23.75 69.25 23.1719 67.1406 23.1719ZM79.2656 15.9531C79.2656 17.7969 80.625 19.4844 82.6875 20.2031L82.0625 21.1562C80.4766 20.5938 79.2656 19.4531 78.6719 18.0156C78.0781 19.5938 76.8047 20.8203 75.1719 21.4219L74.5156 20.4688C76.5938 19.7344 78.0469 17.9375 78.0625 15.9531V15.3594H74.8906V14.3594H82.3906V15.3594H79.2656V15.9531ZM85.4219 13.375V17.0469H87.5156V18.0938H85.4219V21.75H84.2031V13.375H85.4219ZM85.4219 22.4844V27.2656H84.2031V23.4844H76.3281V22.4844H85.4219ZM101.062 20.25V21.2344H88.3906V20.25H94.125V18.625H90V14.0312H99.4844V15.0156H91.2031V17.625H99.5781V18.625H95.3125V20.25H101.062ZM94.7188 22.25C97.7031 22.25 99.4844 23.1562 99.5 24.75C99.4844 26.3594 97.7031 27.25 94.7188 27.2656C91.7188 27.25 89.9219 26.3594 89.9219 24.75C89.9219 23.1562 91.7188 22.25 94.7188 22.25ZM94.7188 23.2188C92.4844 23.2188 91.1562 23.7969 91.1719 24.75C91.1562 25.7188 92.4844 26.2812 94.7188 26.2812C96.9219 26.2812 98.2656 25.7188 98.2656 24.75C98.2656 23.7969 96.9219 23.2188 94.7188 23.2188Z" fill="#666666"/>
<rect x="127" width="40" height="40" rx="20" fill="#E8001F"/>
<path d="M143 25.5V24.25L146.922 20.2969C148.156 19 148.781 18.2812 148.781 17.2969C148.781 16.1875 147.875 15.4688 146.688 15.4688C145.438 15.4688 144.625 16.2656 144.625 17.4688H143C142.984 15.4062 144.562 14.0312 146.719 14.0312C148.906 14.0312 150.406 15.4062 150.422 17.25C150.406 18.5156 149.812 19.5156 147.688 21.6094L145.391 23.9375V24.0312H150.609V25.5H143Z" fill="white"/>
<path d="M178.609 16.0156C178.609 17.8281 179.969 19.4531 182.016 20.125L181.438 21.0938C179.836 20.5703 178.625 19.4609 178.031 18.0625C177.43 19.6562 176.148 20.8984 174.484 21.5L173.859 20.5156C175.938 19.8125 177.391 18.0156 177.406 16.0156V15.4219H174.234V14.4062H181.734V15.4219H178.609V16.0156ZM184.766 13.375V16.9219H186.859V17.9531H184.766V21.7656H183.547V13.375H184.766ZM180.312 22.1406C183.172 22.1406 184.891 23.0781 184.891 24.6719C184.891 26.2969 183.172 27.2344 180.312 27.2344C177.453 27.2344 175.703 26.2969 175.703 24.6719C175.703 23.0781 177.453 22.1406 180.312 22.1406ZM180.312 23.125C178.219 23.125 176.922 23.7031 176.938 24.6719C176.922 25.6719 178.219 26.25 180.312 26.25C182.422 26.25 183.703 25.6719 183.703 24.6719C183.703 23.7031 182.422 23.125 180.312 23.125ZM190.891 14.5469C192.703 14.5469 193.875 16.4219 193.891 19.375C193.875 22.3281 192.703 24.2031 190.891 24.2031C189.078 24.2031 187.906 22.3281 187.906 19.375C187.906 16.4219 189.078 14.5469 190.891 14.5469ZM190.891 15.7031C189.766 15.7031 189.047 17.1094 189.062 19.375C189.047 21.625 189.766 23.0469 190.891 23.0312C192.016 23.0469 192.734 21.625 192.734 19.375C192.734 17.1094 192.016 15.7031 190.891 15.7031ZM199.641 13.375V27.2656H198.453V19.9062H196.516V26.5625H195.344V13.6719H196.516V18.8906H198.453V13.375H199.641ZM203.359 13.9688V15.9688H207.406V13.9688H208.625V20.0156H202.156V13.9688H203.359ZM203.359 19.0156H207.406V16.9219H203.359V19.0156ZM212.422 13.375V16.3906H214.516V17.4219H212.422V20.5625H211.203V13.375H212.422ZM212.422 21.2188V24.5781H204.797V26.1094H212.938V27.1094H203.594V23.6406H211.203V22.2031H203.562V21.2188H212.422ZM219.531 16.1406C219.531 17.6719 220.609 19.2344 222.391 19.9062L221.75 20.8438C220.414 20.3281 219.453 19.3359 218.953 18.1406C218.438 19.4688 217.445 20.6484 216.078 21.2344L215.406 20.2812C217.234 19.4844 218.359 17.6875 218.359 16.1406V14.25H219.531V16.1406ZM227.188 13.3906V21.9688H226.016V18.1406H224.172V21.5312H223.016V13.6562H224.172V17.125H226.016V13.3906H227.188ZM222.594 22.2812C225.469 22.2812 227.266 23.1875 227.266 24.7656C227.266 26.3281 225.469 27.2344 222.594 27.2344C219.703 27.2344 217.922 26.3281 217.938 24.7656C217.922 23.1875 219.703 22.2812 222.594 22.2812ZM222.594 23.2188C220.469 23.2188 219.141 23.7969 219.156 24.7656C219.141 25.7188 220.469 26.2812 222.594 26.2812C224.703 26.2812 226.031 25.7188 226.047 24.7656C226.031 23.7969 224.703 23.2188 222.594 23.2188Z" fill="#666666"/>
<rect x="254" width="46" height="40" rx="20" fill="#444444"/>
<path d="M266.891 14.0312C268.969 14.0469 271.156 15.2969 271.156 19.4375C271.156 23.4062 269.453 25.6562 266.734 25.6562C264.656 25.6562 263.188 24.375 262.922 22.5312H264.625C264.859 23.4844 265.594 24.1562 266.734 24.1562C268.484 24.1562 269.5 22.625 269.516 20.0469H269.375C268.766 21 267.703 21.5781 266.484 21.5781C264.453 21.5781 262.828 20.0312 262.828 17.8594C262.828 15.7031 264.438 14.0156 266.891 14.0312ZM266.891 15.4688C265.516 15.4688 264.5 16.5312 264.5 17.8281C264.5 19.1406 265.484 20.1719 266.859 20.1719C268.219 20.1719 269.281 19.0625 269.281 17.8125C269.281 16.5938 268.281 15.4688 266.891 15.4688ZM276.539 14.0312C278.618 14.0469 280.805 15.2969 280.805 19.4375C280.805 23.4062 279.102 25.6562 276.383 25.6562C274.305 25.6562 272.836 24.375 272.571 22.5312H274.274C274.508 23.4844 275.243 24.1562 276.383 24.1562C278.133 24.1562 279.149 22.625 279.164 20.0469H279.024C278.414 21 277.352 21.5781 276.133 21.5781C274.102 21.5781 272.477 20.0312 272.477 17.8594C272.477 15.7031 274.086 14.0156 276.539 14.0312ZM276.539 15.4688C275.164 15.4688 274.149 16.5312 274.149 17.8281C274.149 19.1406 275.133 20.1719 276.508 20.1719C277.868 20.1719 278.93 19.0625 278.93 17.8125C278.93 16.5938 277.93 15.4688 276.539 15.4688ZM285.626 23.5938V20.6094H282.641V19.1094H285.626V16.125H287.126V19.1094H290.126V20.6094H287.126V23.5938H285.626Z" fill="white"/>
<path d="M319.562 21.5781V22.5781H306.906V21.5781H312.625V20.4531C310.125 20.375 308.719 19.6328 308.719 18.3594C308.719 16.9844 310.359 16.25 313.234 16.25C316.078 16.25 317.734 16.9844 317.734 18.3594C317.734 19.6328 316.312 20.3672 313.844 20.4531V21.5781H319.562ZM318.156 25.9531V26.9688H308.547V23.4688H309.781V25.9531H318.156ZM318.828 14.6719V15.6406H307.562V14.6719H312.625V13.2188H313.844V14.6719H318.828ZM313.234 17.1562C311.125 17.1562 309.953 17.5781 309.969 18.3594C309.953 19.1406 311.125 19.5625 313.234 19.5625C315.312 19.5625 316.5 19.1406 316.5 18.3594C316.5 17.5781 315.312 17.1562 313.234 17.1562ZM331.594 13.375V16.9375H333.688V17.9844H331.594V21.4531H330.375V13.375H331.594ZM324.031 22.0625V23.5469H330.375V22.0625H331.594V27.0781H322.812V22.0625H324.031ZM324.031 26.0938H330.375V24.5156H324.031V26.0938ZM329.047 14.8125V15.8281H320.766V14.8125H324.297V13.25H325.516V14.8125H329.047ZM324.906 16.4688C326.906 16.4688 328.234 17.4219 328.25 18.9062C328.234 20.3906 326.906 21.3438 324.906 21.3438C322.891 21.3438 321.547 20.3906 321.562 18.9062C321.547 17.4219 322.891 16.4688 324.906 16.4688ZM324.906 17.4219C323.594 17.4062 322.719 18.0156 322.734 18.9062C322.719 19.8125 323.594 20.4062 324.906 20.4062C326.203 20.4062 327.078 19.8125 327.094 18.9062C327.078 18.0156 326.203 17.4062 324.906 17.4219ZM339.203 15.625C339.203 17.5156 340.641 19.25 342.656 19.9375L341.984 20.9062C340.445 20.3438 339.234 19.1953 338.625 17.75C338.031 19.3828 336.797 20.6719 335.172 21.2969L334.516 20.3125C336.594 19.5312 337.984 17.6719 338 15.5312V14.0938H339.203V15.625ZM345.422 13.375V17H347.516V18.0312H345.422V21.8281H344.203V13.375H345.422ZM340.969 22.1875C343.828 22.1875 345.547 23.1094 345.547 24.7031C345.547 26.3281 343.828 27.2344 340.969 27.2344C338.109 27.2344 336.359 26.3281 336.359 24.7031C336.359 23.1094 338.109 22.1875 340.969 22.1875ZM340.969 23.1719C338.875 23.1719 337.578 23.75 337.594 24.7031C337.578 25.6875 338.875 26.25 340.969 26.2656C343.078 26.25 344.359 25.6875 344.359 24.7031C344.359 23.75 343.078 23.1719 340.969 23.1719ZM354.453 14.9844V15.9844H350.125V18.6562H354.25V19.6406H350.125V22.7812C352.188 22.7734 353.461 22.7188 354.984 22.4375L355.094 23.4531C353.469 23.7656 352.125 23.8281 349.844 23.8281H348.953V14.9844H354.453ZM360.297 13.375V27.2656H359.109V19.9844H357.203V26.5625H356.016V13.6719H357.203V18.9688H359.109V13.375H360.297Z" fill="#666666"/>
</svg>
