<svg width="432" height="452" viewBox="0 0 432 452" fill="none" xmlns="http://www.w3.org/2000/svg">
<line x1="216" y1="19.5" x2="368" y2="19.5" stroke="#AFAFAF"/>
<line x1="216" y1="175.5" x2="368" y2="175.5" stroke="#AFAFAF"/>
<line x1="216" y1="303.5" x2="368" y2="303.5" stroke="#AFAFAF"/>
<line x1="292" y1="71.5" x2="368" y2="71.5" stroke="#AFAFAF"/>
<line x1="292" y1="355.5" x2="368" y2="355.5" stroke="#AFAFAF"/>
<line x1="292" y1="123.5" x2="368" y2="123.5" stroke="#AFAFAF"/>
<line x1="291.5" y1="124" x2="291.5" y2="20" stroke="#AFAFAF"/>
<line x1="291.5" y1="356" x2="291.5" y2="304" stroke="#AFAFAF"/>
<line x1="139.5" y1="432" x2="139.5" y2="19" stroke="#082657" stroke-dasharray="4 4"/>
<line x1="140" y1="19.5" x2="216" y2="19.5" stroke="#082657" stroke-dasharray="4 4"/>
<line x1="64" y1="97.5" x2="140" y2="97.5" stroke="#082657" stroke-dasharray="4 4"/>
<line x1="64" y1="239.5" x2="140" y2="239.5" stroke="#082657" stroke-dasharray="4 4"/>
<line x1="64" y1="367.5" x2="140" y2="367.5" stroke="#082657" stroke-dasharray="4 4"/>
<line x1="140" y1="175.5" x2="194" y2="175.5" stroke="#082657" stroke-dasharray="4 4"/>
<line x1="140" y1="303.5" x2="194" y2="303.5" stroke="#082657" stroke-dasharray="4 4"/>
<line x1="140" y1="431.5" x2="194" y2="431.5" stroke="#082657" stroke-dasharray="4 4"/>
<rect x="152" width="128" height="40" rx="4" fill="#DBE9FF"/>
<path d="M193.266 16.0156C193.266 17.8281 194.625 19.4531 196.672 20.125L196.094 21.0938C194.492 20.5703 193.281 19.4609 192.688 18.0625C192.086 19.6562 190.805 20.8984 189.141 21.5L188.516 20.5156C190.594 19.8125 192.047 18.0156 192.062 16.0156V15.4219H188.891V14.4062H196.391V15.4219H193.266V16.0156ZM199.422 13.375V16.9219H201.516V17.9531H199.422V21.7656H198.203V13.375H199.422ZM194.969 22.1406C197.828 22.1406 199.547 23.0781 199.547 24.6719C199.547 26.2969 197.828 27.2344 194.969 27.2344C192.109 27.2344 190.359 26.2969 190.359 24.6719C190.359 23.0781 192.109 22.1406 194.969 22.1406ZM194.969 23.125C192.875 23.125 191.578 23.7031 191.594 24.6719C191.578 25.6719 192.875 26.25 194.969 26.25C197.078 26.25 198.359 25.6719 198.359 24.6719C198.359 23.7031 197.078 23.125 194.969 23.125ZM205.547 14.5469C207.359 14.5469 208.531 16.4219 208.547 19.375C208.531 22.3281 207.359 24.2031 205.547 24.2031C203.734 24.2031 202.562 22.3281 202.562 19.375C202.562 16.4219 203.734 14.5469 205.547 14.5469ZM205.547 15.7031C204.422 15.7031 203.703 17.1094 203.719 19.375C203.703 21.625 204.422 23.0469 205.547 23.0312C206.672 23.0469 207.391 21.625 207.391 19.375C207.391 17.1094 206.672 15.7031 205.547 15.7031ZM214.297 13.375V27.2656H213.109V19.9062H211.172V26.5625H210V13.6719H211.172V18.8906H213.109V13.375H214.297ZM218.016 13.9688V15.9688H222.062V13.9688H223.281V20.0156H216.812V13.9688H218.016ZM218.016 19.0156H222.062V16.9219H218.016V19.0156ZM227.078 13.375V16.3906H229.172V17.4219H227.078V20.5625H225.859V13.375H227.078ZM227.078 21.2188V24.5781H219.453V26.1094H227.594V27.1094H218.25V23.6406H225.859V22.2031H218.219V21.2188H227.078ZM234.188 16.1406C234.188 17.6719 235.266 19.2344 237.047 19.9062L236.406 20.8438C235.07 20.3281 234.109 19.3359 233.609 18.1406C233.094 19.4688 232.102 20.6484 230.734 21.2344L230.062 20.2812C231.891 19.4844 233.016 17.6875 233.016 16.1406V14.25H234.188V16.1406ZM241.844 13.3906V21.9688H240.672V18.1406H238.828V21.5312H237.672V13.6562H238.828V17.125H240.672V13.3906H241.844ZM237.25 22.2812C240.125 22.2812 241.922 23.1875 241.922 24.7656C241.922 26.3281 240.125 27.2344 237.25 27.2344C234.359 27.2344 232.578 26.3281 232.594 24.7656C232.578 23.1875 234.359 22.2812 237.25 22.2812ZM237.25 23.2188C235.125 23.2188 233.797 23.7969 233.812 24.7656C233.797 25.7188 235.125 26.2812 237.25 26.2812C239.359 26.2812 240.688 25.7188 240.703 24.7656C240.688 23.7969 239.359 23.2188 237.25 23.2188Z" fill="#082657"/>
<rect x="304" width="128" height="40" rx="4" fill="#F6F6F9"/>
<path d="M336.219 17.1094C336.219 19.5625 337.844 22.0781 339.812 23.0469L339.062 24.0312C337.531 23.2266 336.25 21.5859 335.641 19.6562C335.016 21.7109 333.703 23.4609 332.141 24.2969L331.359 23.3125C333.391 22.3125 335 19.6406 335.016 17.1094V14.5781H336.219V17.1094ZM342.312 13.375V19.0156H344.641V20.0781H342.312V27.2656H341.094V13.375H342.312ZM358.047 20.25V21.2656H345.391V20.25H348.531V18.2969C347.422 17.8672 346.797 17.1562 346.797 16.2188C346.797 14.5781 348.672 13.6406 351.719 13.6406C354.734 13.6406 356.625 14.5781 356.625 16.2188C356.625 17.1484 356.008 17.8594 354.906 18.2812V20.25H358.047ZM351.719 22.3281C354.703 22.3281 356.484 23.1875 356.5 24.7812C356.484 26.3594 354.703 27.2344 351.719 27.2344C348.703 27.2344 346.922 26.3594 346.922 24.7812C346.922 23.1875 348.703 22.3281 351.719 22.3281ZM351.719 23.2656C349.484 23.2812 348.156 23.8281 348.172 24.7812C348.156 25.7188 349.484 26.2812 351.719 26.2812C353.922 26.2812 355.266 25.7188 355.266 24.7812C355.266 23.8281 353.922 23.2812 351.719 23.2656ZM351.719 14.6094C349.453 14.6094 348.047 15.2188 348.062 16.2188C348.047 17.2344 349.453 17.8281 351.719 17.8281C353.969 17.8281 355.375 17.2344 355.375 16.2188C355.375 15.2188 353.969 14.6094 351.719 14.6094ZM349.75 20.25H353.688V18.625C353.102 18.7266 352.445 18.7812 351.719 18.7812C350.992 18.7812 350.336 18.7266 349.75 18.625V20.25ZM363.922 17.6406C363.906 19.875 365.516 22.3281 367.531 23.2812L366.828 24.25C365.266 23.4922 363.945 21.8359 363.328 19.9531C362.688 22 361.289 23.7969 359.734 24.5938L358.984 23.625C360.984 22.6562 362.703 20.0156 362.719 17.6406V15.8281H359.484V14.8125H367.047V15.8281H363.922V17.6406ZM369.969 13.375V19H372.297V20.0469H369.969V27.2656H368.75V13.375H369.969ZM388.578 13.375V21.6562H387.344V18.0156H384.547V17H387.344V13.375H388.578ZM383.969 22.0938C386.859 22.0938 388.625 23.0312 388.625 24.6719C388.625 26.3125 386.859 27.25 383.969 27.2656C381.078 27.25 379.312 26.3125 379.312 24.6719C379.312 23.0312 381.078 22.0938 383.969 22.0938ZM383.969 23.0469C381.844 23.0469 380.516 23.6562 380.531 24.6719C380.516 25.6719 381.844 26.2812 383.969 26.2812C386.094 26.2812 387.406 25.6719 387.406 24.6719C387.406 23.6562 386.094 23.0469 383.969 23.0469ZM381.891 15.9219C381.891 17.7344 383.281 19.4531 385.312 20.1562L384.672 21.1406C383.109 20.5781 381.898 19.4141 381.312 17.9688C380.703 19.6016 379.414 20.9062 377.766 21.5312L377.125 20.5469C379.188 19.7969 380.656 17.9219 380.656 15.9375V15.4219H377.516V14.3906H385V15.4219H381.891V15.9219ZM403.609 24.4688V25.4844H390.891V24.4688H396.609V21.4688H392.391V14.3594H393.625V16.875H400.844V14.3594H402.047V21.4688H397.812V24.4688H403.609ZM393.625 20.4688H400.844V17.875H393.625V20.4688Z" fill="#2B2B2B"/>
<rect y="78" width="128" height="40" rx="4" fill="#1462DF"/>
<path d="M41.75 104H40.2812L44.4219 92.6875H45.9062L50.0469 104H48.5625L47.4375 100.812H42.8906L41.75 104ZM43.3125 99.5781H47L45.2031 94.5156H45.1094L43.3125 99.5781ZM57.7344 95.5312C57.6094 94.4219 56.5938 93.7812 55.2344 93.7812C53.7344 93.7812 52.75 94.5625 52.75 95.6406C52.75 96.8281 54.0781 97.2656 54.9375 97.4844L56.0625 97.7969C57.2812 98.1094 59.2656 98.8125 59.2656 100.922C59.2656 102.766 57.7812 104.203 55.1562 104.203C52.7188 104.203 51.2031 102.938 51.0781 101.062H52.5156C52.6406 102.328 53.8125 102.922 55.1562 102.922C56.7188 102.922 57.8906 102.125 57.8906 100.891C57.8906 99.7969 56.8438 99.375 55.6562 99.0312L54.2656 98.6562C52.4844 98.1406 51.3906 97.2344 51.3906 95.7031C51.3906 93.7969 53.0938 92.5312 55.2812 92.5312C57.4688 92.5312 59.0469 93.8125 59.1094 95.5312H57.7344ZM72.0625 91.3906V101.578H70.8438V91.3906H72.0625ZM72.5 103.938V104.969H63.0938V100.641H64.3125V103.938H72.5ZM65.5156 93.5625C65.5 95.6719 66.9531 97.5781 69.0156 98.3281L68.375 99.3125C66.7656 98.6953 65.5156 97.4453 64.9062 95.8438C64.2891 97.5469 63.0234 98.9141 61.4062 99.5625L60.7344 98.6094C62.8438 97.7969 64.2656 95.75 64.2656 93.5625V92.1719H65.5156V93.5625ZM79.1562 94.3594C79.1562 96.0938 80.6562 97.6406 82.7031 98.25L82.1094 99.2031C80.5 98.7266 79.2109 97.6719 78.5938 96.2969C77.9844 97.8203 76.7188 99.0156 75.0625 99.5625L74.4688 98.625C76.5156 97.9375 77.9531 96.25 77.9531 94.3594V94.0625H74.8125V93.0781H77.9531V91.3125H79.1875V93.0781H82.2969V94.0625H79.1562V94.3594ZM85.9375 91.375V99.7969H84.7031V96.375H81.8594V95.3594H84.7031V91.375H85.9375ZM81.3281 100.172C84.2188 100.172 85.9844 101.078 85.9844 102.703C85.9844 104.312 84.2188 105.234 81.3281 105.234C78.4375 105.234 76.6719 104.312 76.6719 102.703C76.6719 101.078 78.4375 100.172 81.3281 100.172ZM81.3281 101.125C79.2031 101.141 77.875 101.719 77.8906 102.703C77.875 103.672 79.2031 104.266 81.3281 104.266C83.4688 104.266 84.7656 103.672 84.7656 102.703C84.7656 101.719 83.4688 101.141 81.3281 101.125Z" fill="white"/>
<rect y="220" width="128" height="40" rx="4" fill="#1462DF"/>
<path d="M41.75 246H40.2812L44.4219 234.688H45.9062L50.0469 246H48.5625L47.4375 242.812H42.8906L41.75 246ZM43.3125 241.578H47L45.2031 236.516H45.1094L43.3125 241.578ZM57.7344 237.531C57.6094 236.422 56.5938 235.781 55.2344 235.781C53.7344 235.781 52.75 236.562 52.75 237.641C52.75 238.828 54.0781 239.266 54.9375 239.484L56.0625 239.797C57.2812 240.109 59.2656 240.812 59.2656 242.922C59.2656 244.766 57.7812 246.203 55.1562 246.203C52.7188 246.203 51.2031 244.938 51.0781 243.062H52.5156C52.6406 244.328 53.8125 244.922 55.1562 244.922C56.7188 244.922 57.8906 244.125 57.8906 242.891C57.8906 241.797 56.8438 241.375 55.6562 241.031L54.2656 240.656C52.4844 240.141 51.3906 239.234 51.3906 237.703C51.3906 235.797 53.0938 234.531 55.2812 234.531C57.4688 234.531 59.0469 235.812 59.1094 237.531H57.7344ZM72.5 233.375V247.266H71.3125V233.375H72.5ZM69.7344 233.672V246.562H68.5625V242H66.3438C65.8594 243.391 64.9375 244.203 63.75 244.203C61.9375 244.203 60.7656 242.328 60.7656 239.375C60.7656 236.422 61.9375 234.547 63.75 234.547C64.9375 234.547 65.8594 235.359 66.3438 236.75H68.5625V233.672H69.7344ZM63.75 235.703C62.6094 235.703 61.9062 237.109 61.9062 239.375C61.9062 241.625 62.6094 243.047 63.75 243.031C64.875 243.047 65.6094 241.625 65.6094 239.375C65.6094 237.109 64.875 235.703 63.75 235.703ZM66.6094 237.766C66.7031 238.258 66.75 238.797 66.75 239.375C66.75 239.945 66.7031 240.484 66.625 240.969H68.5625V237.766H66.6094ZM87.3438 235.531V236.531H85.2812V238.484H87.3438V239.531H85.2812V241.641H84.0625V233.375H85.2812V235.531H87.3438ZM85.2812 242.281V247.266H84.0625V243.297H76.1875V242.281H85.2812ZM78.3281 234.219C80.4375 234.203 81.9688 235.562 81.9844 237.484C81.9688 239.438 80.4375 240.781 78.3281 240.781C76.2188 240.781 74.6719 239.438 74.6875 237.484C74.6719 235.562 76.2188 234.203 78.3281 234.219ZM78.3281 235.266C76.9219 235.266 75.875 236.172 75.8906 237.484C75.875 238.812 76.9219 239.734 78.3281 239.719C79.75 239.734 80.7812 238.812 80.7812 237.484C80.7812 236.172 79.75 235.266 78.3281 235.266Z" fill="white"/>
<rect y="348" width="128" height="40" rx="4" fill="#1462DF"/>
<path d="M42.9688 370.109C45.8281 370.109 47.5469 371.047 47.5469 372.672C47.5469 374.312 45.8281 375.25 42.9688 375.266C40.1094 375.25 38.3594 374.312 38.3594 372.672C38.3594 371.047 40.1094 370.109 42.9688 370.109ZM42.9688 371.078C40.875 371.094 39.5781 371.672 39.5938 372.672C39.5781 373.672 40.875 374.266 42.9688 374.266C45.0781 374.266 46.3594 373.672 46.3594 372.672C46.3594 371.672 45.0781 371.094 42.9688 371.078ZM47.4219 361.375V364.875H49.5156V365.922H47.4219V369.734H46.2031V361.375H47.4219ZM38.3594 362.25V364.375H42.4062V362.25H43.625V368.656H37.1562V362.25H38.3594ZM38.3594 367.656H42.4062V365.344H38.3594V367.656ZM63.0938 368.484V369.5H57.4375V372.344H56.2188V369.5H50.375V368.484H63.0938ZM61.4375 362.062V366.891H52.0312V362.062H61.4375ZM53.2344 363.031V365.906H60.2188V363.031H53.2344ZM61.6719 373.938V374.969H52V370.969H53.2344V373.938H61.6719ZM71.1875 362.672C71.1875 364.625 73.75 366.328 76.25 366.672L75.75 367.672C73.5938 367.312 71.4609 366.117 70.5625 364.406C69.6719 366.125 67.5312 367.312 65.375 367.672L64.875 366.672C67.375 366.328 69.9219 364.656 69.9219 362.672V361.875H71.1875V362.672ZM76.875 369.203V370.234H71.125V375.266H69.9219V370.234H64.2188V369.203H76.875ZM89.5156 361.375V375.297H88.2969V361.375H89.5156ZM85.2969 362.672V367.609H80.1094V370.891C82.4141 370.891 84.4688 370.789 86.9531 370.391L87.0781 371.422C84.5156 371.828 82.4062 371.922 80.0156 371.922H78.8594V366.609H84.0625V363.688H78.8281V362.672H85.2969Z" fill="white"/>
<rect x="304" y="52" width="128" height="40" rx="4" fill="#F6F6F9"/>
<path d="M352.078 65.375V72.5625H350.844V68.9531H347.75V67.9375H350.844V65.375H352.078ZM352.078 73.2656V76.5781H344.312V78.0938H352.594V79.0781H343.109V75.6406H350.859V74.25H343.078V73.2656H352.078ZM345.297 67.1406C345.281 68.9688 346.719 70.625 348.75 71.2969L348.094 72.25C346.555 71.7031 345.328 70.6094 344.719 69.2031C344.125 70.7891 342.867 72 341.219 72.5938L340.547 71.6094C342.641 70.9219 344.078 69.1719 344.094 67.1406V65.8281H345.297V67.1406ZM365.844 65.375V79.2969H364.609V65.375H365.844ZM356.422 66.5625V70.2344H360.562V66.5625H361.766V75.9375H355.203V66.5625H356.422ZM356.422 74.9062H360.562V71.2188H356.422V74.9062ZM379.734 65.375V73.6562H378.5V70.0156H375.703V69H378.5V65.375H379.734ZM375.125 74.0938C378.016 74.0938 379.781 75.0312 379.781 76.6719C379.781 78.3125 378.016 79.25 375.125 79.2656C372.234 79.25 370.469 78.3125 370.469 76.6719C370.469 75.0312 372.234 74.0938 375.125 74.0938ZM375.125 75.0469C373 75.0469 371.672 75.6562 371.688 76.6719C371.672 77.6719 373 78.2812 375.125 78.2812C377.25 78.2812 378.562 77.6719 378.562 76.6719C378.562 75.6562 377.25 75.0469 375.125 75.0469ZM373.047 67.9219C373.047 69.7344 374.438 71.4531 376.469 72.1562L375.828 73.1406C374.266 72.5781 373.055 71.4141 372.469 69.9688C371.859 71.6016 370.57 72.9062 368.922 73.5312L368.281 72.5469C370.344 71.7969 371.812 69.9219 371.812 67.9375V67.4219H368.672V66.3906H376.156V67.4219H373.047V67.9219ZM394.766 76.4688V77.4844H382.047V76.4688H387.766V73.4688H383.547V66.3594H384.781V68.875H392V66.3594H393.203V73.4688H388.969V76.4688H394.766ZM384.781 72.4688H392V69.875H384.781V72.4688Z" fill="#2B2B2B"/>
<rect x="304" y="104" width="128" height="40" rx="4" fill="#F6F6F9"/>
<path d="M345.266 120.016C345.266 121.828 346.625 123.453 348.672 124.125L348.094 125.094C346.492 124.57 345.281 123.461 344.688 122.062C344.086 123.656 342.805 124.898 341.141 125.5L340.516 124.516C342.594 123.812 344.047 122.016 344.062 120.016V119.422H340.891V118.406H348.391V119.422H345.266V120.016ZM351.422 117.375V120.922H353.516V121.953H351.422V125.766H350.203V117.375H351.422ZM346.969 126.141C349.828 126.141 351.547 127.078 351.547 128.672C351.547 130.297 349.828 131.234 346.969 131.234C344.109 131.234 342.359 130.297 342.359 128.672C342.359 127.078 344.109 126.141 346.969 126.141ZM346.969 127.125C344.875 127.125 343.578 127.703 343.594 128.672C343.578 129.672 344.875 130.25 346.969 130.25C349.078 130.25 350.359 129.672 350.359 128.672C350.359 127.703 349.078 127.125 346.969 127.125ZM357.547 118.547C359.359 118.547 360.531 120.422 360.547 123.375C360.531 126.328 359.359 128.203 357.547 128.203C355.734 128.203 354.562 126.328 354.562 123.375C354.562 120.422 355.734 118.547 357.547 118.547ZM357.547 119.703C356.422 119.703 355.703 121.109 355.719 123.375C355.703 125.625 356.422 127.047 357.547 127.031C358.672 127.047 359.391 125.625 359.391 123.375C359.391 121.109 358.672 119.703 357.547 119.703ZM366.297 117.375V131.266H365.109V123.906H363.172V130.562H362V117.672H363.172V122.891H365.109V117.375H366.297ZM379.734 117.375V125.656H378.5V122.016H375.703V121H378.5V117.375H379.734ZM375.125 126.094C378.016 126.094 379.781 127.031 379.781 128.672C379.781 130.312 378.016 131.25 375.125 131.266C372.234 131.25 370.469 130.312 370.469 128.672C370.469 127.031 372.234 126.094 375.125 126.094ZM375.125 127.047C373 127.047 371.672 127.656 371.688 128.672C371.672 129.672 373 130.281 375.125 130.281C377.25 130.281 378.562 129.672 378.562 128.672C378.562 127.656 377.25 127.047 375.125 127.047ZM373.047 119.922C373.047 121.734 374.438 123.453 376.469 124.156L375.828 125.141C374.266 124.578 373.055 123.414 372.469 121.969C371.859 123.602 370.57 124.906 368.922 125.531L368.281 124.547C370.344 123.797 371.812 121.922 371.812 119.938V119.422H368.672V118.391H376.156V119.422H373.047V119.922ZM394.766 128.469V129.484H382.047V128.469H387.766V125.469H383.547V118.359H384.781V120.875H392V118.359H393.203V125.469H388.969V128.469H394.766ZM384.781 124.469H392V121.875H384.781V124.469Z" fill="#2B2B2B"/>
<rect x="304" y="156" width="128" height="40" rx="4" fill="#F6F6F9"/>
<path d="M338.75 182H337.281L341.422 170.688H342.906L347.047 182H345.562L344.438 178.812H339.891L338.75 182ZM340.312 177.578H344L342.203 172.516H342.109L340.312 177.578ZM354.734 173.531C354.609 172.422 353.594 171.781 352.234 171.781C350.734 171.781 349.75 172.562 349.75 173.641C349.75 174.828 351.078 175.266 351.938 175.484L353.062 175.797C354.281 176.109 356.266 176.812 356.266 178.922C356.266 180.766 354.781 182.203 352.156 182.203C349.719 182.203 348.203 180.938 348.078 179.062H349.516C349.641 180.328 350.812 180.922 352.156 180.922C353.719 180.922 354.891 180.125 354.891 178.891C354.891 177.797 353.844 177.375 352.656 177.031L351.266 176.656C349.484 176.141 348.391 175.234 348.391 173.703C348.391 171.797 350.094 170.531 352.281 170.531C354.469 170.531 356.047 171.812 356.109 173.531H354.734ZM369.5 169.375V183.266H368.312V169.375H369.5ZM366.734 169.672V182.562H365.562V178H363.344C362.859 179.391 361.938 180.203 360.75 180.203C358.938 180.203 357.766 178.328 357.766 175.375C357.766 172.422 358.938 170.547 360.75 170.547C361.938 170.547 362.859 171.359 363.344 172.75H365.562V169.672H366.734ZM360.75 171.703C359.609 171.703 358.906 173.109 358.906 175.375C358.906 177.625 359.609 179.047 360.75 179.031C361.875 179.047 362.609 177.625 362.609 175.375C362.609 173.109 361.875 171.703 360.75 171.703ZM363.609 173.766C363.703 174.258 363.75 174.797 363.75 175.375C363.75 175.945 363.703 176.484 363.625 176.969H365.562V173.766H363.609ZM382.938 169.375V177.656H381.703V174.016H378.906V173H381.703V169.375H382.938ZM378.328 178.094C381.219 178.094 382.984 179.031 382.984 180.672C382.984 182.312 381.219 183.25 378.328 183.266C375.438 183.25 373.672 182.312 373.672 180.672C373.672 179.031 375.438 178.094 378.328 178.094ZM378.328 179.047C376.203 179.047 374.875 179.656 374.891 180.672C374.875 181.672 376.203 182.281 378.328 182.281C380.453 182.281 381.766 181.672 381.766 180.672C381.766 179.656 380.453 179.047 378.328 179.047ZM376.25 171.922C376.25 173.734 377.641 175.453 379.672 176.156L379.031 177.141C377.469 176.578 376.258 175.414 375.672 173.969C375.062 175.602 373.773 176.906 372.125 177.531L371.484 176.547C373.547 175.797 375.016 173.922 375.016 171.938V171.422H371.875V170.391H379.359V171.422H376.25V171.922ZM389.188 169.891C391.266 169.906 392.781 171.156 392.781 172.969C392.781 174.781 391.266 176.031 389.188 176.031C387.078 176.031 385.578 174.781 385.578 172.969C385.578 171.156 387.078 169.906 389.188 169.891ZM389.188 170.922C387.797 170.922 386.766 171.766 386.781 172.969C386.766 174.188 387.797 175.031 389.188 175.031C390.562 175.031 391.594 174.188 391.594 172.969C391.594 171.766 390.562 170.922 389.188 170.922ZM396.719 169.375V176.516H395.5V169.375H396.719ZM396.719 177.188V180.531H388.922V182.094H397.219V183.078H387.719V179.609H395.5V178.172H387.688V177.188H396.719Z" fill="#2B2B2B"/>
<rect x="304" y="284" width="128" height="40" rx="4" fill="#F6F6F9"/>
<path d="M345.75 310H344.281L348.422 298.688H349.906L354.047 310H352.562L351.438 306.812H346.891L345.75 310ZM347.312 305.578H351L349.203 300.516H349.109L347.312 305.578ZM361.734 301.531C361.609 300.422 360.594 299.781 359.234 299.781C357.734 299.781 356.75 300.562 356.75 301.641C356.75 302.828 358.078 303.266 358.938 303.484L360.062 303.797C361.281 304.109 363.266 304.812 363.266 306.922C363.266 308.766 361.781 310.203 359.156 310.203C356.719 310.203 355.203 308.938 355.078 307.062H356.516C356.641 308.328 357.812 308.922 359.156 308.922C360.719 308.922 361.891 308.125 361.891 306.891C361.891 305.797 360.844 305.375 359.656 305.031L358.266 304.656C356.484 304.141 355.391 303.234 355.391 301.703C355.391 299.797 357.094 298.531 359.281 298.531C361.469 298.531 363.047 299.812 363.109 301.531H361.734ZM376.109 297.391V307.672H374.875V302.328H371.594V305.297H365.297V298.312H366.516V300.781H370.391V298.312H371.594V301.297H374.875V297.391H376.109ZM376.422 309.938V310.969H367.125V306.656H368.359V309.938H376.422ZM366.516 304.281H370.391V301.75H366.516V304.281ZM390.422 299.438V300.453H379.047V299.438H384.141V297.609H385.344V299.438H390.422ZM391.141 308.625V309.641H378.422V308.625H384.141V306.672C381.672 306.539 380.172 305.578 380.188 304.016C380.172 302.359 381.922 301.391 384.75 301.406C387.547 301.391 389.312 302.359 389.312 304.016C389.312 305.578 387.797 306.539 385.344 306.672V308.625H391.141ZM384.75 302.375C382.672 302.375 381.406 302.984 381.422 304.016C381.406 305.078 382.672 305.672 384.75 305.688C386.797 305.672 388.062 305.078 388.062 304.016C388.062 302.984 386.797 302.375 384.75 302.375Z" fill="#2B2B2B"/>
<rect x="304" y="336" width="128" height="40" rx="4" fill="#F6F6F9"/>
<path d="M345.75 362H344.281L348.422 350.688H349.906L354.047 362H352.562L351.438 358.812H346.891L345.75 362ZM347.312 357.578H351L349.203 352.516H349.109L347.312 357.578ZM361.734 353.531C361.609 352.422 360.594 351.781 359.234 351.781C357.734 351.781 356.75 352.562 356.75 353.641C356.75 354.828 358.078 355.266 358.938 355.484L360.062 355.797C361.281 356.109 363.266 356.812 363.266 358.922C363.266 360.766 361.781 362.203 359.156 362.203C356.719 362.203 355.203 360.938 355.078 359.062H356.516C356.641 360.328 357.812 360.922 359.156 360.922C360.719 360.922 361.891 360.125 361.891 358.891C361.891 357.797 360.844 357.375 359.656 357.031L358.266 356.656C356.484 356.141 355.391 355.234 355.391 353.703C355.391 351.797 357.094 350.531 359.281 350.531C361.469 350.531 363.047 351.812 363.109 353.531H361.734ZM376.453 349.375V363.266H375.25V356.078H373.25V362.547H372.094V349.688H373.25V355.031H375.25V349.375H376.453ZM366.516 351.078V358.578C367.898 358.562 369.367 358.469 371.062 358.125L371.219 359.219C369.281 359.562 367.688 359.672 366.156 359.672H365.297V351.078H366.516ZM391.078 356.25V357.266H378.422V356.25H381.562V354.297C380.453 353.867 379.828 353.156 379.828 352.219C379.828 350.578 381.703 349.641 384.75 349.641C387.766 349.641 389.656 350.578 389.656 352.219C389.656 353.148 389.039 353.859 387.938 354.281V356.25H391.078ZM384.75 358.328C387.734 358.328 389.516 359.188 389.531 360.781C389.516 362.359 387.734 363.234 384.75 363.234C381.734 363.234 379.953 362.359 379.953 360.781C379.953 359.188 381.734 358.328 384.75 358.328ZM384.75 359.266C382.516 359.281 381.188 359.828 381.203 360.781C381.188 361.719 382.516 362.281 384.75 362.281C386.953 362.281 388.297 361.719 388.297 360.781C388.297 359.828 386.953 359.281 384.75 359.266ZM384.75 350.609C382.484 350.609 381.078 351.219 381.094 352.219C381.078 353.234 382.484 353.828 384.75 353.828C387 353.828 388.406 353.234 388.406 352.219C388.406 351.219 387 350.609 384.75 350.609ZM382.781 356.25H386.719V354.625C386.133 354.727 385.477 354.781 384.75 354.781C384.023 354.781 383.367 354.727 382.781 354.625V356.25Z" fill="#2B2B2B"/>
<rect x="152" y="156" width="128" height="40" rx="4" fill="#DBE9FF"/>
<path d="M200.062 169.375V176.922H198.844V173.781H196.031V172.75H198.844V169.375H200.062ZM192.359 177.594V179.328H198.844V177.594H200.062V183.078H191.125V177.594H192.359ZM192.359 182.078H198.844V180.312H192.359V182.078ZM193.391 171.641C193.391 173.422 194.781 175.172 196.812 175.875L196.172 176.828C194.602 176.258 193.391 175.094 192.797 173.656C192.195 175.266 190.914 176.555 189.266 177.156L188.625 176.188C190.672 175.453 192.156 173.609 192.156 171.641V171.234H189.016V170.219H196.5V171.234H193.391V171.641ZM209.359 170.672C209.359 172.625 211.922 174.328 214.422 174.672L213.922 175.672C211.766 175.312 209.633 174.117 208.734 172.406C207.844 174.125 205.703 175.312 203.547 175.672L203.047 174.672C205.547 174.328 208.094 172.656 208.094 170.672V169.875H209.359V170.672ZM215.047 177.203V178.234H209.297V183.266H208.094V178.234H202.391V177.203H215.047ZM220.453 170.031C222.484 170.031 223.906 171.125 223.906 172.781C223.906 174.211 222.781 175.25 221.109 175.453V176.812C222.406 176.758 223.727 176.641 224.938 176.453L225.031 177.375C222.094 177.906 218.766 177.938 216.359 177.938L216.203 176.922C217.281 176.93 218.547 176.922 219.875 176.875V175.469C218.156 175.281 217 174.234 217.016 172.781C217 171.125 218.422 170.031 220.453 170.031ZM220.453 170.984C219.109 170.984 218.156 171.703 218.172 172.781C218.156 173.828 219.109 174.547 220.453 174.562C221.812 174.547 222.734 173.828 222.75 172.781C222.734 171.703 221.812 170.984 220.453 170.984ZM227.062 169.391V174.094H229.141V175.141H227.062V180.016H225.828V169.391H227.062ZM227.562 181.922V182.953H218.234V179.094H219.469V181.922H227.562ZM242.766 180.516V181.547H230.047V180.516H233.625V177.875H231.641V173.594H239.953V171.422H231.609V170.406H241.156V174.609H232.859V176.859H241.484V177.875H239.312V180.516H242.766ZM234.828 180.516H238.109V177.875H234.828V180.516Z" fill="#082657"/>
<rect x="152" y="284" width="128" height="40" rx="4" fill="#DBE9FF"/>
<path d="M193.75 310H192.281L196.422 298.688H197.906L202.047 310H200.562L199.438 306.812H194.891L193.75 310ZM195.312 305.578H199L197.203 300.516H197.109L195.312 305.578ZM209.734 301.531C209.609 300.422 208.594 299.781 207.234 299.781C205.734 299.781 204.75 300.562 204.75 301.641C204.75 302.828 206.078 303.266 206.938 303.484L208.062 303.797C209.281 304.109 211.266 304.812 211.266 306.922C211.266 308.766 209.781 310.203 207.156 310.203C204.719 310.203 203.203 308.938 203.078 307.062H204.516C204.641 308.328 205.812 308.922 207.156 308.922C208.719 308.922 209.891 308.125 209.891 306.891C209.891 305.797 208.844 305.375 207.656 305.031L206.266 304.656C204.484 304.141 203.391 303.234 203.391 301.703C203.391 299.797 205.094 298.531 207.281 298.531C209.469 298.531 211.047 299.812 211.109 301.531H209.734ZM224.5 297.375V311.266H223.312V297.375H224.5ZM221.734 297.672V310.562H220.562V306H218.344C217.859 307.391 216.938 308.203 215.75 308.203C213.938 308.203 212.766 306.328 212.766 303.375C212.766 300.422 213.938 298.547 215.75 298.547C216.938 298.547 217.859 299.359 218.344 300.75H220.562V297.672H221.734ZM215.75 299.703C214.609 299.703 213.906 301.109 213.906 303.375C213.906 305.625 214.609 307.047 215.75 307.031C216.875 307.047 217.609 305.625 217.609 303.375C217.609 301.109 216.875 299.703 215.75 299.703ZM218.609 301.766C218.703 302.258 218.75 302.797 218.75 303.375C218.75 303.945 218.703 304.484 218.625 304.969H220.562V301.766H218.609ZM237.938 297.375V305.656H236.703V302.016H233.906V301H236.703V297.375H237.938ZM233.328 306.094C236.219 306.094 237.984 307.031 237.984 308.672C237.984 310.312 236.219 311.25 233.328 311.266C230.438 311.25 228.672 310.312 228.672 308.672C228.672 307.031 230.438 306.094 233.328 306.094ZM233.328 307.047C231.203 307.047 229.875 307.656 229.891 308.672C229.875 309.672 231.203 310.281 233.328 310.281C235.453 310.281 236.766 309.672 236.766 308.672C236.766 307.656 235.453 307.047 233.328 307.047ZM231.25 299.922C231.25 301.734 232.641 303.453 234.672 304.156L234.031 305.141C232.469 304.578 231.258 303.414 230.672 301.969C230.062 303.602 228.773 304.906 227.125 305.531L226.484 304.547C228.547 303.797 230.016 301.922 230.016 299.938V299.422H226.875V298.391H234.359V299.422H231.25V299.922Z" fill="#082657"/>
<rect x="152" y="412" width="128" height="40" rx="4" fill="#DBE9FF"/>
<path d="M193.75 438H192.281L196.422 426.688H197.906L202.047 438H200.562L199.438 434.812H194.891L193.75 438ZM195.312 433.578H199L197.203 428.516H197.109L195.312 433.578ZM209.734 429.531C209.609 428.422 208.594 427.781 207.234 427.781C205.734 427.781 204.75 428.562 204.75 429.641C204.75 430.828 206.078 431.266 206.938 431.484L208.062 431.797C209.281 432.109 211.266 432.812 211.266 434.922C211.266 436.766 209.781 438.203 207.156 438.203C204.719 438.203 203.203 436.938 203.078 435.062H204.516C204.641 436.328 205.812 436.922 207.156 436.922C208.719 436.922 209.891 436.125 209.891 434.891C209.891 433.797 208.844 433.375 207.656 433.031L206.266 432.656C204.484 432.141 203.391 431.234 203.391 429.703C203.391 427.797 205.094 426.531 207.281 426.531C209.469 426.531 211.047 427.812 211.109 429.531H209.734ZM216.828 426.031C218.859 426.031 220.281 427.125 220.281 428.781C220.281 430.211 219.156 431.25 217.484 431.453V432.812C218.781 432.758 220.102 432.641 221.312 432.453L221.406 433.375C218.469 433.906 215.141 433.938 212.734 433.938L212.578 432.922C213.656 432.93 214.922 432.922 216.25 432.875V431.469C214.531 431.281 213.375 430.234 213.391 428.781C213.375 427.125 214.797 426.031 216.828 426.031ZM216.828 426.984C215.484 426.984 214.531 427.703 214.547 428.781C214.531 429.828 215.484 430.547 216.828 430.562C218.188 430.547 219.109 429.828 219.125 428.781C219.109 427.703 218.188 426.984 216.828 426.984ZM223.438 425.391V430.094H225.516V431.141H223.438V436.016H222.203V425.391H223.438ZM223.938 437.922V438.953H214.609V435.094H215.844V437.922H223.938ZM239.141 436.516V437.547H226.422V436.516H230V433.875H228.016V429.594H236.328V427.422H227.984V426.406H237.531V430.609H229.234V432.859H237.859V433.875H235.688V436.516H239.141ZM231.203 436.516H234.484V433.875H231.203V436.516Z" fill="#082657"/>
</svg>
